<svg width="903" height="204" viewBox="0 0 903 204" fill="none" xmlns="http://www.w3.org/2000/svg">
<path d="M132.206 25.0002L137.506 15.2002C137.506 15.2002 115.306 3.60019 92.5063 3.60019C85.3063 3.60019 78.0063 4.70019 71.3063 7.80019C63.6063 11.5002 57.9063 18.7002 56.9063 27.2002C56.9063 27.6002 56.8063 28.0002 56.8063 28.4002C56.8063 28.4002 55.1063 40.7002 67.8063 46.7002C70.2063 47.9002 72.7063 48.6002 75.3063 49.0002L103.006 53.0002L124.806 56.6002C124.806 56.6002 135.506 58.1002 134.706 65.0002C133.206 79.0002 115.106 78.1002 95.6063 77.6002C76.1063 77.2002 58.2063 69.2002 58.2063 69.2002L54.4063 78.5002C54.4063 78.5002 67.9063 86.8002 95.4063 87.6002C130.206 88.7002 139.106 76.5002 141.006 64.6002C141.006 64.6002 144.406 49.7002 124.406 46.3002L74.1063 38.4002C74.1063 38.4002 62.6063 35.8002 62.9063 28.4002C63.3063 21.0002 69.1063 14.9002 80.0063 13.9002C82.9063 13.6002 85.9063 13.4002 89.3063 13.4002C100.106 13.4002 113.706 15.6002 132.206 25.0002ZM211.252 73.0002V23.3002H199.852V55.7002C199.852 68.5002 193.052 76.6002 179.952 76.6002C167.352 76.6002 161.352 70.8002 161.352 58.2002V23.3002H149.952V59.5002C149.952 77.4002 159.852 86.8002 177.652 86.8002C182.452 86.8002 186.752 86.1002 190.552 84.3002C201.452 79.3002 203.752 45.2002 203.752 45.2002C206.452 57.5002 205.252 70.2002 200.352 81.8002L199.852 82.8002C199.852 85.0002 201.652 86.7002 203.852 86.7002H218.352C213.952 83.6002 211.252 78.5002 211.252 73.0002ZM257.227 22.9002C253.827 22.9002 250.327 23.7002 247.327 25.2002C240.727 28.7002 237.127 37.3002 232.927 40.8002C232.527 41.1002 232.227 41.3002 231.927 41.6002L233.827 29.1002V0.000190973H222.527V86.1002H233.827L231.427 69.7002L233.027 69.6002C242.727 83.1002 248.027 86.6002 257.227 86.6002C275.327 86.6002 292.827 74.0002 292.827 54.8002C292.827 35.6002 275.327 22.9002 257.227 22.9002ZM257.227 74.1002C246.927 74.1002 237.727 69.2002 233.827 62.3002V47.2002C237.727 40.3002 246.927 35.4002 257.227 35.4002C271.027 35.4002 282.627 44.3002 282.627 54.8002C282.627 65.3002 271.027 74.1002 257.227 74.1002ZM346.135 53.5002C343.035 52.5002 331.635 51.6002 326.635 50.7002C322.835 50.0002 319.835 49.4002 317.735 48.8002C315.635 48.3002 313.935 47.4002 312.435 46.2002C310.735 44.8002 310.035 42.4002 310.435 40.2002C310.735 38.0002 312.235 36.2002 314.135 35.1002C316.735 33.4002 319.835 32.9002 322.835 32.7002C327.935 32.4002 332.935 33.6002 337.735 35.2002C342.135 36.6002 346.835 38.2002 350.735 40.7002L354.835 31.6002C347.835 27.1002 335.935 24.0002 327.835 23.2002C321.735 22.5002 315.735 23.0002 310.235 25.7002C305.535 28.0002 301.235 31.7002 299.735 36.8002C298.235 41.8002 298.835 48.2002 302.535 52.1002C304.835 54.6002 307.535 56.3002 310.735 57.4002C313.935 58.4002 318.135 59.3002 323.135 60.1002C326.835 60.7002 337.035 61.3002 339.035 61.8002C341.035 62.3002 342.735 63.1002 344.135 64.3002C345.835 65.7002 346.735 68.5002 345.635 70.6002C343.335 75.8002 331.535 77.3002 326.835 77.4002C321.635 77.5002 316.135 76.7002 311.035 75.2002C307.735 74.2002 304.535 72.8002 301.635 70.9002C300.035 69.9002 298.635 68.6002 297.035 67.5002V79.0002C304.835 85.2002 315.335 87.0002 325.035 87.2002C329.035 87.3002 333.035 87.2002 337.035 86.5002C345.335 85.2002 354.735 81.1002 356.935 72.2002C358.235 67.7002 357.435 62.1002 354.135 58.6002C351.935 56.2002 349.335 54.5002 346.135 53.5002ZM404.36 32.9002C412.26 32.9002 420.26 35.5002 425.36 41.9002L436.06 36.4002C429.06 26.4002 416.26 22.9002 404.56 22.9002C385.06 22.9002 363.76 33.2002 363.76 55.0002C363.76 77.0002 385.36 87.2002 404.56 87.2002C416.36 87.2002 428.96 83.7002 436.06 73.6002L425.36 68.2002C420.26 74.6002 412.26 77.2002 404.36 77.2002C390.76 77.2002 377.86 69.7002 377.86 55.0002C377.86 40.4002 390.86 32.9002 404.36 32.9002ZM463.437 25.8002C452.537 30.8002 450.237 64.9002 450.237 64.9002C447.537 52.7002 448.737 39.9002 453.737 28.3002L454.137 27.3002V23.4002H442.737V86.8002H454.137V54.4002C454.137 41.7002 460.937 33.5002 474.037 33.5002C474.837 33.5002 487.837 33.5002 488.637 33.6002V23.3002H476.337C471.537 23.3002 467.237 24.0002 463.437 25.8002ZM509.524 9.40019H498.124V15.7002H509.524V9.40019ZM513.424 83.6002C511.124 81.4002 509.824 78.4002 509.824 75.3002V23.6002H498.424V76.8002C498.424 79.4002 499.324 81.9002 500.924 83.9002L503.024 86.4002H516.624L513.424 83.6002ZM556.25 22.9002C552.85 22.9002 549.35 23.7002 546.35 25.2002C539.75 28.7002 536.15 37.3002 531.95 40.8002C531.55 41.1002 531.25 41.3002 530.95 41.6002L532.85 29.1002V0.000190973H521.55V86.1002H532.85L530.45 69.7002L532.05 69.6002C541.75 83.1002 547.05 86.6002 556.25 86.6002C574.35 86.6002 591.85 74.0002 591.85 54.8002C591.85 35.6002 574.35 22.9002 556.25 22.9002ZM556.25 74.1002C545.95 74.1002 536.75 69.2002 532.85 62.3002V47.2002C536.75 40.3002 545.95 35.4002 556.25 35.4002C570.05 35.4002 581.65 44.3002 581.65 54.8002C581.65 65.3002 570.05 74.1002 556.25 74.1002ZM635.359 22.9002C616.059 22.9002 597.559 34.4002 597.559 55.0002C597.559 68.0002 605.259 77.8002 616.859 83.1002C623.059 85.8002 630.159 87.2002 638.059 87.2002C648.459 87.2002 660.159 84.4002 667.859 77.0002L660.259 69.6002C654.759 74.7002 647.559 77.2002 638.559 77.2002C631.159 77.2002 624.859 75.6002 619.959 72.1002C611.259 66.0002 609.759 58.0002 610.359 52.5002L616.359 55.1002L672.659 55.4002C672.659 55.4002 673.359 46.7002 667.859 38.5002C660.659 27.5002 648.159 22.9002 635.359 22.9002ZM611.259 50.6002C612.859 38.4002 623.959 32.6002 635.359 32.6002C646.659 32.6002 657.959 38.4002 659.559 50.6002H611.259ZM754.707 79.2002C748.007 79.2002 744.907 75.0002 744.907 68.6002V28.8002H762.907V23.5002H744.907L745.007 22.9002L744.807 9.80019H735.907V23.5002H722.807V28.8002H733.507L735.807 27.5002H737.407L733.507 39.3002V67.5002C733.507 80.2002 740.707 87.2002 753.407 87.2002C758.107 87.2002 763.507 85.8002 767.207 82.8002L763.607 76.2002C761.207 78.2002 758.207 79.2002 754.707 79.2002ZM808.93 22.9002C796.13 22.9002 784.63 26.9002 777.93 38.4002C775.13 43.3002 773.73 48.8002 773.73 55.0002C773.73 66.9002 779.13 77.1002 789.63 83.0002C794.63 85.8002 802.63 87.2002 808.93 87.2002C821.93 87.2002 832.93 83.0002 839.83 71.6002C842.63 66.7002 844.03 61.2002 844.03 55.0002C844.03 48.8002 842.63 43.3002 839.83 38.4002C832.93 26.9002 821.93 22.9002 808.93 22.9002ZM822.23 74.4002C819.03 76.3002 812.93 77.2002 808.93 77.2002C799.83 77.2002 792.73 74.7002 788.03 66.6002C786.13 63.2002 785.23 59.3002 785.23 55.0002C785.23 47.0002 788.63 39.8002 795.63 35.6002C798.83 33.8002 804.93 32.9002 808.93 32.9002C817.83 32.9002 825.23 35.2002 829.73 43.4002C831.53 46.8002 832.53 50.6002 832.53 55.0002C832.53 62.9002 829.13 70.3002 822.23 74.4002ZM35.2 138.9C22.4 138.9 10.9 142.9 4.2 154.4C1.4 159.3 1.19209e-07 164.8 1.19209e-07 171C1.19209e-07 182.9 5.4 193.1 15.9 199C20.9 201.8 28.9 203.2 35.2 203.2C48.2 203.2 59.2 199 66.1 187.6C68.9 182.7 70.3 177.2 70.3 171C70.3 164.8 68.9 159.3 66.1 154.4C59.2 142.9 48.2 138.9 35.2 138.9ZM48.5 190.4C45.3 192.3 39.2 193.2 35.2 193.2C26.1 193.2 19 190.7 14.3 182.6C12.4 179.2 11.5 175.3 11.5 171C11.5 163 14.9 155.8 21.9 151.6C25.1 149.8 31.2 148.9 35.2 148.9C44.1 148.9 51.5 151.2 56 159.4C57.8 162.8 58.8 166.6 58.8 171C58.8 178.9 55.4 186.3 48.5 190.4ZM139.67 189V139.3H128.27V171.7C128.27 184.5 121.47 192.6 108.37 192.6C95.7695 192.6 89.7695 186.8 89.7695 174.2V139.3H78.3695V175.5C78.3695 193.4 88.2695 202.8 106.07 202.8C110.87 202.8 115.17 202.1 118.97 200.3C129.87 195.3 132.17 161.2 132.17 161.2C134.87 173.5 133.67 186.2 128.77 197.8L128.27 198.8C128.27 201 130.07 202.7 132.27 202.7H146.77C142.37 199.6 139.67 194.5 139.67 189ZM173.007 141.8C162.107 146.8 159.807 180.9 159.807 180.9C157.107 168.7 158.307 155.9 163.307 144.3L163.707 143.3V139.4H152.307V202.8H163.707V170.4C163.707 157.7 170.507 149.5 183.607 149.5C184.407 149.5 197.407 149.5 198.207 149.6V139.3H185.907C181.107 139.3 176.807 140 173.007 141.8ZM281.903 139.3C277.103 139.3 272.803 140 269.003 141.8C258.103 146.8 255.803 180.9 255.803 180.9C253.103 168.7 254.303 155.9 259.303 144.3L259.703 143.3V139.4H248.303V202.8H259.703V170.4C259.703 157.7 266.503 149.5 279.603 149.5C292.203 149.5 298.203 155.4 298.203 167.9V202.8H309.603V166.6C309.603 148.6 299.903 139.3 281.903 139.3ZM355.476 138.9C336.176 138.9 317.676 150.4 317.676 171C317.676 184 325.376 193.8 336.976 199.1C343.176 201.8 350.276 203.2 358.176 203.2C368.576 203.2 380.276 200.4 387.976 193L380.376 185.6C374.876 190.7 367.676 193.2 358.676 193.2C351.276 193.2 344.976 191.6 340.076 188.1C331.376 182 329.876 174 330.476 168.5L336.476 171.1L392.776 171.4C392.776 171.4 393.476 162.7 387.976 154.5C380.776 143.5 368.276 138.9 355.476 138.9ZM331.376 166.6C332.976 154.4 344.076 148.6 355.476 148.6C366.776 148.6 378.076 154.4 379.676 166.6H331.376ZM469.228 196.6L446.828 139.5H443.928L424.928 189.6V196.9L421.428 196.6L422.628 183.3L406.628 139.5H395.828L419.228 202.4H430.128L448.528 154.7L466.728 202.4H477.628L501.128 139.5H490.928L469.228 196.6ZM551.702 169.5C548.602 168.5 537.202 167.6 532.202 166.7C528.402 166 525.402 165.4 523.302 164.8C521.202 164.3 519.502 163.4 518.002 162.2C516.302 160.8 515.602 158.4 516.002 156.2C516.302 154 517.802 152.2 519.702 151.1C522.302 149.4 525.402 148.9 528.402 148.7C533.502 148.4 538.502 149.6 543.302 151.2C547.702 152.6 552.402 154.2 556.302 156.7L560.402 147.6C553.402 143.1 541.502 140 533.402 139.2C527.302 138.5 521.302 139 515.802 141.7C511.102 144 506.802 147.7 505.302 152.8C503.802 157.8 504.402 164.2 508.102 168.1C510.402 170.6 513.102 172.3 516.302 173.4C519.502 174.4 523.702 175.3 528.702 176.1C532.402 176.7 542.602 177.3 544.602 177.8C546.602 178.3 548.302 179.1 549.702 180.3C551.402 181.7 552.302 184.5 551.202 186.6C548.902 191.8 537.102 193.3 532.402 193.4C527.202 193.5 521.702 192.7 516.602 191.2C513.302 190.2 510.102 188.8 507.202 186.9C505.602 185.9 504.202 184.6 502.602 183.5V195C510.402 201.2 520.902 203 530.602 203.2C534.602 203.3 538.602 203.2 542.602 202.5C550.902 201.2 560.302 197.1 562.502 188.2C563.802 183.7 563.002 178.1 559.702 174.6C557.502 172.2 554.902 170.5 551.702 169.5ZM583.627 185.2V114.4H572.227V186.5C572.227 192.9 575.527 198.9 580.927 202.4H594.527L593.227 201.7C587.327 198.3 583.627 192 583.627 185.2ZM631.355 138.9C612.055 138.9 593.555 150.4 593.555 171C593.555 184 601.255 193.8 612.855 199.1C619.055 201.8 626.155 203.2 634.055 203.2C644.455 203.2 656.155 200.4 663.855 193L656.255 185.6C650.755 190.7 643.555 193.2 634.555 193.2C627.155 193.2 620.855 191.6 615.955 188.1C607.255 182 605.755 174 606.355 168.5L612.355 171.1L668.655 171.4C668.655 171.4 669.355 162.7 663.855 154.5C656.655 143.5 644.155 138.9 631.355 138.9ZM607.255 166.6C608.855 154.4 619.955 148.6 631.355 148.6C642.655 148.6 653.955 154.4 655.555 166.6H607.255ZM704.707 195.2C698.007 195.2 694.907 191 694.907 184.6V144.8H712.907V139.5H694.907L695.007 138.9L694.807 125.8H685.907V139.5H672.807V144.8H683.507L685.807 143.5H687.407L683.507 155.3V183.5C683.507 196.2 690.707 203.2 703.407 203.2C708.107 203.2 713.507 201.8 717.207 198.8L713.607 192.2C711.207 194.2 708.207 195.2 704.707 195.2ZM753.73 195.2C747.03 195.2 743.93 191 743.93 184.6V144.8H761.93V139.5H743.93L744.03 138.9L743.83 125.8H734.93V139.5H721.83V144.8H732.53L734.83 143.5H736.43L732.53 155.3V183.5C732.53 196.2 739.73 203.2 752.43 203.2C757.13 203.2 762.53 201.8 766.23 198.8L762.63 192.2C760.23 194.2 757.23 195.2 753.73 195.2ZM810.554 138.9C791.254 138.9 772.754 150.4 772.754 171C772.754 184 780.454 193.8 792.054 199.1C798.254 201.8 805.354 203.2 813.254 203.2C823.654 203.2 835.354 200.4 843.054 193L835.454 185.6C829.954 190.7 822.754 193.2 813.754 193.2C806.354 193.2 800.054 191.6 795.154 188.1C786.454 182 784.954 174 785.554 168.5L791.554 171.1L847.854 171.4C847.854 171.4 848.554 162.7 843.054 154.5C835.854 143.5 823.354 138.9 810.554 138.9ZM786.454 166.6C788.054 154.4 799.154 148.6 810.554 148.6C821.854 148.6 833.154 154.4 834.754 166.6H786.454ZM877.206 141.8C866.306 146.8 864.006 180.9 864.006 180.9C861.306 168.7 862.506 155.9 867.506 144.3L867.906 143.3V139.4H856.506V202.8H867.906V170.4C867.906 157.7 874.706 149.5 887.806 149.5C888.606 149.5 901.606 149.5 902.406 149.6V139.3H890.106C885.306 139.3 881.006 140 877.206 141.8Z" fill="black"/>
</svg>
