<svg width="686" height="151" viewBox="0 0 686 151" fill="none" xmlns="http://www.w3.org/2000/svg">
<path d="M299.97 119H591.336L255 133.4H626L438.002 149" stroke="#FFC250" stroke-width="3"/>
<rect width="207" height="70" rx="35" fill="#D7EEDD"/>
<path d="M89.4084 9.312L70.7604 51.984L59.4484 26.504L66.9524 9.312H60.3444L56.0884 19L51.7204 9.312H48.5844L54.4644 22.696L41.6964 51.984L22.7124 9.312H19.5204L40.0164 55.792H46.5684L57.7684 30.256L69.0244 55.792H75.6324L96.0164 9.312H89.4084ZM116.575 18.272C113.887 18.272 111.479 18.72 109.351 19.672C103.247 22.472 101.959 41.568 101.959 41.568C100.447 34.736 101.119 27.568 103.919 21.072L104.143 20.512V4.552H97.7589V53.832H104.143V35.688C104.143 28.576 107.951 23.984 115.287 23.984C122.343 23.984 125.703 27.288 125.703 34.288V53.832H132.087V33.56C132.087 23.48 126.599 18.272 116.575 18.272ZM155.873 18.104L152.625 18.16C145.961 18.272 140.137 20.96 136.833 24.992L142.097 27.624C144.281 24.824 148.313 22.864 152.905 22.808L155.145 22.752C161.081 22.64 165.897 26.168 165.897 30.592L167.297 37.76H167.185C165.281 36.024 163.041 33.168 159.569 32.216C157.945 31.768 156.097 31.488 154.249 31.488C149.321 31.6 144.617 32.776 141.033 34.792C137.113 36.976 134.985 39.944 134.985 43.08C134.985 46.216 137.113 49.128 140.977 51.144C144.505 53.048 149.209 54.056 154.193 54C158.729 53.888 162.033 50.808 166.625 46.496H167.129L165.841 53.776L172.449 53.664L172.561 30.312C172.561 23.368 165.113 17.936 155.873 18.104ZM165.841 43.92C164.497 46.552 159.457 48.624 153.633 48.736C146.801 48.848 141.033 46.216 141.033 42.968C141.089 39.72 146.857 36.92 153.633 36.808C159.513 36.696 164.553 38.6 165.897 41.176L165.841 43.92ZM192.445 49.8C188.693 49.8 186.957 47.448 186.957 43.864V21.576H197.037V18.608H186.957L187.013 18.272L186.901 10.936H181.917V18.608H174.581V21.576H180.573L181.861 20.848H182.757L180.573 27.456V43.248C180.573 50.36 184.605 54.28 191.717 54.28C194.349 54.28 197.373 53.496 199.445 51.816L197.429 48.12C196.085 49.24 194.405 49.8 192.445 49.8ZM245.768 18.272C238.6 18.272 232.16 20.512 228.408 26.952C226.84 29.696 226.056 32.776 226.056 36.248C226.056 42.912 229.08 48.624 234.96 51.928C237.76 53.496 242.24 54.28 245.768 54.28C253.048 54.28 259.208 51.928 263.072 45.544C264.64 42.8 265.424 39.72 265.424 36.248C265.424 32.776 264.64 29.696 263.072 26.952C259.208 20.512 253.048 18.272 245.768 18.272ZM253.216 47.112C251.424 48.176 248.008 48.68 245.768 48.68C240.672 48.68 236.696 47.28 234.064 42.744C233 40.84 232.496 38.656 232.496 36.248C232.496 31.768 234.4 27.736 238.32 25.384C240.112 24.376 243.528 23.872 245.768 23.872C250.752 23.872 254.896 25.16 257.416 29.752C258.424 31.656 258.984 33.784 258.984 36.248C258.984 40.672 257.08 44.816 253.216 47.112ZM302.871 46.328V18.496H296.487V36.64C296.487 43.808 292.679 48.344 285.343 48.344C278.287 48.344 274.927 45.096 274.927 38.04V18.496H268.543V38.768C268.543 48.792 274.087 54.056 284.055 54.056C286.743 54.056 289.151 53.664 291.279 52.656C297.383 49.856 298.671 30.76 298.671 30.76C300.183 37.648 299.511 44.76 296.767 51.256L296.487 51.816C296.487 53.048 297.495 54 298.727 54H306.847C304.383 52.264 302.871 49.408 302.871 46.328ZM320.14 19.896C314.036 22.696 312.748 41.792 312.748 41.792C311.236 34.96 311.908 27.792 314.708 21.296L314.932 20.736V18.552H308.548V54.056H314.932V35.912C314.932 28.8 318.74 24.208 326.076 24.208C326.524 24.208 333.804 24.208 334.252 24.264V18.496H327.364C324.676 18.496 322.268 18.888 320.14 19.896ZM380.562 23.872C384.986 23.872 389.466 25.328 392.322 28.912L398.314 25.832C394.394 20.232 387.226 18.272 380.674 18.272C369.754 18.272 357.826 24.04 357.826 36.248C357.826 48.568 369.922 54.28 380.674 54.28C387.282 54.28 394.338 52.32 398.314 46.664L392.322 43.64C389.466 47.224 384.986 48.68 380.562 48.68C372.946 48.68 365.722 44.48 365.722 36.248C365.722 28.072 373.002 23.872 380.562 23.872ZM434.7 46.328V18.496H428.316V36.64C428.316 43.808 424.508 48.344 417.172 48.344C410.116 48.344 406.756 45.096 406.756 38.04V18.496H400.372V38.768C400.372 48.792 405.916 54.056 415.884 54.056C418.572 54.056 420.98 53.664 423.108 52.656C429.212 49.856 430.5 30.76 430.5 30.76C432.012 37.648 431.34 44.76 428.596 51.256L428.316 51.816C428.316 53.048 429.324 54 430.556 54H438.676C436.212 52.264 434.7 49.408 434.7 46.328ZM466.726 35.408C464.99 34.848 458.606 34.344 455.806 33.84C453.678 33.448 451.998 33.112 450.822 32.776C449.646 32.496 448.694 31.992 447.854 31.32C446.902 30.536 446.51 29.192 446.734 27.96C446.902 26.728 447.742 25.72 448.806 25.104C450.262 24.152 451.998 23.872 453.678 23.76C456.534 23.592 459.334 24.264 462.022 25.16C464.486 25.944 467.118 26.84 469.302 28.24L471.598 23.144C467.678 20.624 461.014 18.888 456.478 18.44C453.062 18.048 449.702 18.328 446.622 19.84C443.99 21.128 441.582 23.2 440.742 26.056C439.902 28.856 440.238 32.44 442.31 34.624C443.598 36.024 445.11 36.976 446.902 37.592C448.694 38.152 451.046 38.656 453.846 39.104C455.918 39.44 461.63 39.776 462.75 40.056C463.87 40.336 464.822 40.784 465.606 41.456C466.558 42.24 467.062 43.808 466.446 44.984C465.158 47.896 458.55 48.736 455.918 48.792C453.006 48.848 449.926 48.4 447.07 47.56C445.222 47 443.43 46.216 441.806 45.152C440.91 44.592 440.126 43.864 439.23 43.248V49.688C443.598 53.16 449.478 54.168 454.91 54.28C457.15 54.336 459.39 54.28 461.63 53.888C466.278 53.16 471.542 50.864 472.774 45.88C473.502 43.36 473.054 40.224 471.206 38.264C469.974 36.92 468.518 35.968 466.726 35.408ZM492.22 49.8C488.468 49.8 486.732 47.448 486.732 43.864V21.576H496.812V18.608H486.732L486.788 18.272L486.676 10.936H481.692V18.608H474.356V21.576H480.348L481.636 20.848H482.532L480.348 27.456V43.248C480.348 50.36 484.38 54.28 491.492 54.28C494.124 54.28 497.148 53.496 499.22 51.816L497.204 48.12C495.86 49.24 494.18 49.8 492.22 49.8ZM521.185 18.272C514.017 18.272 507.577 20.512 503.825 26.952C502.257 29.696 501.473 32.776 501.473 36.248C501.473 42.912 504.497 48.624 510.377 51.928C513.177 53.496 517.657 54.28 521.185 54.28C528.465 54.28 534.625 51.928 538.489 45.544C540.057 42.8 540.841 39.72 540.841 36.248C540.841 32.776 540.057 29.696 538.489 26.952C534.625 20.512 528.465 18.272 521.185 18.272ZM528.633 47.112C526.841 48.176 523.425 48.68 521.185 48.68C516.089 48.68 512.113 47.28 509.481 42.744C508.417 40.84 507.913 38.656 507.913 36.248C507.913 31.768 509.817 27.736 513.737 25.384C515.529 24.376 518.945 23.872 521.185 23.872C526.169 23.872 530.313 25.16 532.833 29.752C533.841 31.656 534.401 33.784 534.401 36.248C534.401 40.672 532.497 44.816 528.633 47.112ZM595.2 18.272C591.504 18.272 588.256 19.168 586.128 20.176C583.272 21.576 581.536 25.328 580.472 29.304C578.96 21.24 572.632 18.272 564.848 18.272C561.208 18.272 557.904 19.168 555.832 20.176C548.776 23.592 548.44 41.568 548.44 41.568C548.328 41.568 547.656 41.568 547.6 41.512C547.6 41.512 547.544 41.344 547.544 41.232C547.488 41.12 547.488 40.952 547.432 40.84C547.32 40.448 547.264 40.056 547.208 39.664C547.096 39.272 547.04 38.88 546.984 38.488C546.928 38.096 546.872 37.704 546.816 37.312C546.816 36.976 546.76 36.584 546.704 36.248C546.704 35.856 546.648 35.464 546.648 35.128C546.648 34.792 546.648 34.4 546.648 34.064C546.592 33.728 546.592 33.392 546.648 33C546.648 32.664 546.648 32.328 546.648 31.992C546.704 31.656 546.704 31.376 546.704 31.04C546.76 30.704 546.76 30.368 546.816 30.088C546.872 29.752 546.872 29.472 546.928 29.136C546.984 28.856 547.04 28.52 547.096 28.24C547.208 27.68 547.32 27.12 547.432 26.56C547.488 26.28 547.544 26 547.6 25.776C547.656 25.496 547.712 25.272 547.824 24.992C547.88 24.768 547.936 24.544 547.992 24.264C548.104 24.04 548.16 23.816 548.216 23.592C548.328 23.368 548.384 23.144 548.44 22.92C548.552 22.752 548.608 22.528 548.664 22.304C548.776 22.136 548.832 21.968 548.888 21.744C549 21.576 549.056 21.408 549.112 21.24C549.28 21.016 549.448 20.568 549.56 20.288C549.616 20.176 549.672 20.008 549.728 19.896C549.84 19.784 549.896 19.672 549.952 19.504C550.008 19.448 550.064 19.336 550.12 19.224C550.176 19.112 550.176 19.056 550.232 18.944C550.288 18.888 550.344 18.776 550.4 18.72C550.4 18.664 550.456 18.608 550.456 18.552C550.512 18.496 550.512 18.44 550.568 18.44C550.568 18.384 550.568 18.384 550.624 18.328H544.24V53.832H550.624V35.688C550.624 31.936 552.136 29.136 554.152 27.12C556.112 25.104 560.144 23.984 563.616 23.984C566.64 23.984 570.392 24.88 572.016 26.56C573.64 28.296 574.48 30.872 574.48 34.288V53.832H580.92V35.688C580.92 31.936 582.488 29.136 584.448 27.12C586.464 25.104 590.496 23.984 593.912 23.984C596.992 23.984 600.688 24.88 602.312 26.56C603.992 28.296 604.776 30.872 604.776 34.288V53.832H611.16V33.56C611.16 28.576 609.872 24.768 607.24 22.192C604.608 19.56 599.68 18.272 595.2 18.272ZM635.45 18.272C624.642 18.272 614.282 24.712 614.282 36.248C614.282 43.528 618.594 49.016 625.09 51.984C628.562 53.496 632.538 54.28 636.962 54.28C642.786 54.28 649.338 52.712 653.65 48.568L649.394 44.424C646.314 47.28 642.282 48.68 637.242 48.68C633.098 48.68 629.57 47.784 626.826 45.824C621.954 42.408 621.114 37.928 621.45 34.848L624.81 36.304L656.338 36.472C656.338 36.472 656.73 31.6 653.65 27.008C649.618 20.848 642.618 18.272 635.45 18.272ZM621.954 33.784C622.85 26.952 629.066 23.704 635.45 23.704C641.778 23.704 648.106 26.952 649.002 33.784H621.954ZM671.376 19.896C665.272 22.696 663.984 41.792 663.984 41.792C662.472 34.96 663.144 27.792 665.944 21.296L666.168 20.736V18.552H659.784V54.056H666.168V35.912C666.168 28.8 669.976 24.208 677.312 24.208C677.76 24.208 685.04 24.208 685.488 24.264V18.496H678.6C675.912 18.496 673.504 18.888 671.376 19.896ZM144.392 101.408C142.656 100.848 136.272 100.344 133.472 99.84C131.344 99.448 129.664 99.112 128.488 98.776C127.312 98.496 126.36 97.992 125.52 97.32C124.568 96.536 124.176 95.192 124.4 93.96C124.568 92.728 125.408 91.72 126.472 91.104C127.928 90.152 129.664 89.872 131.344 89.76C134.2 89.592 137 90.264 139.688 91.16C142.152 91.944 144.784 92.84 146.968 94.24L149.264 89.144C145.344 86.624 138.68 84.888 134.144 84.44C130.728 84.048 127.368 84.328 124.288 85.84C121.656 87.128 119.248 89.2 118.408 92.056C117.568 94.856 117.904 98.44 119.976 100.624C121.264 102.024 122.776 102.976 124.568 103.592C126.36 104.152 128.712 104.656 131.512 105.104C133.584 105.44 139.296 105.776 140.416 106.056C141.536 106.336 142.488 106.784 143.272 107.456C144.224 108.24 144.728 109.808 144.112 110.984C142.824 113.896 136.216 114.736 133.584 114.792C130.672 114.848 127.592 114.4 124.736 113.56C122.888 113 121.096 112.216 119.472 111.152C118.576 110.592 117.792 109.864 116.896 109.248V115.688C121.264 119.16 127.144 120.168 132.576 120.28C134.816 120.336 137.056 120.28 139.296 119.888C143.944 119.16 149.208 116.864 150.44 111.88C151.168 109.36 150.72 106.224 148.872 104.264C147.64 102.92 146.184 101.968 144.392 101.408ZM173.75 84.104L170.502 84.16C163.838 84.272 158.014 86.96 154.71 90.992L159.974 93.624C162.158 90.824 166.19 88.864 170.782 88.808L173.022 88.752C178.958 88.64 183.774 92.168 183.774 96.592L185.174 103.76H185.062C183.158 102.024 180.918 99.168 177.446 98.216C175.822 97.768 173.974 97.488 172.126 97.488C167.198 97.6 162.494 98.776 158.91 100.792C154.99 102.976 152.862 105.944 152.862 109.08C152.862 112.216 154.99 115.128 158.854 117.144C162.382 119.048 167.086 120.056 172.07 120C176.606 119.888 179.91 116.808 184.502 112.496H185.006L183.718 119.776L190.326 119.664L190.438 96.312C190.438 89.368 182.99 83.936 173.75 84.104ZM183.718 109.92C182.374 112.552 177.334 114.624 171.51 114.736C164.678 114.848 158.91 112.216 158.91 108.968C158.966 105.72 164.734 102.92 171.51 102.808C177.39 102.696 182.43 104.6 183.774 107.176L183.718 109.92ZM207.849 112.832L195.529 84.608H192.113L205.217 114.288L208.801 116.136V117.312L205.441 117.816L203.313 122.24C202.473 124.256 201.521 125.656 200.513 126.496C199.449 127.28 198.161 127.728 196.593 127.728C194.241 127.728 192.113 126.832 190.321 125.096L187.577 129.912C189.817 132.152 193.513 133.16 196.593 133.16C203.313 133.16 206.729 129.24 209.193 123.36L226.273 84.608H220.001L207.849 112.832ZM253.231 101.408C251.495 100.848 245.111 100.344 242.311 99.84C240.183 99.448 238.503 99.112 237.327 98.776C236.151 98.496 235.199 97.992 234.359 97.32C233.407 96.536 233.015 95.192 233.239 93.96C233.407 92.728 234.247 91.72 235.311 91.104C236.767 90.152 238.503 89.872 240.183 89.76C243.039 89.592 245.839 90.264 248.527 91.16C250.991 91.944 253.623 92.84 255.807 94.24L258.103 89.144C254.183 86.624 247.519 84.888 242.983 84.44C239.567 84.048 236.207 84.328 233.127 85.84C230.495 87.128 228.087 89.2 227.247 92.056C226.407 94.856 226.743 98.44 228.815 100.624C230.103 102.024 231.615 102.976 233.407 103.592C235.199 104.152 237.551 104.656 240.351 105.104C242.423 105.44 248.135 105.776 249.255 106.056C250.375 106.336 251.327 106.784 252.111 107.456C253.063 108.24 253.567 109.808 252.951 110.984C251.663 113.896 245.055 114.736 242.423 114.792C239.511 114.848 236.431 114.4 233.575 113.56C231.727 113 229.935 112.216 228.311 111.152C227.415 110.592 226.631 109.864 225.735 109.248V115.688C230.103 119.16 235.983 120.168 241.415 120.28C243.655 120.336 245.895 120.28 248.135 119.888C252.783 119.16 258.047 116.864 259.279 111.88C260.007 109.36 259.559 106.224 257.711 104.264C256.479 102.92 255.023 101.968 253.231 101.408ZM321.339 108.352L326.491 120H333.435L312.323 73.464H305.715L284.659 120H291.491L296.643 108.352H321.339ZM320.051 105.384L297.875 105.44L308.963 80.24L320.051 105.384ZM354.828 84.272C352.924 84.272 350.964 84.72 349.284 85.56C345.588 87.52 343.572 92.336 341.22 94.296C340.996 94.464 340.828 94.576 340.66 94.744L341.724 87.744V71.448H335.396V119.664H341.724L340.38 110.48L341.276 110.424C346.708 117.984 349.676 119.944 354.828 119.944C364.964 119.944 374.764 112.888 374.764 102.136C374.764 91.384 364.964 84.272 354.828 84.272ZM354.828 112.944C349.06 112.944 343.908 110.2 341.724 106.336V97.88C343.908 94.016 349.06 91.272 354.828 91.272C362.556 91.272 369.052 96.256 369.052 102.136C369.052 108.016 362.556 112.944 354.828 112.944ZM396.273 84.272C389.105 84.272 382.665 86.512 378.913 92.952C377.345 95.696 376.561 98.776 376.561 102.248C376.561 108.912 379.585 114.624 385.465 117.928C388.265 119.496 392.745 120.28 396.273 120.28C403.553 120.28 409.713 117.928 413.577 111.544C415.145 108.8 415.929 105.72 415.929 102.248C415.929 98.776 415.145 95.696 413.577 92.952C409.713 86.512 403.553 84.272 396.273 84.272ZM403.721 113.112C401.929 114.176 398.513 114.68 396.273 114.68C391.177 114.68 387.201 113.28 384.569 108.744C383.505 106.84 383.001 104.656 383.001 102.248C383.001 97.768 384.905 93.736 388.825 91.384C390.617 90.376 394.033 89.872 396.273 89.872C401.257 89.872 405.401 91.16 407.921 95.752C408.929 97.656 409.489 99.784 409.489 102.248C409.489 106.672 407.585 110.816 403.721 113.112ZM453.376 112.328V84.496H446.992V102.64C446.992 109.808 443.184 114.344 435.848 114.344C428.792 114.344 425.432 111.096 425.432 104.04V84.496H419.048V104.768C419.048 114.792 424.592 120.056 434.56 120.056C437.248 120.056 439.656 119.664 441.784 118.656C447.888 115.856 449.176 96.76 449.176 96.76C450.688 103.648 450.016 110.76 447.272 117.256L446.992 117.816C446.992 119.048 448 120 449.232 120H457.352C454.888 118.264 453.376 115.408 453.376 112.328ZM474.014 115.8C470.262 115.8 468.526 113.448 468.526 109.864V87.576H478.606V84.608H468.526L468.582 84.272L468.47 76.936H463.486V84.608H456.15V87.576H462.142L463.43 86.848H464.326L462.142 93.456V109.248C462.142 116.36 466.174 120.28 473.286 120.28C475.918 120.28 478.942 119.496 481.014 117.816L478.998 114.12C477.654 115.24 475.974 115.8 474.014 115.8ZM529.241 120.504C542.345 120.504 548.953 112.664 548.953 99.896V73.464H542.513V103.256C542.513 112.104 538.873 118.264 529.353 118.264C520.617 118.264 516.249 113.28 516.249 103.256V73.464H509.585V99.896C509.585 112.552 516.249 120.504 529.241 120.504ZM579.53 101.408C577.794 100.848 571.41 100.344 568.61 99.84C566.482 99.448 564.802 99.112 563.626 98.776C562.45 98.496 561.498 97.992 560.658 97.32C559.706 96.536 559.314 95.192 559.538 93.96C559.706 92.728 560.546 91.72 561.61 91.104C563.066 90.152 564.802 89.872 566.482 89.76C569.338 89.592 572.138 90.264 574.826 91.16C577.29 91.944 579.922 92.84 582.106 94.24L584.402 89.144C580.482 86.624 573.818 84.888 569.282 84.44C565.866 84.048 562.506 84.328 559.426 85.84C556.794 87.128 554.386 89.2 553.546 92.056C552.706 94.856 553.042 98.44 555.114 100.624C556.402 102.024 557.914 102.976 559.706 103.592C561.498 104.152 563.85 104.656 566.65 105.104C568.722 105.44 574.434 105.776 575.554 106.056C576.674 106.336 577.626 106.784 578.41 107.456C579.362 108.24 579.866 109.808 579.25 110.984C577.962 113.896 571.354 114.736 568.722 114.792C565.81 114.848 562.73 114.4 559.874 113.56C558.026 113 556.234 112.216 554.61 111.152C553.714 110.592 552.93 109.864 552.034 109.248V115.688C556.402 119.16 562.282 120.168 567.714 120.28C569.954 120.336 572.194 120.28 574.434 119.888C579.082 119.16 584.346 116.864 585.578 111.88C586.306 109.36 585.858 106.224 584.01 104.264C582.778 102.92 581.322 101.968 579.53 101.408Z" fill="black"/>
</svg>
