<svg width="198" height="25" viewBox="0 0 198 25" fill="none" xmlns="http://www.w3.org/2000/svg">
<path d="M19.852 21.84H3.33201V13.832H16.884L16.912 12.18H3.33201V4.34H19.376V1.456H6.55651e-06V24.724H19.852V21.84ZM24.0019 19.824V-1.43051e-06H20.8099V20.188C20.8099 21.98 21.7339 23.66 23.2459 24.64H27.0539L26.6899 24.444C25.0379 23.492 24.0019 21.728 24.0019 19.824ZM37.3658 6.86C31.9618 6.86 26.7818 10.08 26.7818 15.848C26.7818 19.488 28.9378 22.232 32.1858 23.716C33.9218 24.472 35.9098 24.864 38.1218 24.864C41.0338 24.864 44.3098 24.08 46.4658 22.008L44.3378 19.936C42.7978 21.364 40.7818 22.064 38.2618 22.064C36.1898 22.064 34.4258 21.616 33.0538 20.636C30.6178 18.928 30.1978 16.688 30.3658 15.148L32.0458 15.876L47.8098 15.96C47.8098 15.96 48.0058 13.524 46.4658 11.228C44.4498 8.148 40.9498 6.86 37.3658 6.86ZM30.6178 14.616C31.0658 11.2 34.1738 9.576 37.3658 9.576C40.5298 9.576 43.6938 11.2 44.1418 14.616H30.6178ZM75.7124 6.86C73.8644 6.86 72.2404 7.308 71.1764 7.812C69.7484 8.512 68.8804 10.388 68.3484 12.376C67.5924 8.344 64.4284 6.86 60.5364 6.86C58.7164 6.86 57.0644 7.308 56.0284 7.812C52.5004 9.52 52.3324 18.508 52.3324 18.508C52.2764 18.508 51.9404 18.508 51.9124 18.48C51.9124 18.48 51.8844 18.396 51.8844 18.34C51.8564 18.284 51.8564 18.2 51.8284 18.144C51.7724 17.948 51.7444 17.752 51.7164 17.556C51.6604 17.36 51.6324 17.164 51.6044 16.968C51.5764 16.772 51.5484 16.576 51.5204 16.38C51.5204 16.212 51.4924 16.016 51.4644 15.848C51.4644 15.652 51.4364 15.456 51.4364 15.288C51.4364 15.12 51.4364 14.924 51.4364 14.756C51.4084 14.588 51.4084 14.42 51.4364 14.224C51.4364 14.056 51.4364 13.888 51.4364 13.72C51.4644 13.552 51.4644 13.412 51.4644 13.244C51.4924 13.076 51.4924 12.908 51.5204 12.768C51.5484 12.6 51.5484 12.46 51.5764 12.292C51.6044 12.152 51.6324 11.984 51.6604 11.844C51.7164 11.564 51.7724 11.284 51.8284 11.004C51.8564 10.864 51.8844 10.724 51.9124 10.612C51.9404 10.472 51.9684 10.36 52.0244 10.22C52.0524 10.108 52.0804 9.996 52.1084 9.856C52.1644 9.744 52.1924 9.632 52.2204 9.52C52.2764 9.408 52.3044 9.296 52.3324 9.184C52.3884 9.1 52.4164 8.988 52.4444 8.876C52.5004 8.792 52.5284 8.708 52.5564 8.596C52.6124 8.512 52.6404 8.428 52.6684 8.344C52.7524 8.232 52.8364 8.008 52.8924 7.868C52.9204 7.812 52.9484 7.728 52.9764 7.672C53.0324 7.616 53.0604 7.56 53.0884 7.476C53.1164 7.448 53.1444 7.392 53.1724 7.336C53.2004 7.28 53.2004 7.252 53.2284 7.196C53.2564 7.168 53.2844 7.112 53.3124 7.084C53.3124 7.056 53.3404 7.028 53.3404 7C53.3684 6.972 53.3684 6.944 53.3964 6.944C53.3964 6.916 53.3964 6.916 53.4244 6.888H50.2324V24.64H53.4244V15.568C53.4244 13.692 54.1804 12.292 55.1884 11.284C56.1684 10.276 58.1844 9.716 59.9204 9.716C61.4324 9.716 63.3084 10.164 64.1204 11.004C64.9324 11.872 65.3524 13.16 65.3524 14.868V24.64H68.5724V15.568C68.5724 13.692 69.3564 12.292 70.3364 11.284C71.3444 10.276 73.3604 9.716 75.0684 9.716C76.6084 9.716 78.4564 10.164 79.2684 11.004C80.1084 11.872 80.5004 13.16 80.5004 14.868V24.64H83.6924V14.504C83.6924 12.012 83.0484 10.108 81.7324 8.82C80.4164 7.504 77.9524 6.86 75.7124 6.86ZM96.5377 6.86C91.1337 6.86 85.9537 10.08 85.9537 15.848C85.9537 19.488 88.1097 22.232 91.3577 23.716C93.0937 24.472 95.0817 24.864 97.2937 24.864C100.206 24.864 103.482 24.08 105.638 22.008L103.51 19.936C101.97 21.364 99.9537 22.064 97.4337 22.064C95.3617 22.064 93.5977 21.616 92.2257 20.636C89.7897 18.928 89.3697 16.688 89.5377 15.148L91.2177 15.876L106.982 15.96C106.982 15.96 107.178 13.524 105.638 11.228C103.622 8.148 100.122 6.86 96.5377 6.86ZM89.7897 14.616C90.2377 11.2 93.3457 9.576 96.5377 9.576C99.7017 9.576 102.866 11.2 103.314 14.616H89.7897ZM118.812 6.972C117.468 6.972 116.264 7.168 115.2 7.672C112.148 9.072 111.504 18.62 111.504 18.62C110.748 15.204 111.084 11.62 112.484 8.372L112.596 8.092V7H109.404V24.752H112.596V15.68C112.596 12.124 114.5 9.828 118.168 9.828C121.696 9.828 123.376 11.48 123.376 14.98V24.752H126.568V14.616C126.568 9.576 123.852 6.972 118.812 6.972ZM137.229 22.624C135.353 22.624 134.485 21.448 134.485 19.656V8.512H139.525V7.028H134.485L134.513 6.86L134.457 3.192H131.965V7.028H128.297V8.512H131.293L131.937 8.148H132.385L131.293 11.452V19.348C131.293 22.904 133.309 24.864 136.865 24.864C138.181 24.864 139.693 24.472 140.729 23.632L139.721 21.784C139.049 22.344 138.209 22.624 137.229 22.624ZM160.307 20.888V6.972H157.115V16.044C157.115 19.628 155.211 21.896 151.543 21.896C148.015 21.896 146.335 20.272 146.335 16.744V6.972H143.143V17.108C143.143 22.12 145.915 24.752 150.899 24.752C152.243 24.752 153.447 24.556 154.511 24.052C157.563 22.652 158.207 13.104 158.207 13.104C158.963 16.548 158.627 20.104 157.255 23.352L157.115 23.632C157.115 24.248 157.619 24.724 158.235 24.724H162.295C161.063 23.856 160.307 22.428 160.307 20.888ZM189.326 6.86C187.478 6.86 185.854 7.308 184.79 7.812C183.362 8.512 182.494 10.388 181.962 12.376C181.206 8.344 178.042 6.86 174.15 6.86C172.33 6.86 170.678 7.308 169.642 7.812C166.114 9.52 165.946 18.508 165.946 18.508C165.89 18.508 165.554 18.508 165.526 18.48C165.526 18.48 165.498 18.396 165.498 18.34C165.47 18.284 165.47 18.2 165.442 18.144C165.386 17.948 165.358 17.752 165.33 17.556C165.274 17.36 165.246 17.164 165.218 16.968C165.19 16.772 165.162 16.576 165.134 16.38C165.134 16.212 165.106 16.016 165.078 15.848C165.078 15.652 165.05 15.456 165.05 15.288C165.05 15.12 165.05 14.924 165.05 14.756C165.022 14.588 165.022 14.42 165.05 14.224C165.05 14.056 165.05 13.888 165.05 13.72C165.078 13.552 165.078 13.412 165.078 13.244C165.106 13.076 165.106 12.908 165.134 12.768C165.162 12.6 165.162 12.46 165.19 12.292C165.218 12.152 165.246 11.984 165.274 11.844C165.33 11.564 165.386 11.284 165.442 11.004C165.47 10.864 165.498 10.724 165.526 10.612C165.554 10.472 165.582 10.36 165.638 10.22C165.666 10.108 165.694 9.996 165.722 9.856C165.778 9.744 165.806 9.632 165.834 9.52C165.89 9.408 165.918 9.296 165.946 9.184C166.002 9.1 166.03 8.988 166.058 8.876C166.114 8.792 166.142 8.708 166.17 8.596C166.226 8.512 166.254 8.428 166.282 8.344C166.366 8.232 166.45 8.008 166.506 7.868C166.534 7.812 166.562 7.728 166.59 7.672C166.646 7.616 166.674 7.56 166.702 7.476C166.73 7.448 166.758 7.392 166.786 7.336C166.814 7.28 166.814 7.252 166.842 7.196C166.87 7.168 166.898 7.112 166.926 7.084C166.926 7.056 166.954 7.028 166.954 7C166.982 6.972 166.982 6.944 167.01 6.944C167.01 6.916 167.01 6.916 167.038 6.888H163.846V24.64H167.038V15.568C167.038 13.692 167.794 12.292 168.802 11.284C169.782 10.276 171.798 9.716 173.534 9.716C175.046 9.716 176.922 10.164 177.734 11.004C178.546 11.872 178.966 13.16 178.966 14.868V24.64H182.186V15.568C182.186 13.692 182.97 12.292 183.95 11.284C184.958 10.276 186.974 9.716 188.682 9.716C190.222 9.716 192.07 10.164 192.882 11.004C193.722 11.872 194.114 13.16 194.114 14.868V24.64H197.306V14.504C197.306 12.012 196.662 10.108 195.346 8.82C194.03 7.504 191.566 6.86 189.326 6.86Z" fill="black"/>
</svg>
