<svg width="1332" height="477" viewBox="0 0 1332 477" fill="none" xmlns="http://www.w3.org/2000/svg">
<rect x="927" y="124" width="405" height="137" rx="68.5" fill="#FFC2EA"/>
<rect x="253" y="255" width="456" height="109" rx="54.5" fill="#D7EEDD"/>
<path d="M430 90H896.5L358 114H952L651 140" stroke="#FFC250" stroke-width="6"/>
<path d="M176.02 15.8V93H187.72V15.8H216.22V9.9H147.52V15.8H176.02ZM255.565 29.2C250.765 29.2 246.465 30 242.665 31.7C231.765 36.7 229.465 70.8 229.465 70.8C226.765 58.6 227.965 45.8 232.965 34.2L233.365 33.2V4.7H221.965V92.7H233.365V60.3C233.365 47.6 240.165 39.4 253.265 39.4C265.865 39.4 271.865 45.3 271.865 57.8V92.7H283.265V56.5C283.265 38.5 273.465 29.2 255.565 29.2ZM329.14 29.2C309.84 29.2 291.34 40.7 291.34 61.3C291.34 74.3 299.04 84.1 310.64 89.4C316.84 92.1 323.94 93.5 331.84 93.5C342.24 93.5 353.94 90.7 361.64 83.3L354.04 75.9C348.54 81 341.34 83.5 332.34 83.5C324.94 83.5 318.64 81.9 313.74 78.4C305.04 72.3 303.54 64.3 304.14 58.8L310.14 61.4L366.44 61.7C366.44 61.7 367.14 53 361.64 44.8C354.44 33.8 341.94 29.2 329.14 29.2ZM305.04 56.9C306.64 44.7 317.74 38.9 329.14 38.9C340.44 38.9 351.74 44.7 353.34 56.9H305.04ZM448.488 85.5C441.788 85.5 438.688 81.3 438.688 74.9V35.1H456.688V29.8H438.688L438.788 29.2L438.588 16.1H429.688V29.8H416.588V35.1H427.288L429.588 33.8H431.188L427.288 45.6V73.8C427.288 86.5 434.488 93.5 447.188 93.5C451.888 93.5 457.288 92.1 460.988 89.1L457.388 82.5C454.988 84.5 451.988 85.5 448.488 85.5ZM499.998 29.2C495.198 29.2 490.898 30 487.098 31.7C476.198 36.7 473.898 70.8 473.898 70.8C471.198 58.6 472.398 45.8 477.398 34.2L477.798 33.2V4.7H466.398V92.7H477.798V60.3C477.798 47.6 484.598 39.4 497.698 39.4C510.298 39.4 516.298 45.3 516.298 57.8V92.7H527.698V56.5C527.698 38.5 517.898 29.2 499.998 29.2ZM550.473 15.7H539.073V22H550.473V15.7ZM554.373 89.9C552.073 87.7 550.773 84.7 550.773 81.6V29.9H539.373V83.1C539.373 85.7 540.273 88.2 541.873 90.2L543.973 92.7H557.573L554.373 89.9ZM597.462 29.6C592.662 29.6 588.362 30.3 584.562 32.1C573.662 37.1 571.362 71.2 571.362 71.2C568.662 59 569.862 46.2 574.862 34.6L575.262 33.6V29.7H563.862V93.1H575.262V60.7C575.262 48 582.062 39.8 595.162 39.8C607.762 39.8 613.762 45.7 613.762 58.2V93.1H625.162V56.9C625.162 38.9 615.462 29.6 597.462 29.6ZM661.972 49.8L682.472 29.8H676.572L646.172 57.1L640.172 68.2L645.072 43.3V4.7H633.672V92.7H645.072V65.9L655.272 55.7L685.072 92.7H695.772L671.072 61.5L661.972 49.8ZM729.335 29.2C710.035 29.2 691.535 40.7 691.535 61.3C691.535 74.3 699.235 84.1 710.835 89.4C717.035 92.1 724.135 93.5 732.035 93.5C742.435 93.5 754.135 90.7 761.835 83.3L754.235 75.9C748.735 81 741.535 83.5 732.535 83.5C725.135 83.5 718.835 81.9 713.935 78.4C705.235 72.3 703.735 64.3 704.335 58.8L710.335 61.4L766.635 61.7C766.635 61.7 767.335 53 761.835 44.8C754.635 33.8 742.135 29.2 729.335 29.2ZM705.235 56.9C706.835 44.7 717.935 38.9 729.335 38.9C740.635 38.9 751.935 44.7 753.535 56.9H705.235ZM795.988 32.1C785.088 37.1 782.788 71.2 782.788 71.2C780.088 59 781.288 46.2 786.288 34.6L786.688 33.6V29.7H775.288V93.1H786.688V60.7C786.688 48 793.488 39.8 806.588 39.8C807.388 39.8 820.388 39.8 821.188 39.9V29.6H808.888C804.088 29.6 799.788 30.3 795.988 32.1ZM870.288 59.8C867.188 58.8 855.788 57.9 850.788 57C846.988 56.3 843.988 55.7 841.888 55.1C839.788 54.6 838.088 53.7 836.588 52.5C834.888 51.1 834.188 48.7 834.588 46.5C834.888 44.3 836.388 42.5 838.288 41.4C840.888 39.7 843.988 39.2 846.988 39C852.088 38.7 857.088 39.9 861.888 41.5C866.288 42.9 870.988 44.5 874.888 47L878.988 37.9C871.988 33.4 860.088 30.3 851.988 29.5C845.888 28.8 839.888 29.3 834.387 32C829.688 34.3 825.388 38 823.888 43.1C822.388 48.1 822.987 54.5 826.688 58.4C828.988 60.9 831.688 62.6 834.888 63.7C838.088 64.7 842.288 65.6 847.288 66.4C850.988 67 861.188 67.6 863.188 68.1C865.188 68.6 866.888 69.4 868.288 70.6C869.988 72 870.888 74.8 869.788 76.9C867.488 82.1 855.688 83.6 850.988 83.7C845.788 83.8 840.288 83 835.188 81.5C831.888 80.5 828.688 79.1 825.788 77.2C824.188 76.2 822.788 74.9 821.188 73.8V85.3C828.988 91.5 839.488 93.3 849.188 93.5C853.188 93.6 857.188 93.5 861.188 92.8C869.488 91.5 878.888 87.4 881.088 78.5C882.388 74 881.588 68.4 878.288 64.9C876.088 62.5 873.488 60.8 870.288 59.8ZM971.209 28.9L965.409 29C953.509 29.2 943.109 34 937.209 41.2L946.609 45.9C950.509 40.9 957.709 37.4 965.909 37.3L969.909 37.2C980.509 37 989.109 43.3 989.109 51.2L991.609 64H991.409C988.009 60.9 984.009 55.8 977.809 54.1C974.909 53.3 971.609 52.8 968.309 52.8C959.509 53 951.109 55.1 944.709 58.7C937.709 62.6 933.909 67.9 933.909 73.5C933.909 79.1 937.709 84.3 944.609 87.9C950.909 91.3 959.309 93.1 968.209 93C976.309 92.8 982.209 87.3 990.409 79.6H991.309L989.009 92.6L1000.81 92.4L1001.01 50.7C1001.01 38.3 987.709 28.6 971.209 28.9ZM989.009 75C986.609 79.7 977.609 83.4 967.209 83.6C955.009 83.8 944.709 79.1 944.709 73.3C944.809 67.5 955.109 62.5 967.209 62.3C977.709 62.1 986.709 65.5 989.109 70.1L989.009 75ZM1045.22 29.6C1040.42 29.6 1036.12 30.3 1032.32 32.1C1021.42 37.1 1019.12 71.2 1019.12 71.2C1016.42 59 1017.62 46.2 1022.62 34.6L1023.02 33.6V29.7H1011.62V93.1H1023.02V60.7C1023.02 48 1029.82 39.8 1042.92 39.8C1055.52 39.8 1061.52 45.7 1061.52 58.2V93.1H1072.92V56.9C1072.92 38.9 1063.22 29.6 1045.22 29.6ZM1139.59 35.4L1141.39 47.9C1141.09 47.6 1140.79 47.4 1140.49 47.1C1136.29 43.6 1132.59 35 1125.99 31.5C1123.09 30 1119.49 29.2 1116.19 29.2C1098.19 29.2 1080.49 41.9 1080.49 61.1C1080.49 80.3 1098.19 92.9 1116.19 92.9C1125.29 92.9 1130.69 89.4 1140.29 75.9L1141.89 76L1139.59 92.4H1150.79V6.3H1139.59V35.4ZM1139.59 68.6C1135.59 75.5 1126.49 80.4 1116.19 80.4C1102.39 80.4 1090.69 71.6 1090.69 61.1C1090.69 50.6 1102.39 41.7 1116.19 41.7C1126.49 41.7 1135.59 46.6 1139.59 53.5V68.6ZM61.8051 161.4L63.6051 173.9C63.3051 173.6 63.0051 173.4 62.7051 173.1C58.5051 169.6 54.8051 161 48.2051 157.5C45.3051 156 41.7051 155.2 38.4051 155.2C20.4051 155.2 2.70508 167.9 2.70508 187.1C2.70508 206.3 20.4051 218.9 38.4051 218.9C47.5051 218.9 52.9051 215.4 62.5051 201.9L64.1051 202L61.8051 218.4H73.0051V132.3H61.8051V161.4ZM61.8051 194.6C57.8051 201.5 48.7051 206.4 38.4051 206.4C24.6051 206.4 12.9051 197.6 12.9051 187.1C12.9051 176.6 24.6051 167.7 38.4051 167.7C48.7051 167.7 57.8051 172.6 61.8051 179.5V194.6ZM117.897 155.2C105.097 155.2 93.5973 159.2 86.8973 170.7C84.0973 175.6 82.6973 181.1 82.6973 187.3C82.6973 199.2 88.0973 209.4 98.5973 215.3C103.597 218.1 111.597 219.5 117.897 219.5C130.897 219.5 141.897 215.3 148.797 203.9C151.597 199 152.997 193.5 152.997 187.3C152.997 181.1 151.597 175.6 148.797 170.7C141.897 159.2 130.897 155.2 117.897 155.2ZM131.197 206.7C127.997 208.6 121.897 209.5 117.897 209.5C108.797 209.5 101.697 207 96.9973 198.9C95.0973 195.5 94.1973 191.6 94.1973 187.3C94.1973 179.3 97.5973 172.1 104.597 167.9C107.797 166.1 113.897 165.2 117.897 165.2C126.797 165.2 134.197 167.5 138.697 175.7C140.497 179.1 141.497 182.9 141.497 187.3C141.497 195.2 138.097 202.6 131.197 206.7ZM196.767 155.2C177.467 155.2 158.967 166.7 158.967 187.3C158.967 200.3 166.667 210.1 178.267 215.4C184.467 218.1 191.567 219.5 199.467 219.5C209.867 219.5 221.567 216.7 229.267 209.3L221.667 201.9C216.167 207 208.967 209.5 199.967 209.5C192.567 209.5 186.267 207.9 181.367 204.4C172.667 198.3 171.167 190.3 171.767 184.8L177.767 187.4L234.067 187.7C234.067 187.7 234.767 179 229.267 170.8C222.067 159.8 209.567 155.2 196.767 155.2ZM172.667 182.9C174.267 170.7 185.367 164.9 196.767 164.9C208.067 164.9 219.367 170.7 220.967 182.9H172.667ZM263.419 158.1C252.519 163.1 250.219 197.2 250.219 197.2C247.519 185 248.719 172.2 253.719 160.6L254.119 159.6V155.7H242.719V219.1H254.119V186.7C254.119 174 260.919 165.8 274.019 165.8C274.819 165.8 287.819 165.8 288.619 165.9V155.6H276.319C271.519 155.6 267.219 156.3 263.419 158.1ZM337.719 185.8C334.619 184.8 323.219 183.9 318.219 183C314.419 182.3 311.419 181.7 309.319 181.1C307.219 180.6 305.519 179.7 304.019 178.5C302.319 177.1 301.619 174.7 302.019 172.5C302.319 170.3 303.819 168.5 305.719 167.4C308.319 165.7 311.419 165.2 314.419 165C319.519 164.7 324.519 165.9 329.319 167.5C333.719 168.9 338.419 170.5 342.319 173L346.419 163.9C339.419 159.4 327.519 156.3 319.419 155.5C313.319 154.8 307.319 155.3 301.819 158C297.119 160.3 292.819 164 291.319 169.1C289.819 174.1 290.419 180.5 294.119 184.4C296.419 186.9 299.119 188.6 302.319 189.7C305.519 190.7 309.719 191.6 314.719 192.4C318.419 193 328.619 193.6 330.619 194.1C332.619 194.6 334.319 195.4 335.719 196.6C337.419 198 338.319 200.8 337.219 202.9C334.919 208.1 323.119 209.6 318.419 209.7C313.219 209.8 307.719 209 302.619 207.5C299.319 206.5 296.119 205.1 293.219 203.2C291.619 202.2 290.219 200.9 288.619 199.8V211.3C296.419 217.5 306.919 219.3 316.619 219.5C320.619 219.6 324.619 219.5 328.619 218.8C336.919 217.5 346.319 213.4 348.519 204.5C349.819 200 349.019 194.4 345.719 190.9C343.519 188.5 340.919 186.8 337.719 185.8ZM472.14 212.9L449.74 155.8H446.84L427.84 205.9V213.2L424.34 212.9L425.54 199.6L409.54 155.8H398.74L422.14 218.7H433.04L451.44 171L469.64 218.7H480.54L504.04 155.8H493.84L472.14 212.9ZM541.396 155.2C522.096 155.2 503.596 166.7 503.596 187.3C503.596 200.3 511.296 210.1 522.896 215.4C529.096 218.1 536.196 219.5 544.096 219.5C554.496 219.5 566.196 216.7 573.896 209.3L566.296 201.9C560.796 207 553.596 209.5 544.596 209.5C537.196 209.5 530.896 207.9 525.996 204.4C517.296 198.3 515.796 190.3 516.396 184.8L522.396 187.4L578.696 187.7C578.696 187.7 579.396 179 573.896 170.8C566.696 159.8 554.196 155.2 541.396 155.2ZM517.296 182.9C518.896 170.7 529.996 164.9 541.396 164.9C552.696 164.9 563.996 170.7 565.596 182.9H517.296ZM608.048 158.1C597.148 163.1 594.848 197.2 594.848 197.2C592.148 185 593.348 172.2 598.348 160.6L598.748 159.6V155.7H587.348V219.1H598.748V186.7C598.748 174 605.548 165.8 618.648 165.8C619.448 165.8 632.448 165.8 633.248 165.9V155.6H620.948C616.148 155.6 611.848 156.3 608.048 158.1ZM672.548 155.2C653.248 155.2 634.748 166.7 634.748 187.3C634.748 200.3 642.448 210.1 654.048 215.4C660.248 218.1 667.348 219.5 675.248 219.5C685.648 219.5 697.348 216.7 705.048 209.3L697.448 201.9C691.948 207 684.748 209.5 675.748 209.5C668.348 209.5 662.048 207.9 657.148 204.4C648.448 198.3 646.948 190.3 647.548 184.8L653.548 187.4L709.848 187.7C709.848 187.7 710.548 179 705.048 170.8C697.848 159.8 685.348 155.2 672.548 155.2ZM648.448 182.9C650.048 170.7 661.148 164.9 672.548 164.9C683.848 164.9 695.148 170.7 696.748 182.9H648.448ZM802.096 165.2C809.996 165.2 817.996 167.8 823.096 174.2L833.796 168.7C826.796 158.7 813.996 155.2 802.296 155.2C782.796 155.2 761.496 165.5 761.496 187.3C761.496 209.3 783.096 219.5 802.296 219.5C814.096 219.5 826.696 216 833.796 205.9L823.096 200.5C817.996 206.9 809.996 209.5 802.096 209.5C788.496 209.5 775.596 202 775.596 187.3C775.596 172.7 788.596 165.2 802.096 165.2ZM878.661 155.2C873.861 155.2 869.561 156 865.761 157.7C854.861 162.7 852.561 196.8 852.561 196.8C849.861 184.6 851.061 171.8 856.061 160.2L856.461 159.2V130.7H845.061V218.7H856.461V186.3C856.461 173.6 863.261 165.4 876.361 165.4C888.961 165.4 894.961 171.3 894.961 183.8V218.7H906.361V182.5C906.361 164.5 896.561 155.2 878.661 155.2ZM951.336 154.9L945.536 155C933.636 155.2 923.236 160 917.336 167.2L926.736 171.9C930.636 166.9 937.836 163.4 946.036 163.3L950.036 163.2C960.636 163 969.236 169.3 969.236 177.2L971.736 190H971.536C968.136 186.9 964.136 181.8 957.936 180.1C955.036 179.3 951.736 178.8 948.436 178.8C939.636 179 931.236 181.1 924.836 184.7C917.836 188.6 914.036 193.9 914.036 199.5C914.036 205.1 917.836 210.3 924.736 213.9C931.036 217.3 939.436 219.1 948.336 219C956.436 218.8 962.336 213.3 970.536 205.6H971.436L969.136 218.6L980.936 218.4L981.136 176.7C981.136 164.3 967.836 154.6 951.336 154.9ZM969.136 201C966.736 205.7 957.736 209.4 947.336 209.6C935.136 209.8 924.836 205.1 924.836 199.3C924.936 193.5 935.236 188.5 947.336 188.3C957.836 188.1 966.836 191.5 969.236 196.1L969.136 201ZM1025.34 155.6C1020.54 155.6 1016.24 156.3 1012.44 158.1C1001.54 163.1 999.243 197.2 999.243 197.2C996.543 185 997.743 172.2 1002.74 160.6L1003.14 159.6V155.7H991.743V219.1H1003.14V186.7C1003.14 174 1009.94 165.8 1023.04 165.8C1035.64 165.8 1041.64 171.7 1041.64 184.2V219.1H1053.04V182.9C1053.04 164.9 1043.34 155.6 1025.34 155.6ZM1115.82 170.7V171.1C1112.22 167.6 1108.92 160.4 1103.12 157.4C1100.42 155.9 1097.22 155.2 1094.02 155.2C1077.42 155.2 1061.12 167 1061.12 184.6C1061.12 202.3 1077.32 214 1094.02 214C1102.32 214 1107.22 211.7 1115.72 200.1V211.4C1115.72 226 1108.62 232.6 1094.12 232.6C1085.82 232.6 1076.32 229.9 1069.92 224.4L1064.42 233.2C1072.12 240 1084.52 242.6 1094.52 242.6C1116.22 242.6 1127.12 232.1 1127.12 210.3V155.9H1113.12L1115.82 170.7ZM1115.82 191.4C1112.22 197.8 1103.72 202.5 1094.02 202.5C1081.32 202.5 1070.52 194.3 1070.52 184.6C1070.52 174.9 1081.32 166.7 1094.02 166.7C1103.72 166.7 1112.22 171.4 1115.82 178V191.4ZM1150.42 141.7H1139.02V148H1150.42V141.7ZM1154.32 215.9C1152.02 213.7 1150.72 210.7 1150.72 207.6V155.9H1139.32V209.1C1139.32 211.7 1140.22 214.2 1141.82 216.2L1143.92 218.7H1157.52L1154.32 215.9ZM1197.41 155.6C1192.61 155.6 1188.31 156.3 1184.51 158.1C1173.61 163.1 1171.31 197.2 1171.31 197.2C1168.61 185 1169.81 172.2 1174.81 160.6L1175.21 159.6V155.7H1163.81V219.1H1175.21V186.7C1175.21 174 1182.01 165.8 1195.11 165.8C1207.71 165.8 1213.71 171.7 1213.71 184.2V219.1H1225.11V182.9C1225.11 164.9 1215.41 155.6 1197.41 155.6ZM1287.89 170.7V171.1C1284.29 167.6 1280.99 160.4 1275.19 157.4C1272.49 155.9 1269.29 155.2 1266.09 155.2C1249.49 155.2 1233.19 167 1233.19 184.6C1233.19 202.3 1249.39 214 1266.09 214C1274.39 214 1279.29 211.7 1287.79 200.1V211.4C1287.79 226 1280.69 232.6 1266.19 232.6C1257.89 232.6 1248.39 229.9 1241.99 224.4L1236.49 233.2C1244.19 240 1256.59 242.6 1266.59 242.6C1288.29 242.6 1299.19 232.1 1299.19 210.3V155.9H1285.19L1287.89 170.7ZM1287.89 191.4C1284.29 197.8 1275.79 202.5 1266.09 202.5C1253.39 202.5 1242.59 194.3 1242.59 184.6C1242.59 174.9 1253.39 166.7 1266.09 166.7C1275.79 166.7 1284.29 171.4 1287.89 178V191.4ZM79.8359 337.5C73.1359 337.5 70.0359 333.3 70.0359 326.9V287.1H88.0359V281.8H70.0359L70.1359 281.2L69.9359 268.1H61.0359V281.8H47.9359V287.1H58.6359L60.9359 285.8H62.5359L58.6359 297.6V325.8C58.6359 338.5 65.8359 345.5 78.5359 345.5C83.2359 345.5 88.6359 344.1 92.3359 341.1L88.7359 334.5C86.3359 336.5 83.3359 337.5 79.8359 337.5ZM131.346 281.2C126.546 281.2 122.246 282 118.446 283.7C107.546 288.7 105.246 322.8 105.246 322.8C102.546 310.6 103.746 297.8 108.746 286.2L109.146 285.2V256.7H97.7461V344.7H109.146V312.3C109.146 299.6 115.946 291.4 129.046 291.4C141.646 291.4 147.646 297.3 147.646 309.8V344.7H159.046V308.5C159.046 290.5 149.246 281.2 131.346 281.2ZM204.921 281.2C185.621 281.2 167.121 292.7 167.121 313.3C167.121 326.3 174.821 336.1 186.421 341.4C192.621 344.1 199.721 345.5 207.621 345.5C218.021 345.5 229.721 342.7 237.421 335.3L229.821 327.9C224.321 333 217.121 335.5 208.121 335.5C200.721 335.5 194.421 333.9 189.521 330.4C180.821 324.3 179.321 316.3 179.921 310.8L185.921 313.4L242.221 313.7C242.221 313.7 242.921 305 237.421 296.8C230.221 285.8 217.721 281.2 204.921 281.2ZM180.821 308.9C182.421 296.7 193.521 290.9 204.921 290.9C216.221 290.9 227.521 296.7 229.121 308.9H180.821ZM341.87 311.8C338.77 310.8 327.37 309.9 322.37 309C318.57 308.3 315.57 307.7 313.47 307.1C311.37 306.6 309.67 305.7 308.17 304.5C306.47 303.1 305.77 300.7 306.17 298.5C306.47 296.3 307.97 294.5 309.87 293.4C312.47 291.7 315.57 291.2 318.57 291C323.67 290.7 328.67 291.9 333.47 293.5C337.87 294.9 342.57 296.5 346.47 299L350.57 289.9C343.57 285.4 331.67 282.3 323.57 281.5C317.47 280.8 311.47 281.3 305.97 284C301.27 286.3 296.97 290 295.47 295.1C293.97 300.1 294.57 306.5 298.27 310.4C300.57 312.9 303.27 314.6 306.47 315.7C309.67 316.7 313.87 317.6 318.87 318.4C322.57 319 332.77 319.6 334.77 320.1C336.77 320.6 338.47 321.4 339.87 322.6C341.57 324 342.47 326.8 341.37 328.9C339.07 334.1 327.27 335.6 322.57 335.7C317.37 335.8 311.87 335 306.77 333.5C303.47 332.5 300.27 331.1 297.37 329.2C295.77 328.2 294.37 326.9 292.77 325.8V337.3C300.57 343.5 311.07 345.3 320.77 345.5C324.77 345.6 328.77 345.5 332.77 344.8C341.07 343.5 350.47 339.4 352.67 330.5C353.97 326 353.17 320.4 349.87 316.9C347.67 314.5 345.07 312.8 341.87 311.8ZM389.895 337.5C383.195 337.5 380.095 333.3 380.095 326.9V287.1H398.095V281.8H380.095L380.195 281.2L379.995 268.1H371.095V281.8H357.995V287.1H368.695L370.995 285.8H372.595L368.695 297.6V325.8C368.695 338.5 375.895 345.5 388.595 345.5C393.295 345.5 398.695 344.1 402.395 341.1L398.795 334.5C396.395 336.5 393.395 337.5 389.895 337.5ZM445.818 280.9L440.018 281C428.118 281.2 417.718 286 411.818 293.2L421.218 297.9C425.118 292.9 432.318 289.4 440.518 289.3L444.518 289.2C455.118 289 463.718 295.3 463.718 303.2L466.218 316H466.018C462.618 312.9 458.618 307.8 452.418 306.1C449.518 305.3 446.218 304.8 442.918 304.8C434.118 305 425.718 307.1 419.318 310.7C412.318 314.6 408.518 319.9 408.518 325.5C408.518 331.1 412.318 336.3 419.218 339.9C425.518 343.3 433.918 345.1 442.818 345C450.918 344.8 456.818 339.3 465.018 331.6H465.918L463.618 344.6L475.418 344.4L475.618 302.7C475.618 290.3 462.318 280.6 445.818 280.9ZM463.618 327C461.218 331.7 452.218 335.4 441.818 335.6C429.618 335.8 419.318 331.1 419.318 325.3C419.418 319.5 429.718 314.5 441.818 314.3C452.318 314.1 461.318 317.5 463.718 322.1L463.618 327ZM513.625 337.5C506.925 337.5 503.825 333.3 503.825 326.9V287.1H521.825V281.8H503.825L503.925 281.2L503.725 268.1H494.825V281.8H481.725V287.1H492.425L494.725 285.8H496.325L492.425 297.6V325.8C492.425 338.5 499.625 345.5 512.325 345.5C517.025 345.5 522.425 344.1 526.125 341.1L522.525 334.5C520.125 336.5 517.125 337.5 513.625 337.5ZM596.048 331.3V281.6H584.648V314C584.648 326.8 577.848 334.9 564.748 334.9C552.148 334.9 546.148 329.1 546.148 316.5V281.6H534.748V317.8C534.748 335.7 544.648 345.1 562.448 345.1C567.248 345.1 571.548 344.4 575.348 342.6C586.248 337.6 588.548 303.5 588.548 303.5C591.248 315.8 590.048 328.5 585.148 340.1L584.648 341.1C584.648 343.3 586.448 345 588.648 345H603.148C598.748 341.9 596.048 336.8 596.048 331.3ZM655.737 311.8C652.637 310.8 641.237 309.9 636.237 309C632.437 308.3 629.437 307.7 627.337 307.1C625.237 306.6 623.537 305.7 622.037 304.5C620.337 303.1 619.637 300.7 620.037 298.5C620.337 296.3 621.837 294.5 623.737 293.4C626.337 291.7 629.437 291.2 632.437 291C637.537 290.7 642.537 291.9 647.337 293.5C651.737 294.9 656.437 296.5 660.337 299L664.437 289.9C657.437 285.4 645.537 282.3 637.437 281.5C631.337 280.8 625.337 281.3 619.837 284C615.137 286.3 610.837 290 609.337 295.1C607.837 300.1 608.437 306.5 612.137 310.4C614.437 312.9 617.137 314.6 620.337 315.7C623.537 316.7 627.737 317.6 632.737 318.4C636.437 319 646.637 319.6 648.637 320.1C650.637 320.6 652.337 321.4 653.737 322.6C655.437 324 656.337 326.8 655.237 328.9C652.937 334.1 641.137 335.6 636.437 335.7C631.237 335.8 625.737 335 620.637 333.5C617.337 332.5 614.137 331.1 611.237 329.2C609.637 328.2 608.237 326.9 606.637 325.8V337.3C614.437 343.5 624.937 345.3 634.637 345.5C638.637 345.6 642.637 345.5 646.637 344.8C654.937 343.5 664.337 339.4 666.537 330.5C667.837 326 667.037 320.4 663.737 316.9C661.537 314.5 658.937 312.8 655.737 311.8ZM810.458 303.4C810.458 287.9 802.858 274.2 789.158 266.7C782.458 263 773.358 261.2 765.058 261.2C739.958 261.2 720.258 278 720.258 303.4C720.258 329.4 740.458 345.7 765.058 345.7C773.358 345.7 782.458 343.9 789.158 340.2C789.158 340.2 789.258 340.1 789.358 340.1L801.558 345.8L803.958 340.9L794.658 336.5C805.158 328.6 810.458 316.4 810.458 303.4ZM778.558 335C774.258 336 769.458 336.5 765.258 336.5C751.058 336.5 739.558 332.3 731.458 320.2C728.258 315.4 726.558 310 726.558 304C726.558 291.6 734.058 281.8 744.858 276.5C750.558 273.8 758.258 272.4 765.258 272.4C778.858 272.4 791.958 276.1 799.858 287.9C803.158 292.7 804.758 298.1 804.758 304C804.758 310 803.158 315.4 799.858 320.2C796.658 325 792.258 329.6 786.658 332.4C786.458 332.4 786.358 332.5 786.158 332.5L768.558 324.3L766.258 329.2L778.558 335ZM880.521 331.3V281.6H869.121V314C869.121 326.8 862.321 334.9 849.221 334.9C836.621 334.9 830.621 329.1 830.621 316.5V281.6H819.221V317.8C819.221 335.7 829.121 345.1 846.921 345.1C851.721 345.1 856.021 344.4 859.821 342.6C870.721 337.6 873.021 303.5 873.021 303.5C875.721 315.8 874.521 328.5 869.621 340.1L869.121 341.1C869.121 343.3 870.921 345 873.121 345H887.621C883.221 341.9 880.521 336.8 880.521 331.3ZM926.735 281.2C913.935 281.2 902.435 285.2 895.735 296.7C892.935 301.6 891.535 307.1 891.535 313.3C891.535 325.2 896.935 335.4 907.435 341.3C912.435 344.1 920.435 345.5 926.735 345.5C939.735 345.5 950.735 341.3 957.635 329.9C960.435 325 961.835 319.5 961.835 313.3C961.835 307.1 960.435 301.6 957.635 296.7C950.735 285.2 939.735 281.2 926.735 281.2ZM940.035 332.7C936.835 334.6 930.735 335.5 926.735 335.5C917.635 335.5 910.535 333 905.835 324.9C903.935 321.5 903.035 317.6 903.035 313.3C903.035 305.3 906.435 298.1 913.435 293.9C916.635 292.1 922.735 291.2 926.735 291.2C935.635 291.2 943.035 293.5 947.535 301.7C949.335 305.1 950.335 308.9 950.335 313.3C950.335 321.2 946.935 328.6 940.035 332.7ZM1084.2 338.9L1061.8 281.8H1058.9L1039.9 331.9V339.2L1036.4 338.9L1037.6 325.6L1021.6 281.8H1010.8L1034.2 344.7H1045.1L1063.5 297L1081.7 344.7H1092.6L1116.1 281.8H1105.9L1084.2 338.9ZM1133.77 267.7H1122.37V274H1133.77V267.7ZM1137.67 341.9C1135.37 339.7 1134.07 336.7 1134.07 333.6V281.9H1122.67V335.1C1122.67 337.7 1123.57 340.2 1125.17 342.2L1127.27 344.7H1140.87L1137.67 341.9ZM1173.88 337.5C1167.18 337.5 1164.08 333.3 1164.08 326.9V287.1H1182.08V281.8H1164.08L1164.18 281.2L1163.98 268.1H1155.08V281.8H1141.98V287.1H1152.68L1154.98 285.8H1156.58L1152.68 297.6V325.8C1152.68 338.5 1159.88 345.5 1172.58 345.5C1177.28 345.5 1182.68 344.1 1186.38 341.1L1182.78 334.5C1180.38 336.5 1177.38 337.5 1173.88 337.5ZM1225.39 281.2C1220.59 281.2 1216.29 282 1212.49 283.7C1201.59 288.7 1199.29 322.8 1199.29 322.8C1196.59 310.6 1197.79 297.8 1202.79 286.2L1203.19 285.2V256.7H1191.79V344.7H1203.19V312.3C1203.19 299.6 1209.99 291.4 1223.09 291.4C1235.69 291.4 1241.69 297.3 1241.69 309.8V344.7H1253.09V308.5C1253.09 290.5 1243.29 281.2 1225.39 281.2Z" fill="black"/>
<path d="M242.695 432H244.351L248.959 417.408L253.567 432H255.199L260.359 414.816H258.607L255.055 426.648C254.863 427.296 254.647 428.136 254.383 429.456C254.119 428.352 253.879 427.488 253.615 426.624L249.871 414.816H248.071L244.327 426.624C244.063 427.464 243.823 428.208 243.535 429.456C243.319 428.328 243.103 427.464 242.863 426.624L239.383 414.816H237.583L242.695 432ZM265.971 432.288C268.707 432.288 270.507 430.968 271.131 428.52H269.547C269.115 430.056 267.891 430.872 265.995 430.872C263.499 430.872 262.011 429.24 261.891 426.408H271.131V425.592C271.131 422.304 268.995 420.072 265.851 420.072C262.539 420.072 260.283 422.568 260.283 426.192C260.283 429.84 262.563 432.288 265.971 432.288ZM265.851 421.488C268.035 421.488 269.475 422.976 269.475 425.208H261.939C262.227 422.928 263.667 421.488 265.851 421.488ZM283.771 432.288C285.739 432.288 287.323 431.424 288.043 429.96L288.259 432H289.651V424.488C289.651 421.416 287.683 420.072 284.995 420.072C282.139 420.072 280.219 421.584 280.219 423.936H281.731C281.731 422.376 282.931 421.464 284.947 421.464C286.651 421.464 288.019 422.184 288.019 424.464V424.848L284.179 425.16C281.467 425.376 279.835 426.72 279.835 428.856C279.835 430.896 281.299 432.288 283.771 432.288ZM284.155 430.944C282.571 430.944 281.515 430.224 281.515 428.808C281.515 427.512 282.403 426.552 284.587 426.36L288.019 426.096V426.72C288.019 429.24 286.603 430.944 284.155 430.944ZM299.046 420.24C298.638 420.144 298.326 420.12 297.966 420.12C296.334 420.12 295.11 420.936 294.654 422.184L294.534 420.384H292.974V432H294.63V425.376C294.63 423.168 295.998 421.728 298.134 421.728H299.046V420.24ZM305.674 432.288C308.41 432.288 310.21 430.968 310.834 428.52H309.25C308.818 430.056 307.594 430.872 305.698 430.872C303.202 430.872 301.714 429.24 301.594 426.408H310.834V425.592C310.834 422.304 308.698 420.072 305.554 420.072C302.242 420.072 299.986 422.568 299.986 426.192C299.986 429.84 302.266 432.288 305.674 432.288ZM305.554 421.488C307.738 421.488 309.178 422.976 309.178 425.208H301.642C301.93 422.928 303.37 421.488 305.554 421.488ZM323.474 432.288C325.442 432.288 327.026 431.424 327.746 429.96L327.962 432H329.354V424.488C329.354 421.416 327.386 420.072 324.698 420.072C321.842 420.072 319.922 421.584 319.922 423.936H321.434C321.434 422.376 322.634 421.464 324.65 421.464C326.354 421.464 327.722 422.184 327.722 424.464V424.848L323.882 425.16C321.17 425.376 319.538 426.72 319.538 428.856C319.538 430.896 321.002 432.288 323.474 432.288ZM323.858 430.944C322.274 430.944 321.218 430.224 321.218 428.808C321.218 427.512 322.106 426.552 324.29 426.36L327.722 426.096V426.72C327.722 429.24 326.306 430.944 323.858 430.944ZM341.997 432V421.776H344.325V420.384H341.997V416.712H340.365V420.384H338.037V421.776H340.365V432H341.997ZM351.237 432.288C353.973 432.288 355.773 430.968 356.397 428.52H354.813C354.381 430.056 353.157 430.872 351.261 430.872C348.765 430.872 347.277 429.24 347.157 426.408H356.397V425.592C356.397 422.304 354.261 420.072 351.117 420.072C347.805 420.072 345.549 422.568 345.549 426.192C345.549 429.84 347.829 432.288 351.237 432.288ZM351.117 421.488C353.301 421.488 354.741 422.976 354.741 425.208H347.205C347.493 422.928 348.933 421.488 351.117 421.488ZM362.263 432.288C364.231 432.288 365.815 431.424 366.535 429.96L366.751 432H368.143V424.488C368.143 421.416 366.175 420.072 363.487 420.072C360.631 420.072 358.711 421.584 358.711 423.936H360.223C360.223 422.376 361.423 421.464 363.439 421.464C365.143 421.464 366.511 422.184 366.511 424.464V424.848L362.671 425.16C359.959 425.376 358.327 426.72 358.327 428.856C358.327 430.896 359.791 432.288 362.263 432.288ZM362.647 430.944C361.063 430.944 360.007 430.224 360.007 428.808C360.007 427.512 360.895 426.552 363.079 426.36L366.511 426.096V426.72C366.511 429.24 365.095 430.944 362.647 430.944ZM373.122 432V424.8C373.122 423.024 374.298 421.584 376.242 421.584C377.994 421.584 379.122 422.736 379.122 424.704V432H380.754V424.824C380.754 423.024 381.906 421.56 383.85 421.56C385.626 421.56 386.73 422.736 386.73 424.728V432H388.338V424.392C388.338 421.704 386.682 420.072 384.162 420.072C382.29 420.072 380.874 421.032 380.346 422.544C379.794 421.032 378.426 420.072 376.602 420.072C374.97 420.072 373.674 420.816 373.098 422.04L372.906 420.384H371.466V432H373.122ZM397.51 426.192C397.51 429.72 400.006 432.288 403.414 432.288C406.822 432.288 409.318 429.72 409.318 426.192C409.318 422.64 406.822 420.072 403.414 420.072C400.006 420.072 397.51 422.64 397.51 426.192ZM399.19 426.168C399.19 423.48 400.918 421.56 403.414 421.56C405.886 421.56 407.638 423.48 407.638 426.168C407.638 428.904 405.886 430.8 403.414 430.8C400.918 430.8 399.19 428.904 399.19 426.168ZM410.577 420.384V421.776H412.353V432H414.009V421.776H416.745V420.384H414.009V418.128C414.009 416.76 414.393 416.016 415.857 416.016H416.841V414.6C416.457 414.528 415.977 414.504 415.569 414.504C413.793 414.504 412.353 415.512 412.353 418.128V420.384H410.577ZM424.67 428.736C424.67 430.896 426.302 432.288 428.918 432.288C431.558 432.288 433.334 430.92 433.334 428.832C433.334 427.152 432.422 426.216 430.406 425.712L428.414 425.208C427.142 424.896 426.518 424.272 426.518 423.384C426.518 422.136 427.43 421.44 429.062 421.44C430.622 421.44 431.558 422.232 431.606 423.576H433.214C433.142 421.416 431.558 420.072 429.11 420.072C426.614 420.072 424.91 421.368 424.91 423.408C424.91 424.992 425.894 426.048 427.91 426.552L429.902 427.056C431.27 427.392 431.75 427.944 431.75 428.904C431.75 430.152 430.694 430.92 428.894 430.92C427.262 430.92 426.254 430.08 426.254 428.736H424.67ZM438.724 432V421.776H441.052V420.384H438.724V416.712H437.092V420.384H434.764V421.776H437.092V432H438.724ZM449.28 420.24C448.872 420.144 448.56 420.12 448.2 420.12C446.568 420.12 445.344 420.936 444.888 422.184L444.768 420.384H443.208V432H444.864V425.376C444.864 423.168 446.232 421.728 448.368 421.728H449.28V420.24ZM454.349 432.288C456.317 432.288 457.901 431.424 458.621 429.96L458.837 432H460.229V424.488C460.229 421.416 458.261 420.072 455.573 420.072C452.717 420.072 450.797 421.584 450.797 423.936H452.309C452.309 422.376 453.509 421.464 455.525 421.464C457.229 421.464 458.597 422.184 458.597 424.464V424.848L454.757 425.16C452.045 425.376 450.413 426.72 450.413 428.856C450.413 430.896 451.877 432.288 454.349 432.288ZM454.733 430.944C453.149 430.944 452.093 430.224 452.093 428.808C452.093 427.512 452.981 426.552 455.165 426.36L458.597 426.096V426.72C458.597 429.24 457.181 430.944 454.733 430.944ZM466.005 432V421.776H468.333V420.384H466.005V416.712H464.373V420.384H462.045V421.776H464.373V432H466.005ZM475.245 432.288C477.981 432.288 479.781 430.968 480.405 428.52H478.821C478.389 430.056 477.165 430.872 475.269 430.872C472.773 430.872 471.285 429.24 471.165 426.408H480.405V425.592C480.405 422.304 478.269 420.072 475.125 420.072C471.813 420.072 469.557 422.568 469.557 426.192C469.557 429.84 471.837 432.288 475.245 432.288ZM475.125 421.488C477.309 421.488 478.749 422.976 478.749 425.208H471.213C471.501 422.928 472.941 421.488 475.125 421.488ZM482.26 425.856C482.26 429.024 484.276 431.64 487.588 431.64C489.58 431.64 491.188 430.68 491.98 429.048V431.808C491.98 434.232 490.396 435.84 488.02 435.84C485.932 435.84 484.492 434.736 484.132 432.864H482.476C482.932 435.672 485.02 437.352 487.996 437.352C491.404 437.352 493.612 435.096 493.612 431.64V420.384H492.172L492.004 422.712C491.26 421.008 489.724 420.072 487.708 420.072C484.3 420.072 482.26 422.688 482.26 425.856ZM483.916 425.832C483.916 423.48 485.356 421.536 487.852 421.536C490.396 421.536 491.836 423.36 491.836 425.832C491.836 428.328 490.348 430.152 487.828 430.152C485.38 430.152 483.916 428.208 483.916 425.832ZM497.884 417.192C498.556 417.192 499.132 416.64 499.132 415.968C499.132 415.296 498.556 414.72 497.884 414.72C497.212 414.72 496.66 415.296 496.66 415.968C496.66 416.64 497.212 417.192 497.884 417.192ZM497.068 432H498.724V420.384H497.068V432ZM501.193 428.736C501.193 430.896 502.825 432.288 505.441 432.288C508.081 432.288 509.857 430.92 509.857 428.832C509.857 427.152 508.945 426.216 506.929 425.712L504.937 425.208C503.665 424.896 503.041 424.272 503.041 423.384C503.041 422.136 503.953 421.44 505.585 421.44C507.145 421.44 508.081 422.232 508.129 423.576H509.737C509.665 421.416 508.081 420.072 505.633 420.072C503.137 420.072 501.433 421.368 501.433 423.408C501.433 424.992 502.417 426.048 504.433 426.552L506.425 427.056C507.793 427.392 508.273 427.944 508.273 428.904C508.273 430.152 507.217 430.92 505.417 430.92C503.785 430.92 502.777 430.08 502.777 428.736H501.193ZM515.247 432V421.776H517.575V420.384H515.247V416.712H513.615V420.384H511.287V421.776H513.615V432H515.247ZM518.748 428.736C518.748 430.896 520.38 432.288 522.996 432.288C525.636 432.288 527.412 430.92 527.412 428.832C527.412 427.152 526.5 426.216 524.484 425.712L522.492 425.208C521.22 424.896 520.596 424.272 520.596 423.384C520.596 422.136 521.508 421.44 523.14 421.44C524.7 421.44 525.636 422.232 525.684 423.576H527.292C527.22 421.416 525.636 420.072 523.188 420.072C520.692 420.072 518.988 421.368 518.988 423.408C518.988 424.992 519.972 426.048 521.988 426.552L523.98 427.056C525.348 427.392 525.828 427.944 525.828 428.904C525.828 430.152 524.772 430.92 522.972 430.92C521.34 430.92 520.332 430.08 520.332 428.736H518.748ZM532.879 431.184C532.879 429.984 532.135 429.288 531.271 429.288C530.431 429.288 529.855 429.888 529.855 430.728C529.855 431.544 530.431 432.024 531.103 432.024C531.391 432.024 531.583 431.952 531.727 431.856C531.727 432.528 531.103 433.152 530.239 433.296V434.184C531.727 433.968 532.879 432.672 532.879 431.184ZM547.448 432.288C549.392 432.288 551.024 431.424 551.84 429.624L552.008 432H553.448V414.504H551.792V422.592C550.976 420.912 549.44 420.072 547.52 420.072C544.064 420.072 542.072 422.712 542.072 426.216C542.072 429.696 544.064 432.288 547.448 432.288ZM547.736 430.776C545.216 430.776 543.752 428.856 543.752 426.168C543.752 423.504 545.216 421.56 547.736 421.56C550.28 421.56 551.768 423.504 551.768 426.168C551.768 428.856 550.28 430.776 547.736 430.776ZM561.776 432.288C564.512 432.288 566.312 430.968 566.936 428.52H565.352C564.92 430.056 563.696 430.872 561.8 430.872C559.304 430.872 557.816 429.24 557.696 426.408H566.936V425.592C566.936 422.304 564.8 420.072 561.656 420.072C558.344 420.072 556.088 422.568 556.088 426.192C556.088 429.84 558.368 432.288 561.776 432.288ZM561.656 421.488C563.84 421.488 565.28 422.976 565.28 425.208H557.744C558.032 422.928 559.472 421.488 561.656 421.488ZM568.599 428.736C568.599 430.896 570.231 432.288 572.847 432.288C575.487 432.288 577.263 430.92 577.263 428.832C577.263 427.152 576.351 426.216 574.335 425.712L572.343 425.208C571.071 424.896 570.447 424.272 570.447 423.384C570.447 422.136 571.359 421.44 572.991 421.44C574.551 421.44 575.487 422.232 575.535 423.576H577.143C577.071 421.416 575.487 420.072 573.039 420.072C570.543 420.072 568.839 421.368 568.839 423.408C568.839 424.992 569.823 426.048 571.839 426.552L573.831 427.056C575.199 427.392 575.679 427.944 575.679 428.904C575.679 430.152 574.623 430.92 572.823 430.92C571.191 430.92 570.183 430.08 570.183 428.736H568.599ZM580.806 417.192C581.478 417.192 582.054 416.64 582.054 415.968C582.054 415.296 581.478 414.72 580.806 414.72C580.134 414.72 579.582 415.296 579.582 415.968C579.582 416.64 580.134 417.192 580.806 417.192ZM579.99 432H581.646V420.384H579.99V432ZM584.307 425.856C584.307 429.024 586.323 431.64 589.635 431.64C591.627 431.64 593.235 430.68 594.027 429.048V431.808C594.027 434.232 592.443 435.84 590.067 435.84C587.979 435.84 586.539 434.736 586.179 432.864H584.523C584.979 435.672 587.067 437.352 590.043 437.352C593.451 437.352 595.659 435.096 595.659 431.64V420.384H594.219L594.051 422.712C593.307 421.008 591.771 420.072 589.755 420.072C586.347 420.072 584.307 422.688 584.307 425.856ZM585.963 425.832C585.963 423.48 587.403 421.536 589.899 421.536C592.443 421.536 593.883 423.36 593.883 425.832C593.883 428.328 592.395 430.152 589.875 430.152C587.427 430.152 585.963 428.208 585.963 425.832ZM600.771 432V425.928C600.771 423.312 602.115 421.584 604.491 421.584C606.411 421.584 607.635 422.544 607.635 425.256V432H609.291V424.896C609.291 421.968 607.971 420.072 604.779 420.072C603.099 420.072 601.563 420.912 600.795 422.4L600.555 420.384H599.115V432H600.771ZM617.463 432.288C620.199 432.288 621.999 430.968 622.623 428.52H621.039C620.607 430.056 619.383 430.872 617.487 430.872C614.991 430.872 613.503 429.24 613.383 426.408H622.623V425.592C622.623 422.304 620.487 420.072 617.343 420.072C614.031 420.072 611.775 422.568 611.775 426.192C611.775 429.84 614.055 432.288 617.463 432.288ZM617.343 421.488C619.527 421.488 620.967 422.976 620.967 425.208H613.431C613.719 422.928 615.159 421.488 617.343 421.488ZM631.343 420.24C630.935 420.144 630.623 420.12 630.263 420.12C628.631 420.12 627.407 420.936 626.951 422.184L626.831 420.384H625.271V432H626.927V425.376C626.927 423.168 628.295 421.728 630.431 421.728H631.343V420.24ZM632.56 428.736C632.56 430.896 634.192 432.288 636.808 432.288C639.448 432.288 641.224 430.92 641.224 428.832C641.224 427.152 640.312 426.216 638.296 425.712L636.304 425.208C635.032 424.896 634.408 424.272 634.408 423.384C634.408 422.136 635.32 421.44 636.952 421.44C638.512 421.44 639.448 422.232 639.496 423.576H641.104C641.032 421.416 639.448 420.072 637 420.072C634.504 420.072 632.8 421.368 632.8 423.408C632.8 424.992 633.784 426.048 635.8 426.552L637.792 427.056C639.16 427.392 639.64 427.944 639.64 428.904C639.64 430.152 638.584 430.92 636.784 430.92C635.152 430.92 634.144 430.08 634.144 428.736H632.56ZM649.791 426.216C649.791 429.864 652.023 432.288 655.311 432.288C657.951 432.288 660.015 430.728 660.567 428.352H658.887C658.431 429.84 657.039 430.8 655.311 430.8C652.959 430.8 651.423 428.952 651.423 426.192C651.423 423.336 653.079 421.536 655.431 421.536C657.039 421.536 658.431 422.424 658.863 424.032H660.519C660.063 421.632 658.095 420.072 655.407 420.072C652.023 420.072 649.791 422.568 649.791 426.216ZM662.26 426.192C662.26 429.72 664.756 432.288 668.164 432.288C671.572 432.288 674.068 429.72 674.068 426.192C674.068 422.64 671.572 420.072 668.164 420.072C664.756 420.072 662.26 422.64 662.26 426.192ZM663.94 426.168C663.94 423.48 665.668 421.56 668.164 421.56C670.636 421.56 672.388 423.48 672.388 426.168C672.388 428.904 670.636 430.8 668.164 430.8C665.668 430.8 663.94 428.904 663.94 426.168ZM678.372 432V424.8C678.372 423.024 679.548 421.584 681.492 421.584C683.244 421.584 684.372 422.736 684.372 424.704V432H686.004V424.824C686.004 423.024 687.156 421.56 689.1 421.56C690.876 421.56 691.98 422.736 691.98 424.728V432H693.588V424.392C693.588 421.704 691.932 420.072 689.412 420.072C687.54 420.072 686.124 421.032 685.596 422.544C685.044 421.032 683.676 420.072 681.852 420.072C680.22 420.072 678.924 420.816 678.348 422.04L678.156 420.384H676.716V432H678.372ZM698.575 432V424.8C698.575 423.024 699.751 421.584 701.695 421.584C703.447 421.584 704.575 422.736 704.575 424.704V432H706.207V424.824C706.207 423.024 707.359 421.56 709.303 421.56C711.079 421.56 712.183 422.736 712.183 424.728V432H713.791V424.392C713.791 421.704 712.135 420.072 709.615 420.072C707.743 420.072 706.327 421.032 705.799 422.544C705.247 421.032 703.879 420.072 702.055 420.072C700.423 420.072 699.127 420.816 698.551 422.04L698.359 420.384H696.919V432H698.575ZM725.283 420.384V426.552C725.283 429.312 723.963 430.8 721.731 430.8C719.883 430.8 718.659 429.816 718.659 427.056V420.36H716.979V427.584C716.979 430.416 718.467 432.288 721.203 432.288C723.027 432.288 724.635 431.376 725.283 430.032L725.499 432H726.939V420.384H725.283ZM732.044 432V425.928C732.044 423.312 733.388 421.584 735.764 421.584C737.684 421.584 738.908 422.544 738.908 425.256V432H740.564V424.896C740.564 421.968 739.244 420.072 736.052 420.072C734.372 420.072 732.836 420.912 732.068 422.4L731.828 420.384H730.388V432H732.044ZM744.681 417.192C745.353 417.192 745.929 416.64 745.929 415.968C745.929 415.296 745.353 414.72 744.681 414.72C744.009 414.72 743.457 415.296 743.457 415.968C743.457 416.64 744.009 417.192 744.681 417.192ZM743.865 432H745.521V420.384H743.865V432ZM748.158 426.216C748.158 429.864 750.39 432.288 753.678 432.288C756.318 432.288 758.382 430.728 758.934 428.352H757.254C756.798 429.84 755.406 430.8 753.678 430.8C751.326 430.8 749.79 428.952 749.79 426.192C749.79 423.336 751.446 421.536 753.798 421.536C755.406 421.536 756.798 422.424 757.23 424.032H758.886C758.43 421.632 756.462 420.072 753.774 420.072C750.39 420.072 748.158 422.568 748.158 426.216ZM764.779 432.288C766.747 432.288 768.331 431.424 769.051 429.96L769.267 432H770.659V424.488C770.659 421.416 768.691 420.072 766.003 420.072C763.147 420.072 761.227 421.584 761.227 423.936H762.739C762.739 422.376 763.939 421.464 765.955 421.464C767.659 421.464 769.027 422.184 769.027 424.464V424.848L765.187 425.16C762.475 425.376 760.843 426.72 760.843 428.856C760.843 430.896 762.307 432.288 764.779 432.288ZM765.163 430.944C763.579 430.944 762.523 430.224 762.523 428.808C762.523 427.512 763.411 426.552 765.595 426.36L769.027 426.096V426.72C769.027 429.24 767.611 430.944 765.163 430.944ZM776.435 432V421.776H778.763V420.384H776.435V416.712H774.803V420.384H772.475V421.776H774.803V432H776.435ZM779.986 426.192C779.986 429.72 782.482 432.288 785.89 432.288C789.298 432.288 791.794 429.72 791.794 426.192C791.794 422.64 789.298 420.072 785.89 420.072C782.482 420.072 779.986 422.64 779.986 426.192ZM781.666 426.168C781.666 423.48 783.394 421.56 785.89 421.56C788.362 421.56 790.114 423.48 790.114 426.168C790.114 428.904 788.362 430.8 785.89 430.8C783.394 430.8 781.666 428.904 781.666 426.168ZM800.515 420.24C800.107 420.144 799.795 420.12 799.435 420.12C797.803 420.12 796.579 420.936 796.123 422.184L796.003 420.384H794.443V432H796.099V425.376C796.099 423.168 797.467 421.728 799.603 421.728H800.515V420.24ZM801.732 428.736C801.732 430.896 803.364 432.288 805.98 432.288C808.62 432.288 810.396 430.92 810.396 428.832C810.396 427.152 809.484 426.216 807.468 425.712L805.476 425.208C804.204 424.896 803.58 424.272 803.58 423.384C803.58 422.136 804.492 421.44 806.124 421.44C807.684 421.44 808.62 422.232 808.668 423.576H810.276C810.204 421.416 808.62 420.072 806.172 420.072C803.676 420.072 801.972 421.368 801.972 423.408C801.972 424.992 802.956 426.048 804.972 426.552L806.964 427.056C808.332 427.392 808.812 427.944 808.812 428.904C808.812 430.152 807.756 430.92 805.956 430.92C804.324 430.92 803.316 430.08 803.316 428.736H801.732ZM815.863 431.184C815.863 429.984 815.119 429.288 814.255 429.288C813.415 429.288 812.839 429.888 812.839 430.728C812.839 431.544 813.415 432.024 814.087 432.024C814.375 432.024 814.567 431.952 814.711 431.856C814.711 432.528 814.087 433.152 813.223 433.296V434.184C814.711 433.968 815.863 432.672 815.863 431.184ZM831.945 420.24C831.537 420.144 831.225 420.12 830.865 420.12C829.233 420.12 828.009 420.936 827.553 422.184L827.433 420.384H825.873V432H827.529V425.376C827.529 423.168 828.897 421.728 831.033 421.728H831.945V420.24ZM838.573 432.288C841.309 432.288 843.109 430.968 843.733 428.52H842.149C841.717 430.056 840.493 430.872 838.597 430.872C836.101 430.872 834.613 429.24 834.493 426.408H843.733V425.592C843.733 422.304 841.597 420.072 838.453 420.072C835.141 420.072 832.885 422.568 832.885 426.192C832.885 429.84 835.165 432.288 838.573 432.288ZM838.453 421.488C840.637 421.488 842.077 422.976 842.077 425.208H834.541C834.829 422.928 836.269 421.488 838.453 421.488ZM845.396 428.736C845.396 430.896 847.028 432.288 849.644 432.288C852.284 432.288 854.06 430.92 854.06 428.832C854.06 427.152 853.148 426.216 851.132 425.712L849.14 425.208C847.868 424.896 847.244 424.272 847.244 423.384C847.244 422.136 848.156 421.44 849.788 421.44C851.348 421.44 852.284 422.232 852.332 423.576H853.94C853.868 421.416 852.284 420.072 849.836 420.072C847.34 420.072 845.636 421.368 845.636 423.408C845.636 424.992 846.62 426.048 848.636 426.552L850.628 427.056C851.996 427.392 852.476 427.944 852.476 428.904C852.476 430.152 851.42 430.92 849.62 430.92C847.988 430.92 846.98 430.08 846.98 428.736H845.396ZM861.659 432.288C864.395 432.288 866.195 430.968 866.819 428.52H865.235C864.803 430.056 863.579 430.872 861.683 430.872C859.187 430.872 857.699 429.24 857.579 426.408H866.819V425.592C866.819 422.304 864.683 420.072 861.539 420.072C858.227 420.072 855.971 422.568 855.971 426.192C855.971 429.84 858.251 432.288 861.659 432.288ZM861.539 421.488C863.723 421.488 865.163 422.976 865.163 425.208H857.627C857.915 422.928 859.355 421.488 861.539 421.488ZM872.685 432.288C874.653 432.288 876.237 431.424 876.957 429.96L877.173 432H878.565V424.488C878.565 421.416 876.597 420.072 873.909 420.072C871.053 420.072 869.133 421.584 869.133 423.936H870.645C870.645 422.376 871.845 421.464 873.861 421.464C875.565 421.464 876.933 422.184 876.933 424.464V424.848L873.093 425.16C870.381 425.376 868.749 426.72 868.749 428.856C868.749 430.896 870.213 432.288 872.685 432.288ZM873.069 430.944C871.485 430.944 870.429 430.224 870.429 428.808C870.429 427.512 871.317 426.552 873.501 426.36L876.933 426.096V426.72C876.933 429.24 875.517 430.944 873.069 430.944ZM887.96 420.24C887.552 420.144 887.24 420.12 886.88 420.12C885.248 420.12 884.024 420.936 883.568 422.184L883.448 420.384H881.888V432H883.544V425.376C883.544 423.168 884.912 421.728 887.048 421.728H887.96V420.24ZM888.9 426.216C888.9 429.864 891.132 432.288 894.42 432.288C897.06 432.288 899.124 430.728 899.676 428.352H897.996C897.54 429.84 896.148 430.8 894.42 430.8C892.068 430.8 890.532 428.952 890.532 426.192C890.532 423.336 892.188 421.536 894.54 421.536C896.148 421.536 897.54 422.424 897.972 424.032H899.628C899.172 421.632 897.204 420.072 894.516 420.072C891.132 420.072 888.9 422.568 888.9 426.216ZM903.841 431.976V425.664C903.841 423.432 905.137 421.584 907.633 421.584C909.433 421.584 910.705 422.544 910.705 425.256V432H912.361V424.896C912.361 421.968 910.993 420.072 907.945 420.072C906.001 420.072 904.585 421.008 903.841 422.4V414.504H902.185V431.976H903.841ZM920.534 432.288C923.27 432.288 925.07 430.968 925.694 428.52H924.11C923.678 430.056 922.454 430.872 920.558 430.872C918.062 430.872 916.574 429.24 916.454 426.408H925.694V425.592C925.694 422.304 923.558 420.072 920.414 420.072C917.102 420.072 914.846 422.568 914.846 426.192C914.846 429.84 917.126 432.288 920.534 432.288ZM920.414 421.488C922.598 421.488 924.038 422.976 924.038 425.208H916.502C916.79 422.928 918.23 421.488 920.414 421.488ZM934.413 420.24C934.005 420.144 933.693 420.12 933.333 420.12C931.701 420.12 930.477 420.936 930.021 422.184L929.901 420.384H928.341V432H929.997V425.376C929.997 423.168 931.365 421.728 933.501 421.728H934.413V420.24ZM935.631 428.736C935.631 430.896 937.263 432.288 939.879 432.288C942.519 432.288 944.295 430.92 944.295 428.832C944.295 427.152 943.383 426.216 941.367 425.712L939.375 425.208C938.103 424.896 937.479 424.272 937.479 423.384C937.479 422.136 938.391 421.44 940.023 421.44C941.583 421.44 942.519 422.232 942.567 423.576H944.175C944.103 421.416 942.519 420.072 940.071 420.072C937.575 420.072 935.871 421.368 935.871 423.408C935.871 424.992 936.855 426.048 938.871 426.552L940.863 427.056C942.231 427.392 942.711 427.944 942.711 428.904C942.711 430.152 941.655 430.92 939.855 430.92C938.223 430.92 937.215 430.08 937.215 428.736H935.631ZM948.249 432.264C949.065 432.264 949.761 431.592 949.761 430.8C949.761 429.984 949.065 429.288 948.249 429.288C947.433 429.288 946.737 429.984 946.737 430.8C946.737 431.592 947.433 432.264 948.249 432.264ZM958.331 416.4H963.611V432H965.339V416.4H970.643V414.816H958.331V416.4ZM970.064 426.192C970.064 429.72 972.56 432.288 975.968 432.288C979.376 432.288 981.872 429.72 981.872 426.192C981.872 422.64 979.376 420.072 975.968 420.072C972.56 420.072 970.064 422.64 970.064 426.192ZM971.744 426.168C971.744 423.48 973.472 421.56 975.968 421.56C978.44 421.56 980.192 423.48 980.192 426.168C980.192 428.904 978.44 430.8 975.968 430.8C973.472 430.8 971.744 428.904 971.744 426.168ZM983.729 425.856C983.729 429.024 985.745 431.64 989.057 431.64C991.049 431.64 992.657 430.68 993.449 429.048V431.808C993.449 434.232 991.865 435.84 989.489 435.84C987.401 435.84 985.961 434.736 985.601 432.864H983.945C984.401 435.672 986.489 437.352 989.465 437.352C992.873 437.352 995.081 435.096 995.081 431.64V420.384H993.641L993.473 422.712C992.729 421.008 991.193 420.072 989.177 420.072C985.769 420.072 983.729 422.688 983.729 425.856ZM985.385 425.832C985.385 423.48 986.825 421.536 989.321 421.536C991.865 421.536 993.305 423.36 993.305 425.832C993.305 428.328 991.817 430.152 989.297 430.152C986.849 430.152 985.385 428.208 985.385 425.832ZM1003.41 432.288C1006.14 432.288 1007.94 430.968 1008.57 428.52H1006.98C1006.55 430.056 1005.33 430.872 1003.43 430.872C1000.94 430.872 999.449 429.24 999.329 426.408H1008.57V425.592C1008.57 422.304 1006.43 420.072 1003.29 420.072C999.977 420.072 997.721 422.568 997.721 426.192C997.721 429.84 1000 432.288 1003.41 432.288ZM1003.29 421.488C1005.47 421.488 1006.91 422.976 1006.91 425.208H999.377C999.665 422.928 1001.1 421.488 1003.29 421.488ZM1014.44 432.288C1016.4 432.288 1017.99 431.424 1018.71 429.96L1018.92 432H1020.32V424.488C1020.32 421.416 1018.35 420.072 1015.66 420.072C1012.8 420.072 1010.88 421.584 1010.88 423.936H1012.4C1012.4 422.376 1013.6 421.464 1015.61 421.464C1017.32 421.464 1018.68 422.184 1018.68 424.464V424.848L1014.84 425.16C1012.13 425.376 1010.5 426.72 1010.5 428.856C1010.5 430.896 1011.96 432.288 1014.44 432.288ZM1014.82 430.944C1013.24 430.944 1012.18 430.224 1012.18 428.808C1012.18 427.512 1013.07 426.552 1015.25 426.36L1018.68 426.096V426.72C1018.68 429.24 1017.27 430.944 1014.82 430.944ZM1026.09 432V421.776H1028.42V420.384H1026.09V416.712H1024.46V420.384H1022.13V421.776H1024.46V432H1026.09ZM1032.23 431.976V425.664C1032.23 423.432 1033.53 421.584 1036.02 421.584C1037.82 421.584 1039.1 422.544 1039.1 425.256V432H1040.75V424.896C1040.75 421.968 1039.38 420.072 1036.34 420.072C1034.39 420.072 1032.98 421.008 1032.23 422.4V414.504H1030.58V431.976H1032.23ZM1048.92 432.288C1051.66 432.288 1053.46 430.968 1054.08 428.52H1052.5C1052.07 430.056 1050.84 430.872 1048.95 430.872C1046.45 430.872 1044.96 429.24 1044.84 426.408H1054.08V425.592C1054.08 422.304 1051.95 420.072 1048.8 420.072C1045.49 420.072 1043.24 422.568 1043.24 426.192C1043.24 429.84 1045.52 432.288 1048.92 432.288ZM1048.8 421.488C1050.99 421.488 1052.43 422.976 1052.43 425.208H1044.89C1045.18 422.928 1046.62 421.488 1048.8 421.488ZM1062.8 420.24C1062.4 420.144 1062.08 420.12 1061.72 420.12C1060.09 420.12 1058.87 420.936 1058.41 422.184L1058.29 420.384H1056.73V432H1058.39V425.376C1058.39 423.168 1059.76 421.728 1061.89 421.728H1062.8V420.24ZM1066.15 431.184C1066.15 429.984 1065.41 429.288 1064.54 429.288C1063.7 429.288 1063.13 429.888 1063.13 430.728C1063.13 431.544 1063.7 432.024 1064.38 432.024C1064.66 432.024 1064.86 431.952 1065 431.856C1065 432.528 1064.38 433.152 1063.51 433.296V434.184C1065 433.968 1066.15 432.672 1066.15 431.184ZM258.168 468H259.824L262.224 460.704C262.536 459.744 262.728 459.048 262.896 458.424C263.04 459.12 263.232 459.84 263.52 460.704L265.92 468H267.528L271.464 456.384H269.736L267.432 463.392C267.024 464.64 266.976 464.928 266.736 465.888C266.52 465.024 266.232 464.016 266.016 463.392L263.736 456.384H262.032L259.728 463.392C259.608 463.776 259.224 464.952 259.032 465.888C258.792 464.952 258.576 464.16 258.312 463.392L256.032 456.384H254.328L258.168 468ZM277.889 468.288C280.625 468.288 282.425 466.968 283.049 464.52H281.465C281.033 466.056 279.809 466.872 277.913 466.872C275.417 466.872 273.929 465.24 273.809 462.408H283.049V461.592C283.049 458.304 280.913 456.072 277.769 456.072C274.457 456.072 272.201 458.568 272.201 462.192C272.201 465.84 274.481 468.288 277.889 468.288ZM277.769 457.488C279.953 457.488 281.393 458.976 281.393 461.208H273.857C274.145 458.928 275.585 457.488 277.769 457.488ZM293.793 468L293.961 465.624C294.777 467.424 296.385 468.288 298.329 468.288C301.713 468.288 303.729 465.696 303.729 462.216C303.729 458.712 301.761 456.072 298.377 456.072C296.409 456.072 294.825 456.936 294.009 458.64V450.504H292.353V468H293.793ZM294.033 462.168C294.033 459.504 295.521 457.56 298.065 457.56C300.585 457.56 302.049 459.504 302.049 462.168C302.049 464.856 300.585 466.776 298.065 466.776C295.521 466.776 294.033 464.856 294.033 462.168ZM311.241 468.288C313.977 468.288 315.777 466.968 316.401 464.52H314.817C314.385 466.056 313.161 466.872 311.265 466.872C308.769 466.872 307.281 465.24 307.161 462.408H316.401V461.592C316.401 458.304 314.265 456.072 311.121 456.072C307.809 456.072 305.553 458.568 305.553 462.192C305.553 465.84 307.833 468.288 311.241 468.288ZM311.121 457.488C313.305 457.488 314.745 458.976 314.745 461.208H307.209C307.497 458.928 308.937 457.488 311.121 457.488ZM320.776 468V450.504H319.12V468H320.776ZM325.114 453.192C325.786 453.192 326.362 452.64 326.362 451.968C326.362 451.296 325.786 450.72 325.114 450.72C324.442 450.72 323.89 451.296 323.89 451.968C323.89 452.64 324.442 453.192 325.114 453.192ZM324.298 468H325.954V456.384H324.298V468ZM332.648 468H334.304L339.128 456.384H337.424L334.376 463.872C334.04 464.712 333.728 465.48 333.512 466.272C333.296 465.504 332.984 464.712 332.672 463.872L329.672 456.384H327.896L332.648 468ZM345.436 468.288C348.172 468.288 349.972 466.968 350.596 464.52H349.012C348.58 466.056 347.356 466.872 345.46 466.872C342.964 466.872 341.476 465.24 341.356 462.408H350.596V461.592C350.596 458.304 348.46 456.072 345.316 456.072C342.004 456.072 339.748 458.568 339.748 462.192C339.748 465.84 342.028 468.288 345.436 468.288ZM345.316 457.488C347.5 457.488 348.94 458.976 348.94 461.208H341.404C341.692 458.928 343.132 457.488 345.316 457.488ZM362.564 468V457.776H364.892V456.384H362.564V452.712H360.932V456.384H358.604V457.776H360.932V468H362.564ZM368.704 467.976V461.664C368.704 459.432 370 457.584 372.496 457.584C374.296 457.584 375.568 458.544 375.568 461.256V468H377.224V460.896C377.224 457.968 375.856 456.072 372.808 456.072C370.864 456.072 369.448 457.008 368.704 458.4V450.504H367.048V467.976H368.704ZM383.861 468.288C385.829 468.288 387.413 467.424 388.133 465.96L388.349 468H389.741V460.488C389.741 457.416 387.773 456.072 385.085 456.072C382.229 456.072 380.309 457.584 380.309 459.936H381.821C381.821 458.376 383.021 457.464 385.037 457.464C386.741 457.464 388.109 458.184 388.109 460.464V460.848L384.269 461.16C381.557 461.376 379.925 462.72 379.925 464.856C379.925 466.896 381.389 468.288 383.861 468.288ZM384.245 466.944C382.661 466.944 381.605 466.224 381.605 464.808C381.605 463.512 382.493 462.552 384.677 462.36L388.109 462.096V462.72C388.109 465.24 386.693 466.944 384.245 466.944ZM395.517 468V457.776H397.845V456.384H395.517V452.712H393.885V456.384H391.557V457.776H393.885V468H395.517ZM406.658 473.064H408.314V465.768C409.13 467.448 410.69 468.288 412.658 468.288C416.09 468.288 418.034 465.648 418.034 462.144C418.034 458.64 416.018 456.072 412.658 456.072C410.714 456.072 409.082 456.936 408.266 458.736L408.098 456.384H406.658V473.064ZM408.338 462.192C408.338 459.504 409.826 457.584 412.37 457.584C414.89 457.584 416.354 459.504 416.354 462.192C416.354 464.856 414.89 466.8 412.37 466.8C409.826 466.8 408.338 464.856 408.338 462.192ZM426.745 456.24C426.337 456.144 426.025 456.12 425.665 456.12C424.033 456.12 422.809 456.936 422.353 458.184L422.233 456.384H420.673V468H422.329V461.376C422.329 459.168 423.697 457.728 425.833 457.728H426.745V456.24ZM427.685 462.192C427.685 465.72 430.181 468.288 433.589 468.288C436.997 468.288 439.493 465.72 439.493 462.192C439.493 458.64 436.997 456.072 433.589 456.072C430.181 456.072 427.685 458.64 427.685 462.192ZM429.365 462.168C429.365 459.48 431.093 457.56 433.589 457.56C436.061 457.56 437.813 459.48 437.813 462.168C437.813 464.904 436.061 466.8 433.589 466.8C431.093 466.8 429.365 464.904 429.365 462.168ZM441.35 461.856C441.35 465.024 443.366 467.64 446.678 467.64C448.67 467.64 450.278 466.68 451.07 465.048V467.808C451.07 470.232 449.486 471.84 447.11 471.84C445.022 471.84 443.582 470.736 443.222 468.864H441.566C442.022 471.672 444.11 473.352 447.086 473.352C450.494 473.352 452.702 471.096 452.702 467.64V456.384H451.262L451.094 458.712C450.35 457.008 448.814 456.072 446.798 456.072C443.39 456.072 441.35 458.688 441.35 461.856ZM443.006 461.832C443.006 459.48 444.446 457.536 446.942 457.536C449.486 457.536 450.926 459.36 450.926 461.832C450.926 464.328 449.438 466.152 446.918 466.152C444.47 466.152 443.006 464.208 443.006 461.832ZM462.23 456.24C461.822 456.144 461.51 456.12 461.15 456.12C459.518 456.12 458.294 456.936 457.838 458.184L457.718 456.384H456.158V468H457.814V461.376C457.814 459.168 459.182 457.728 461.318 457.728H462.23V456.24ZM468.858 468.288C471.594 468.288 473.394 466.968 474.018 464.52H472.434C472.002 466.056 470.778 466.872 468.882 466.872C466.386 466.872 464.898 465.24 464.778 462.408H474.018V461.592C474.018 458.304 471.882 456.072 468.738 456.072C465.426 456.072 463.17 458.568 463.17 462.192C463.17 465.84 465.45 468.288 468.858 468.288ZM468.738 457.488C470.922 457.488 472.362 458.976 472.362 461.208H464.826C465.114 458.928 466.554 457.488 468.738 457.488ZM475.682 464.736C475.682 466.896 477.314 468.288 479.93 468.288C482.57 468.288 484.346 466.92 484.346 464.832C484.346 463.152 483.434 462.216 481.418 461.712L479.426 461.208C478.154 460.896 477.53 460.272 477.53 459.384C477.53 458.136 478.442 457.44 480.074 457.44C481.634 457.44 482.57 458.232 482.618 459.576H484.226C484.154 457.416 482.57 456.072 480.122 456.072C477.626 456.072 475.922 457.368 475.922 459.408C475.922 460.992 476.906 462.048 478.922 462.552L480.914 463.056C482.282 463.392 482.762 463.944 482.762 464.904C482.762 466.152 481.706 466.92 479.906 466.92C478.274 466.92 477.266 466.08 477.266 464.736H475.682ZM486.088 464.736C486.088 466.896 487.72 468.288 490.336 468.288C492.976 468.288 494.752 466.92 494.752 464.832C494.752 463.152 493.84 462.216 491.824 461.712L489.832 461.208C488.56 460.896 487.936 460.272 487.936 459.384C487.936 458.136 488.848 457.44 490.48 457.44C492.04 457.44 492.976 458.232 493.024 459.576H494.632C494.56 457.416 492.976 456.072 490.528 456.072C488.032 456.072 486.328 457.368 486.328 459.408C486.328 460.992 487.312 462.048 489.328 462.552L491.32 463.056C492.688 463.392 493.168 463.944 493.168 464.904C493.168 466.152 492.112 466.92 490.312 466.92C488.68 466.92 487.672 466.08 487.672 464.736H486.088ZM503.318 462.192C503.318 465.72 505.814 468.288 509.222 468.288C512.63 468.288 515.126 465.72 515.126 462.192C515.126 458.64 512.63 456.072 509.222 456.072C505.814 456.072 503.318 458.64 503.318 462.192ZM504.998 462.168C504.998 459.48 506.726 457.56 509.222 457.56C511.694 457.56 513.446 459.48 513.446 462.168C513.446 464.904 511.694 466.8 509.222 466.8C506.726 466.8 504.998 464.904 504.998 462.168ZM519.431 468V461.928C519.431 459.312 520.775 457.584 523.151 457.584C525.071 457.584 526.295 458.544 526.295 461.256V468H527.951V460.896C527.951 457.968 526.631 456.072 523.439 456.072C521.759 456.072 520.223 456.912 519.455 458.4L519.215 456.384H517.775V468H519.431ZM532.979 468V450.504H531.323V468H532.979ZM535.325 473.064C535.853 473.184 536.381 473.232 537.077 473.232C538.733 473.232 539.861 472.488 540.533 470.664L545.861 456.384H544.157L540.485 466.512L536.741 456.384H534.989L539.693 468.696L539.189 470.064C538.613 471.624 537.605 471.696 536.597 471.696H535.325V473.064ZM556.111 467.976V461.664C556.111 459.432 557.407 457.584 559.903 457.584C561.703 457.584 562.975 458.544 562.975 461.256V468H564.631V460.896C564.631 457.968 563.263 456.072 560.215 456.072C558.271 456.072 556.855 457.008 556.111 458.4V450.504H554.455V467.976H556.111ZM567.139 461.856C567.139 465.024 569.155 467.64 572.467 467.64C574.459 467.64 576.067 466.68 576.859 465.048V467.808C576.859 470.232 575.275 471.84 572.899 471.84C570.811 471.84 569.371 470.736 569.011 468.864H567.355C567.811 471.672 569.899 473.352 572.875 473.352C576.283 473.352 578.491 471.096 578.491 467.64V456.384H577.051L576.883 458.712C576.139 457.008 574.603 456.072 572.587 456.072C569.179 456.072 567.139 458.688 567.139 461.856ZM568.795 461.832C568.795 459.48 570.235 457.536 572.731 457.536C575.275 457.536 576.715 459.36 576.715 461.832C576.715 464.328 575.227 466.152 572.707 466.152C570.259 466.152 568.795 464.208 568.795 461.832ZM583.603 467.976V461.664C583.603 459.432 584.899 457.584 587.395 457.584C589.195 457.584 590.467 458.544 590.467 461.256V468H592.123V460.896C592.123 457.968 590.755 456.072 587.707 456.072C585.763 456.072 584.347 457.008 583.603 458.4V450.504H581.947V467.976H583.603ZM598.759 468.288C600.727 468.288 602.311 467.424 603.031 465.96L603.247 468H604.639V460.488C604.639 457.416 602.671 456.072 599.983 456.072C597.127 456.072 595.207 457.584 595.207 459.936H596.719C596.719 458.376 597.919 457.464 599.935 457.464C601.639 457.464 603.007 458.184 603.007 460.464V460.848L599.167 461.16C596.455 461.376 594.823 462.72 594.823 464.856C594.823 466.896 596.287 468.288 598.759 468.288ZM599.143 466.944C597.559 466.944 596.503 466.224 596.503 464.808C596.503 463.512 597.391 462.552 599.575 462.36L603.007 462.096V462.72C603.007 465.24 601.591 466.944 599.143 466.944ZM607.962 473.064H609.618V465.768C610.434 467.448 611.994 468.288 613.962 468.288C617.394 468.288 619.338 465.648 619.338 462.144C619.338 458.64 617.322 456.072 613.962 456.072C612.018 456.072 610.386 456.936 609.57 458.736L609.402 456.384H607.962V473.064ZM609.642 462.192C609.642 459.504 611.13 457.584 613.674 457.584C616.194 457.584 617.658 459.504 617.658 462.192C617.658 464.856 616.194 466.8 613.674 466.8C611.13 466.8 609.642 464.856 609.642 462.192ZM621.978 473.064H623.634V465.768C624.45 467.448 626.01 468.288 627.978 468.288C631.41 468.288 633.354 465.648 633.354 462.144C633.354 458.64 631.338 456.072 627.978 456.072C626.034 456.072 624.402 456.936 623.586 458.736L623.418 456.384H621.978V473.064ZM623.658 462.192C623.658 459.504 625.146 457.584 627.69 457.584C630.21 457.584 631.674 459.504 631.674 462.192C631.674 464.856 630.21 466.8 627.69 466.8C625.146 466.8 623.658 464.856 623.658 462.192ZM640.866 468.288C643.602 468.288 645.402 466.968 646.026 464.52H644.442C644.01 466.056 642.786 466.872 640.89 466.872C638.394 466.872 636.906 465.24 636.786 462.408H646.026V461.592C646.026 458.304 643.89 456.072 640.746 456.072C637.434 456.072 635.178 458.568 635.178 462.192C635.178 465.84 637.458 468.288 640.866 468.288ZM640.746 457.488C642.93 457.488 644.37 458.976 644.37 461.208H636.834C637.122 458.928 638.562 457.488 640.746 457.488ZM650.329 468V461.928C650.329 459.312 651.673 457.584 654.049 457.584C655.969 457.584 657.193 458.544 657.193 461.256V468H658.849V460.896C658.849 457.968 657.529 456.072 654.337 456.072C652.657 456.072 651.121 456.912 650.353 458.4L650.113 456.384H648.673V468H650.329ZM661.025 464.736C661.025 466.896 662.657 468.288 665.273 468.288C667.913 468.288 669.689 466.92 669.689 464.832C669.689 463.152 668.777 462.216 666.761 461.712L664.769 461.208C663.497 460.896 662.873 460.272 662.873 459.384C662.873 458.136 663.785 457.44 665.417 457.44C666.977 457.44 667.913 458.232 667.961 459.576H669.569C669.497 457.416 667.913 456.072 665.465 456.072C662.969 456.072 661.265 457.368 661.265 459.408C661.265 460.992 662.249 462.048 664.265 462.552L666.257 463.056C667.625 463.392 668.105 463.944 668.105 464.904C668.105 466.152 667.049 466.92 665.249 466.92C663.617 466.92 662.609 466.08 662.609 464.736H661.025ZM681.52 468H683.176L685.576 460.704C685.888 459.744 686.08 459.048 686.248 458.424C686.392 459.12 686.584 459.84 686.872 460.704L689.272 468H690.88L694.816 456.384H693.088L690.784 463.392C690.376 464.64 690.328 464.928 690.088 465.888C689.872 465.024 689.584 464.016 689.368 463.392L687.088 456.384H685.384L683.08 463.392C682.96 463.776 682.576 464.952 682.384 465.888C682.144 464.952 681.928 464.16 681.664 463.392L679.384 456.384H677.68L681.52 468ZM698.54 467.976V461.664C698.54 459.432 699.836 457.584 702.332 457.584C704.132 457.584 705.404 458.544 705.404 461.256V468H707.06V460.896C707.06 457.968 705.692 456.072 702.644 456.072C700.7 456.072 699.284 457.008 698.54 458.4V450.504H696.884V467.976H698.54ZM715.233 468.288C717.969 468.288 719.769 466.968 720.393 464.52H718.809C718.377 466.056 717.153 466.872 715.257 466.872C712.761 466.872 711.273 465.24 711.153 462.408H720.393V461.592C720.393 458.304 718.257 456.072 715.113 456.072C711.801 456.072 709.545 458.568 709.545 462.192C709.545 465.84 711.825 468.288 715.233 468.288ZM715.113 457.488C717.297 457.488 718.737 458.976 718.737 461.208H711.201C711.489 458.928 712.929 457.488 715.113 457.488ZM724.697 468V461.928C724.697 459.312 726.041 457.584 728.417 457.584C730.337 457.584 731.561 458.544 731.561 461.256V468H733.217V460.896C733.217 457.968 731.897 456.072 728.705 456.072C727.025 456.072 725.489 456.912 724.721 458.4L724.48 456.384H723.041V468H724.697ZM741.997 473.064C742.525 473.184 743.053 473.232 743.749 473.232C745.405 473.232 746.533 472.488 747.205 470.664L752.533 456.384H750.829L747.157 466.512L743.413 456.384H741.661L746.365 468.696L745.861 470.064C745.285 471.624 744.277 471.696 743.269 471.696H741.997V473.064ZM753.256 462.192C753.256 465.72 755.752 468.288 759.16 468.288C762.568 468.288 765.064 465.72 765.064 462.192C765.064 458.64 762.568 456.072 759.16 456.072C755.752 456.072 753.256 458.64 753.256 462.192ZM754.936 462.168C754.936 459.48 756.664 457.56 759.16 457.56C761.632 457.56 763.384 459.48 763.384 462.168C763.384 464.904 761.632 466.8 759.16 466.8C756.664 466.8 754.936 464.904 754.936 462.168ZM775.591 456.384V462.552C775.591 465.312 774.271 466.8 772.039 466.8C770.191 466.8 768.967 465.816 768.967 463.056V456.36H767.287V463.584C767.287 466.416 768.775 468.288 771.511 468.288C773.335 468.288 774.943 467.376 775.591 466.032L775.807 468H777.247V456.384H775.591ZM793.425 456.24C793.017 456.144 792.705 456.12 792.345 456.12C790.713 456.12 789.489 456.936 789.033 458.184L788.913 456.384H787.353V468H789.009V461.376C789.009 459.168 790.377 457.728 792.513 457.728H793.425V456.24ZM800.053 468.288C802.789 468.288 804.589 466.968 805.213 464.52H803.629C803.197 466.056 801.973 466.872 800.077 466.872C797.581 466.872 796.093 465.24 795.973 462.408H805.213V461.592C805.213 458.304 803.077 456.072 799.933 456.072C796.621 456.072 794.365 458.568 794.365 462.192C794.365 465.84 796.645 468.288 800.053 468.288ZM799.933 457.488C802.117 457.488 803.557 458.976 803.557 461.208H796.021C796.309 458.928 797.749 457.488 799.933 457.488ZM806.565 456.384V457.776H808.341V468H809.997V457.776H812.733V456.384H809.997V454.128C809.997 452.76 810.381 452.016 811.845 452.016H812.829V450.6C812.445 450.528 811.965 450.504 811.557 450.504C809.781 450.504 808.341 451.512 808.341 454.128V456.384H806.565ZM823.146 456.384V462.552C823.146 465.312 821.826 466.8 819.594 466.8C817.746 466.8 816.522 465.816 816.522 463.056V456.36H814.842V463.584C814.842 466.416 816.33 468.288 819.066 468.288C820.89 468.288 822.498 467.376 823.146 466.032L823.362 468H824.802V456.384H823.146ZM827.033 464.736C827.033 466.896 828.665 468.288 831.281 468.288C833.921 468.288 835.697 466.92 835.697 464.832C835.697 463.152 834.785 462.216 832.769 461.712L830.777 461.208C829.505 460.896 828.881 460.272 828.881 459.384C828.881 458.136 829.793 457.44 831.425 457.44C832.985 457.44 833.921 458.232 833.969 459.576H835.577C835.505 457.416 833.921 456.072 831.473 456.072C828.977 456.072 827.273 457.368 827.273 459.408C827.273 460.992 828.257 462.048 830.273 462.552L832.265 463.056C833.633 463.392 834.113 463.944 834.113 464.904C834.113 466.152 833.057 466.92 831.257 466.92C829.625 466.92 828.617 466.08 828.617 464.736H827.033ZM843.295 468.288C846.031 468.288 847.831 466.968 848.455 464.52H846.871C846.439 466.056 845.215 466.872 843.319 466.872C840.823 466.872 839.335 465.24 839.215 462.408H848.455V461.592C848.455 458.304 846.319 456.072 843.175 456.072C839.863 456.072 837.607 458.568 837.607 462.192C837.607 465.84 839.887 468.288 843.295 468.288ZM843.175 457.488C845.359 457.488 846.799 458.976 846.799 461.208H839.263C839.551 458.928 840.991 457.488 843.175 457.488ZM860.423 468V457.776H862.751V456.384H860.423V452.712H858.791V456.384H856.463V457.776H858.791V468H860.423ZM863.975 462.192C863.975 465.72 866.471 468.288 869.879 468.288C873.287 468.288 875.783 465.72 875.783 462.192C875.783 458.64 873.287 456.072 869.879 456.072C866.471 456.072 863.975 458.64 863.975 462.192ZM865.655 462.168C865.655 459.48 867.383 457.56 869.879 457.56C872.351 457.56 874.103 459.48 874.103 462.168C874.103 464.904 872.351 466.8 869.879 466.8C867.383 466.8 865.655 464.904 865.655 462.168ZM885.087 473.064H886.743V465.768C887.559 467.448 889.119 468.288 891.087 468.288C894.519 468.288 896.463 465.648 896.463 462.144C896.463 458.64 894.447 456.072 891.087 456.072C889.143 456.072 887.511 456.936 886.695 458.736L886.527 456.384H885.087V473.064ZM886.767 462.192C886.767 459.504 888.255 457.584 890.799 457.584C893.319 457.584 894.783 459.504 894.783 462.192C894.783 464.856 893.319 466.8 890.799 466.8C888.255 466.8 886.767 464.856 886.767 462.192ZM900.831 468V450.504H899.175V468H900.831ZM907.689 468.288C909.657 468.288 911.241 467.424 911.961 465.96L912.177 468H913.569V460.488C913.569 457.416 911.601 456.072 908.913 456.072C906.057 456.072 904.137 457.584 904.137 459.936H905.649C905.649 458.376 906.849 457.464 908.865 457.464C910.569 457.464 911.937 458.184 911.937 460.464V460.848L908.097 461.16C905.385 461.376 903.753 462.72 903.753 464.856C903.753 466.896 905.217 468.288 907.689 468.288ZM908.073 466.944C906.489 466.944 905.433 466.224 905.433 464.808C905.433 463.512 906.321 462.552 908.505 462.36L911.937 462.096V462.72C911.937 465.24 910.521 466.944 908.073 466.944ZM915.458 473.064C915.986 473.184 916.514 473.232 917.21 473.232C918.866 473.232 919.994 472.488 920.666 470.664L925.994 456.384H924.29L920.618 466.512L916.874 456.384H915.122L919.826 468.696L919.322 470.064C918.746 471.624 917.738 471.696 916.73 471.696H915.458V473.064ZM937.251 468V457.776H939.579V456.384H937.251V452.712H935.619V456.384H933.291V457.776H935.619V468H937.251ZM943.392 467.976V461.664C943.392 459.432 944.688 457.584 947.184 457.584C948.984 457.584 950.256 458.544 950.256 461.256V468H951.912V460.896C951.912 457.968 950.544 456.072 947.496 456.072C945.552 456.072 944.136 457.008 943.392 458.4V450.504H941.736V467.976H943.392ZM956.028 453.192C956.7 453.192 957.276 452.64 957.276 451.968C957.276 451.296 956.7 450.72 956.028 450.72C955.356 450.72 954.804 451.296 954.804 451.968C954.804 452.64 955.356 453.192 956.028 453.192ZM955.212 468H956.868V456.384H955.212V468ZM961.978 468V461.928C961.978 459.312 963.322 457.584 965.698 457.584C967.618 457.584 968.842 458.544 968.842 461.256V468H970.498V460.896C970.498 457.968 969.178 456.072 965.986 456.072C964.306 456.072 962.77 456.912 962.002 458.4L961.762 456.384H960.322V468H961.978ZM973.006 461.856C973.006 465.024 975.022 467.64 978.334 467.64C980.326 467.64 981.934 466.68 982.726 465.048V467.808C982.726 470.232 981.142 471.84 978.766 471.84C976.678 471.84 975.238 470.736 974.878 468.864H973.222C973.678 471.672 975.766 473.352 978.742 473.352C982.15 473.352 984.358 471.096 984.358 467.64V456.384H982.918L982.75 458.712C982.006 457.008 980.47 456.072 978.454 456.072C975.046 456.072 973.006 458.688 973.006 461.856ZM974.662 461.832C974.662 459.48 976.102 457.536 978.598 457.536C981.142 457.536 982.582 459.36 982.582 461.832C982.582 464.328 981.094 466.152 978.574 466.152C976.126 466.152 974.662 464.208 974.662 461.832ZM986.83 464.736C986.83 466.896 988.462 468.288 991.078 468.288C993.718 468.288 995.494 466.92 995.494 464.832C995.494 463.152 994.582 462.216 992.566 461.712L990.574 461.208C989.302 460.896 988.678 460.272 988.678 459.384C988.678 458.136 989.59 457.44 991.222 457.44C992.782 457.44 993.718 458.232 993.766 459.576H995.374C995.302 457.416 993.718 456.072 991.27 456.072C988.774 456.072 987.07 457.368 987.07 459.408C987.07 460.992 988.054 462.048 990.07 462.552L992.062 463.056C993.43 463.392 993.91 463.944 993.91 464.904C993.91 466.152 992.854 466.92 991.054 466.92C989.422 466.92 988.414 466.08 988.414 464.736H986.83ZM1003.89 464.736C1003.89 466.896 1005.52 468.288 1008.14 468.288C1010.78 468.288 1012.56 466.92 1012.56 464.832C1012.56 463.152 1011.64 462.216 1009.63 461.712L1007.64 461.208C1006.36 460.896 1005.74 460.272 1005.74 459.384C1005.74 458.136 1006.65 457.44 1008.28 457.44C1009.84 457.44 1010.78 458.232 1010.83 459.576H1012.44C1012.36 457.416 1010.78 456.072 1008.33 456.072C1005.84 456.072 1004.13 457.368 1004.13 459.408C1004.13 460.992 1005.12 462.048 1007.13 462.552L1009.12 463.056C1010.49 463.392 1010.97 463.944 1010.97 464.904C1010.97 466.152 1009.92 466.92 1008.12 466.92C1006.48 466.92 1005.48 466.08 1005.48 464.736H1003.89ZM1018.62 468.288C1020.59 468.288 1022.17 467.424 1022.89 465.96L1023.11 468H1024.5V460.488C1024.5 457.416 1022.53 456.072 1019.84 456.072C1016.99 456.072 1015.07 457.584 1015.07 459.936H1016.58C1016.58 458.376 1017.78 457.464 1019.79 457.464C1021.5 457.464 1022.87 458.184 1022.87 460.464V460.848L1019.03 461.16C1016.31 461.376 1014.68 462.72 1014.68 464.856C1014.68 466.896 1016.15 468.288 1018.62 468.288ZM1019 466.944C1017.42 466.944 1016.36 466.224 1016.36 464.808C1016.36 463.512 1017.25 462.552 1019.43 462.36L1022.87 462.096V462.72C1022.87 465.24 1021.45 466.944 1019 466.944ZM1026.43 456.384V457.776H1028.21V468H1029.86V457.776H1032.6V456.384H1029.86V454.128C1029.86 452.76 1030.25 452.016 1031.71 452.016H1032.7V450.6C1032.31 450.528 1031.83 450.504 1031.42 450.504C1029.65 450.504 1028.21 451.512 1028.21 454.128V456.384H1026.43ZM1039.37 468.288C1042.11 468.288 1043.91 466.968 1044.53 464.52H1042.95C1042.52 466.056 1041.29 466.872 1039.4 466.872C1036.9 466.872 1035.41 465.24 1035.29 462.408H1044.53V461.592C1044.53 458.304 1042.4 456.072 1039.25 456.072C1035.94 456.072 1033.69 458.568 1033.69 462.192C1033.69 465.84 1035.97 468.288 1039.37 468.288ZM1039.25 457.488C1041.44 457.488 1042.88 458.976 1042.88 461.208H1035.34C1035.63 458.928 1037.07 457.488 1039.25 457.488ZM1047.87 468.264C1048.69 468.264 1049.38 467.592 1049.38 466.8C1049.38 465.984 1048.69 465.288 1047.87 465.288C1047.05 465.288 1046.36 465.984 1046.36 466.8C1046.36 467.592 1047.05 468.264 1047.87 468.264Z" fill="black"/>
</svg>
