<svg width="1297" height="342" viewBox="0 0 1297 342" fill="none" xmlns="http://www.w3.org/2000/svg">
<path d="M173.314 11.1V88.3H185.014V11.1H213.514V5.2H144.814V11.1H173.314ZM252.86 24.5C248.06 24.5 243.76 25.3 239.96 27C229.06 32 226.76 66.1 226.76 66.1C224.06 53.9 225.26 41.1 230.26 29.5L230.66 28.5V1.43051e-06H219.26V88H230.66V55.6C230.66 42.9 237.46 34.7 250.56 34.7C263.16 34.7 269.16 40.6 269.16 53.1V88H280.56V51.8C280.56 33.8 270.76 24.5 252.86 24.5ZM326.435 24.5C307.135 24.5 288.635 36 288.635 56.6C288.635 69.6 296.335 79.4 307.935 84.7C314.135 87.4 321.235 88.8 329.135 88.8C339.535 88.8 351.235 86 358.935 78.6L351.335 71.2C345.835 76.3 338.635 78.8 329.635 78.8C322.235 78.8 315.935 77.2 311.035 73.7C302.335 67.6 300.835 59.6 301.435 54.1L307.435 56.7L363.735 57C363.735 57 364.435 48.3 358.935 40.1C351.735 29.1 339.235 24.5 326.435 24.5ZM302.335 52.2C303.935 40 315.035 34.2 326.435 34.2C337.735 34.2 349.035 40 350.635 52.2H302.335ZM445.783 80.8C439.083 80.8 435.983 76.6 435.983 70.2V30.4H453.983V25.1H435.983L436.083 24.5L435.883 11.4H426.983V25.1H413.883V30.4H424.583L426.883 29.1H428.483L424.583 40.9V69.1C424.583 81.8 431.783 88.8 444.483 88.8C449.183 88.8 454.583 87.4 458.283 84.4L454.683 77.8C452.283 79.8 449.283 80.8 445.783 80.8ZM497.293 24.5C492.493 24.5 488.193 25.3 484.393 27C473.493 32 471.193 66.1 471.193 66.1C468.493 53.9 469.693 41.1 474.693 29.5L475.093 28.5V1.43051e-06H463.693V88H475.093V55.6C475.093 42.9 481.893 34.7 494.993 34.7C507.593 34.7 513.593 40.6 513.593 53.1V88H524.993V51.8C524.993 33.8 515.193 24.5 497.293 24.5ZM547.768 11H536.368V17.3H547.768V11ZM551.668 85.2C549.368 83 548.068 80 548.068 76.9V25.2H536.668V78.4C536.668 81 537.568 83.5 539.168 85.5L541.268 88H554.868L551.668 85.2ZM594.757 24.9C589.957 24.9 585.657 25.6 581.857 27.4C570.957 32.4 568.657 66.5 568.657 66.5C565.957 54.3 567.157 41.5 572.157 29.9L572.557 28.9V25H561.157V88.4H572.557V56C572.557 43.3 579.357 35.1 592.457 35.1C605.057 35.1 611.057 41 611.057 53.5V88.4H622.457V52.2C622.457 34.2 612.757 24.9 594.757 24.9ZM659.267 45.1L679.767 25.1H673.867L643.467 52.4L637.467 63.5L642.367 38.6V1.43051e-06H630.967V88H642.367V61.2L652.567 51L682.367 88H693.067L668.367 56.8L659.267 45.1ZM726.63 24.5C707.33 24.5 688.83 36 688.83 56.6C688.83 69.6 696.53 79.4 708.13 84.7C714.33 87.4 721.43 88.8 729.33 88.8C739.73 88.8 751.43 86 759.13 78.6L751.53 71.2C746.03 76.3 738.83 78.8 729.83 78.8C722.43 78.8 716.13 77.2 711.23 73.7C702.53 67.6 701.03 59.6 701.63 54.1L707.63 56.7L763.93 57C763.93 57 764.63 48.3 759.13 40.1C751.93 29.1 739.43 24.5 726.63 24.5ZM702.53 52.2C704.13 40 715.23 34.2 726.63 34.2C737.93 34.2 749.23 40 750.83 52.2H702.53ZM793.282 27.4C782.382 32.4 780.082 66.5 780.082 66.5C777.382 54.3 778.582 41.5 783.582 29.9L783.982 28.9V25H772.582V88.4H783.982V56C783.982 43.3 790.782 35.1 803.882 35.1C804.682 35.1 817.682 35.1 818.482 35.2V24.9H806.182C801.382 24.9 797.082 25.6 793.282 27.4ZM867.582 55.1C864.482 54.1 853.082 53.2 848.082 52.3C844.282 51.6 841.282 51 839.182 50.4C837.082 49.9 835.382 49 833.882 47.8C832.182 46.4 831.482 44 831.882 41.8C832.182 39.6 833.682 37.8 835.582 36.7C838.182 35 841.282 34.5 844.282 34.3C849.382 34 854.382 35.2 859.182 36.8C863.582 38.2 868.282 39.8 872.182 42.3L876.282 33.2C869.282 28.7 857.382 25.6 849.282 24.8C843.182 24.1 837.182 24.6 831.682 27.3C826.982 29.6 822.682 33.3 821.182 38.4C819.682 43.4 820.282 49.8 823.982 53.7C826.282 56.2 828.982 57.9 832.182 59C835.382 60 839.582 60.9 844.582 61.7C848.282 62.3 858.482 62.9 860.482 63.4C862.482 63.9 864.182 64.7 865.582 65.9C867.282 67.3 868.182 70.1 867.082 72.2C864.782 77.4 852.982 78.9 848.282 79C843.082 79.1 837.582 78.3 832.482 76.8C829.182 75.8 825.982 74.4 823.082 72.5C821.482 71.5 820.082 70.2 818.482 69.1V80.6C826.282 86.8 836.782 88.6 846.482 88.8C850.482 88.9 854.482 88.8 858.482 88.1C866.782 86.8 876.182 82.7 878.382 73.8C879.682 69.3 878.882 63.7 875.582 60.2C873.382 57.8 870.782 56.1 867.582 55.1ZM968.504 24.2L962.704 24.3C950.804 24.5 940.404 29.3 934.504 36.5L943.904 41.2C947.804 36.2 955.004 32.7 963.204 32.6L967.204 32.5C977.804 32.3 986.404 38.6 986.404 46.5L988.904 59.3H988.704C985.304 56.2 981.304 51.1 975.104 49.4C972.204 48.6 968.904 48.1 965.604 48.1C956.804 48.3 948.404 50.4 942.004 54C935.004 57.9 931.204 63.2 931.204 68.8C931.204 74.4 935.004 79.6 941.904 83.2C948.204 86.6 956.604 88.4 965.504 88.3C973.604 88.1 979.504 82.6 987.704 74.9H988.604L986.304 87.9L998.104 87.7L998.304 46C998.304 33.6 985.004 23.9 968.504 24.2ZM986.304 70.3C983.904 75 974.904 78.7 964.504 78.9C952.304 79.1 942.004 74.4 942.004 68.6C942.104 62.8 952.404 57.8 964.504 57.6C975.004 57.4 984.004 60.8 986.404 65.4L986.304 70.3ZM1042.51 24.9C1037.71 24.9 1033.41 25.6 1029.61 27.4C1018.71 32.4 1016.41 66.5 1016.41 66.5C1013.71 54.3 1014.91 41.5 1019.91 29.9L1020.31 28.9V25H1008.91V88.4H1020.31V56C1020.31 43.3 1027.11 35.1 1040.21 35.1C1052.81 35.1 1058.81 41 1058.81 53.5V88.4H1070.21V52.2C1070.21 34.2 1060.51 24.9 1042.51 24.9ZM1136.88 30.7L1138.68 43.2C1138.38 42.9 1138.08 42.7 1137.78 42.4C1133.58 38.9 1129.88 30.3 1123.28 26.8C1120.38 25.3 1116.78 24.5 1113.48 24.5C1095.48 24.5 1077.78 37.2 1077.78 56.4C1077.78 75.6 1095.48 88.2 1113.48 88.2C1122.58 88.2 1127.98 84.7 1137.58 71.2L1139.18 71.3L1136.88 87.7H1148.08V1.6H1136.88V30.7ZM1136.88 63.9C1132.88 70.8 1123.78 75.7 1113.48 75.7C1099.68 75.7 1087.98 66.9 1087.98 56.4C1087.98 45.9 1099.68 37 1113.48 37C1123.78 37 1132.88 41.9 1136.88 48.8V63.9ZM59.1 156.7L60.9 169.2C60.6 168.9 60.3 168.7 60 168.4C55.8 164.9 52.1 156.3 45.5 152.8C42.6 151.3 39 150.5 35.7 150.5C17.7 150.5 3.72529e-08 163.2 3.72529e-08 182.4C3.72529e-08 201.6 17.7 214.2 35.7 214.2C44.8 214.2 50.2 210.7 59.8 197.2L61.4 197.3L59.1 213.7H70.3V127.6H59.1V156.7ZM59.1 189.9C55.1 196.8 46 201.7 35.7 201.7C21.9 201.7 10.2 192.9 10.2 182.4C10.2 171.9 21.9 163 35.7 163C46 163 55.1 167.9 59.1 174.8V189.9ZM115.192 150.5C102.392 150.5 90.8922 154.5 84.1922 166C81.3922 170.9 79.9922 176.4 79.9922 182.6C79.9922 194.5 85.3922 204.7 95.8922 210.6C100.892 213.4 108.892 214.8 115.192 214.8C128.192 214.8 139.192 210.6 146.092 199.2C148.892 194.3 150.292 188.8 150.292 182.6C150.292 176.4 148.892 170.9 146.092 166C139.192 154.5 128.192 150.5 115.192 150.5ZM128.492 202C125.292 203.9 119.192 204.8 115.192 204.8C106.092 204.8 98.9922 202.3 94.2922 194.2C92.3922 190.8 91.4922 186.9 91.4922 182.6C91.4922 174.6 94.8922 167.4 101.892 163.2C105.092 161.4 111.192 160.5 115.192 160.5C124.092 160.5 131.492 162.8 135.992 171C137.792 174.4 138.792 178.2 138.792 182.6C138.792 190.5 135.392 197.9 128.492 202ZM194.062 150.5C174.762 150.5 156.262 162 156.262 182.6C156.262 195.6 163.962 205.4 175.562 210.7C181.762 213.4 188.862 214.8 196.762 214.8C207.162 214.8 218.862 212 226.562 204.6L218.962 197.2C213.462 202.3 206.262 204.8 197.262 204.8C189.862 204.8 183.562 203.2 178.662 199.7C169.962 193.6 168.462 185.6 169.062 180.1L175.062 182.7L231.362 183C231.362 183 232.062 174.3 226.562 166.1C219.362 155.1 206.862 150.5 194.062 150.5ZM169.962 178.2C171.562 166 182.662 160.2 194.062 160.2C205.362 160.2 216.662 166 218.262 178.2H169.962ZM260.714 153.4C249.814 158.4 247.514 192.5 247.514 192.5C244.814 180.3 246.014 167.5 251.014 155.9L251.414 154.9V151H240.014V214.4H251.414V182C251.414 169.3 258.214 161.1 271.314 161.1C272.114 161.1 285.114 161.1 285.914 161.2V150.9H273.614C268.814 150.9 264.514 151.6 260.714 153.4ZM335.014 181.1C331.914 180.1 320.514 179.2 315.514 178.3C311.714 177.6 308.714 177 306.614 176.4C304.514 175.9 302.814 175 301.314 173.8C299.614 172.4 298.914 170 299.314 167.8C299.614 165.6 301.114 163.8 303.014 162.7C305.614 161 308.714 160.5 311.714 160.3C316.814 160 321.814 161.2 326.614 162.8C331.014 164.2 335.714 165.8 339.614 168.3L343.714 159.2C336.714 154.7 324.814 151.6 316.714 150.8C310.614 150.1 304.614 150.6 299.114 153.3C294.414 155.6 290.114 159.3 288.614 164.4C287.114 169.4 287.714 175.8 291.414 179.7C293.714 182.2 296.414 183.9 299.614 185C302.814 186 307.014 186.9 312.014 187.7C315.714 188.3 325.914 188.9 327.914 189.4C329.914 189.9 331.614 190.7 333.014 191.9C334.714 193.3 335.614 196.1 334.514 198.2C332.214 203.4 320.414 204.9 315.714 205C310.514 205.1 305.014 204.3 299.914 202.8C296.614 201.8 293.414 200.4 290.514 198.5C288.914 197.5 287.514 196.2 285.914 195.1V206.6C293.714 212.8 304.214 214.6 313.914 214.8C317.914 214.9 321.914 214.8 325.914 214.1C334.214 212.8 343.614 208.7 345.814 199.8C347.114 195.3 346.314 189.7 343.014 186.2C340.814 183.8 338.214 182.1 335.014 181.1ZM469.435 208.2L447.035 151.1H444.135L425.135 201.2V208.5L421.635 208.2L422.835 194.9L406.835 151.1H396.035L419.435 214H430.335L448.735 166.3L466.935 214H477.835L501.335 151.1H491.135L469.435 208.2ZM538.691 150.5C519.391 150.5 500.891 162 500.891 182.6C500.891 195.6 508.591 205.4 520.191 210.7C526.391 213.4 533.491 214.8 541.391 214.8C551.791 214.8 563.491 212 571.191 204.6L563.591 197.2C558.091 202.3 550.891 204.8 541.891 204.8C534.491 204.8 528.191 203.2 523.291 199.7C514.591 193.6 513.091 185.6 513.691 180.1L519.691 182.7L575.991 183C575.991 183 576.691 174.3 571.191 166.1C563.991 155.1 551.491 150.5 538.691 150.5ZM514.591 178.2C516.191 166 527.291 160.2 538.691 160.2C549.991 160.2 561.291 166 562.891 178.2H514.591ZM605.343 153.4C594.443 158.4 592.143 192.5 592.143 192.5C589.443 180.3 590.643 167.5 595.643 155.9L596.043 154.9V151H584.643V214.4H596.043V182C596.043 169.3 602.843 161.1 615.943 161.1C616.743 161.1 629.743 161.1 630.543 161.2V150.9H618.243C613.443 150.9 609.143 151.6 605.343 153.4ZM669.843 150.5C650.543 150.5 632.043 162 632.043 182.6C632.043 195.6 639.743 205.4 651.343 210.7C657.543 213.4 664.643 214.8 672.543 214.8C682.943 214.8 694.643 212 702.343 204.6L694.743 197.2C689.243 202.3 682.043 204.8 673.043 204.8C665.643 204.8 659.343 203.2 654.443 199.7C645.743 193.6 644.243 185.6 644.843 180.1L650.843 182.7L707.143 183C707.143 183 707.843 174.3 702.343 166.1C695.143 155.1 682.643 150.5 669.843 150.5ZM645.743 178.2C647.343 166 658.443 160.2 669.843 160.2C681.143 160.2 692.443 166 694.043 178.2H645.743ZM799.391 160.5C807.291 160.5 815.291 163.1 820.391 169.5L831.091 164C824.091 154 811.291 150.5 799.591 150.5C780.091 150.5 758.791 160.8 758.791 182.6C758.791 204.6 780.391 214.8 799.591 214.8C811.391 214.8 823.991 211.3 831.091 201.2L820.391 195.8C815.291 202.2 807.291 204.8 799.391 204.8C785.791 204.8 772.891 197.3 772.891 182.6C772.891 168 785.891 160.5 799.391 160.5ZM875.955 150.5C871.155 150.5 866.855 151.3 863.055 153C852.155 158 849.855 192.1 849.855 192.1C847.155 179.9 848.355 167.1 853.355 155.5L853.755 154.5V126H842.355V214H853.755V181.6C853.755 168.9 860.555 160.7 873.655 160.7C886.255 160.7 892.255 166.6 892.255 179.1V214H903.655V177.8C903.655 159.8 893.855 150.5 875.955 150.5ZM948.63 150.2L942.83 150.3C930.93 150.5 920.53 155.3 914.63 162.5L924.03 167.2C927.93 162.2 935.13 158.7 943.33 158.6L947.33 158.5C957.93 158.3 966.53 164.6 966.53 172.5L969.03 185.3H968.83C965.43 182.2 961.43 177.1 955.23 175.4C952.33 174.6 949.03 174.1 945.73 174.1C936.93 174.3 928.53 176.4 922.13 180C915.13 183.9 911.33 189.2 911.33 194.8C911.33 200.4 915.13 205.6 922.03 209.2C928.33 212.6 936.73 214.4 945.63 214.3C953.73 214.1 959.63 208.6 967.83 200.9H968.73L966.43 213.9L978.23 213.7L978.43 172C978.43 159.6 965.13 149.9 948.63 150.2ZM966.43 196.3C964.03 201 955.03 204.7 944.63 204.9C932.43 205.1 922.13 200.4 922.13 194.6C922.23 188.8 932.53 183.8 944.63 183.6C955.13 183.4 964.13 186.8 966.53 191.4L966.43 196.3ZM1022.64 150.9C1017.84 150.9 1013.54 151.6 1009.74 153.4C998.838 158.4 996.538 192.5 996.538 192.5C993.838 180.3 995.038 167.5 1000.04 155.9L1000.44 154.9V151H989.038V214.4H1000.44V182C1000.44 169.3 1007.24 161.1 1020.34 161.1C1032.94 161.1 1038.94 167 1038.94 179.5V214.4H1050.34V178.2C1050.34 160.2 1040.64 150.9 1022.64 150.9ZM1113.11 166V166.4C1109.51 162.9 1106.21 155.7 1100.41 152.7C1097.71 151.2 1094.51 150.5 1091.31 150.5C1074.71 150.5 1058.41 162.3 1058.41 179.9C1058.41 197.6 1074.61 209.3 1091.31 209.3C1099.61 209.3 1104.51 207 1113.01 195.4V206.7C1113.01 221.3 1105.91 227.9 1091.41 227.9C1083.11 227.9 1073.61 225.2 1067.21 219.7L1061.71 228.5C1069.41 235.3 1081.81 237.9 1091.81 237.9C1113.51 237.9 1124.41 227.4 1124.41 205.6V151.2H1110.41L1113.11 166ZM1113.11 186.7C1109.51 193.1 1101.01 197.8 1091.31 197.8C1078.61 197.8 1067.81 189.6 1067.81 179.9C1067.81 170.2 1078.61 162 1091.31 162C1101.01 162 1109.51 166.7 1113.11 173.3V186.7ZM1147.72 137H1136.32V143.3H1147.72V137ZM1151.62 211.2C1149.32 209 1148.02 206 1148.02 202.9V151.2H1136.62V204.4C1136.62 207 1137.52 209.5 1139.12 211.5L1141.22 214H1154.82L1151.62 211.2ZM1194.71 150.9C1189.91 150.9 1185.61 151.6 1181.81 153.4C1170.91 158.4 1168.61 192.5 1168.61 192.5C1165.91 180.3 1167.11 167.5 1172.11 155.9L1172.51 154.9V151H1161.11V214.4H1172.51V182C1172.51 169.3 1179.31 161.1 1192.41 161.1C1205.01 161.1 1211.01 167 1211.01 179.5V214.4H1222.41V178.2C1222.41 160.2 1212.71 150.9 1194.71 150.9ZM1285.18 166V166.4C1281.58 162.9 1278.28 155.7 1272.48 152.7C1269.78 151.2 1266.58 150.5 1263.38 150.5C1246.78 150.5 1230.48 162.3 1230.48 179.9C1230.48 197.6 1246.68 209.3 1263.38 209.3C1271.68 209.3 1276.58 207 1285.08 195.4V206.7C1285.08 221.3 1277.98 227.9 1263.48 227.9C1255.18 227.9 1245.68 225.2 1239.28 219.7L1233.78 228.5C1241.48 235.3 1253.88 237.9 1263.88 237.9C1285.58 237.9 1296.48 227.4 1296.48 205.6V151.2H1282.48L1285.18 166ZM1285.18 186.7C1281.58 193.1 1273.08 197.8 1263.38 197.8C1250.68 197.8 1239.88 189.6 1239.88 179.9C1239.88 170.2 1250.68 162 1263.38 162C1273.08 162 1281.58 166.7 1285.18 173.3V186.7ZM77.1309 332.8C70.4309 332.8 67.3309 328.6 67.3309 322.2V282.4H85.3309V277.1H67.3309L67.4309 276.5L67.2309 263.4H58.3309V277.1H45.2309V282.4H55.9309L58.2309 281.1H59.8309L55.9309 292.9V321.1C55.9309 333.8 63.1309 340.8 75.8309 340.8C80.5309 340.8 85.9309 339.4 89.6309 336.4L86.0309 329.8C83.6309 331.8 80.6309 332.8 77.1309 332.8ZM128.641 276.5C123.841 276.5 119.541 277.3 115.741 279C104.841 284 102.541 318.1 102.541 318.1C99.841 305.9 101.041 293.1 106.041 281.5L106.441 280.5V252H95.041V340H106.441V307.6C106.441 294.9 113.241 286.7 126.341 286.7C138.941 286.7 144.941 292.6 144.941 305.1V340H156.341V303.8C156.341 285.8 146.541 276.5 128.641 276.5ZM202.216 276.5C182.916 276.5 164.416 288 164.416 308.6C164.416 321.6 172.116 331.4 183.716 336.7C189.916 339.4 197.016 340.8 204.916 340.8C215.316 340.8 227.016 338 234.716 330.6L227.116 323.2C221.616 328.3 214.416 330.8 205.416 330.8C198.016 330.8 191.716 329.2 186.816 325.7C178.116 319.6 176.616 311.6 177.216 306.1L183.216 308.7L239.516 309C239.516 309 240.216 300.3 234.716 292.1C227.516 281.1 215.016 276.5 202.216 276.5ZM178.116 304.2C179.716 292 190.816 286.2 202.216 286.2C213.516 286.2 224.816 292 226.416 304.2H178.116ZM339.164 307.1C336.064 306.1 324.664 305.2 319.664 304.3C315.864 303.6 312.864 303 310.764 302.4C308.664 301.9 306.964 301 305.464 299.8C303.764 298.4 303.064 296 303.464 293.8C303.764 291.6 305.264 289.8 307.164 288.7C309.764 287 312.864 286.5 315.864 286.3C320.964 286 325.964 287.2 330.764 288.8C335.164 290.2 339.864 291.8 343.764 294.3L347.864 285.2C340.864 280.7 328.964 277.6 320.864 276.8C314.764 276.1 308.764 276.6 303.264 279.3C298.564 281.6 294.264 285.3 292.764 290.4C291.264 295.4 291.864 301.8 295.564 305.7C297.864 308.2 300.564 309.9 303.764 311C306.964 312 311.164 312.9 316.164 313.7C319.864 314.3 330.064 314.9 332.064 315.4C334.064 315.9 335.764 316.7 337.164 317.9C338.864 319.3 339.764 322.1 338.664 324.2C336.364 329.4 324.564 330.9 319.864 331C314.664 331.1 309.164 330.3 304.064 328.8C300.764 327.8 297.564 326.4 294.664 324.5C293.064 323.5 291.664 322.2 290.064 321.1V332.6C297.864 338.8 308.364 340.6 318.064 340.8C322.064 340.9 326.064 340.8 330.064 340.1C338.364 338.8 347.764 334.7 349.964 325.8C351.264 321.3 350.464 315.7 347.164 312.2C344.964 309.8 342.364 308.1 339.164 307.1ZM387.189 332.8C380.489 332.8 377.389 328.6 377.389 322.2V282.4H395.389V277.1H377.389L377.489 276.5L377.289 263.4H368.389V277.1H355.289V282.4H365.989L368.289 281.1H369.889L365.989 292.9V321.1C365.989 333.8 373.189 340.8 385.889 340.8C390.589 340.8 395.989 339.4 399.689 336.4L396.089 329.8C393.689 331.8 390.689 332.8 387.189 332.8ZM443.113 276.2L437.313 276.3C425.413 276.5 415.013 281.3 409.113 288.5L418.513 293.2C422.413 288.2 429.613 284.7 437.813 284.6L441.813 284.5C452.413 284.3 461.013 290.6 461.013 298.5L463.513 311.3H463.313C459.913 308.2 455.913 303.1 449.713 301.4C446.813 300.6 443.513 300.1 440.213 300.1C431.413 300.3 423.013 302.4 416.613 306C409.613 309.9 405.813 315.2 405.813 320.8C405.813 326.4 409.613 331.6 416.513 335.2C422.813 338.6 431.213 340.4 440.113 340.3C448.213 340.1 454.113 334.6 462.313 326.9H463.213L460.913 339.9L472.713 339.7L472.913 298C472.913 285.6 459.613 275.9 443.113 276.2ZM460.913 322.3C458.513 327 449.513 330.7 439.113 330.9C426.913 331.1 416.613 326.4 416.613 320.6C416.713 314.8 427.013 309.8 439.113 309.6C449.613 309.4 458.613 312.8 461.013 317.4L460.913 322.3ZM510.92 332.8C504.22 332.8 501.12 328.6 501.12 322.2V282.4H519.12V277.1H501.12L501.22 276.5L501.02 263.4H492.12V277.1H479.02V282.4H489.72L492.02 281.1H493.62L489.72 292.9V321.1C489.72 333.8 496.92 340.8 509.62 340.8C514.32 340.8 519.72 339.4 523.42 336.4L519.82 329.8C517.42 331.8 514.42 332.8 510.92 332.8ZM593.343 326.6V276.9H581.943V309.3C581.943 322.1 575.143 330.2 562.043 330.2C549.443 330.2 543.443 324.4 543.443 311.8V276.9H532.043V313.1C532.043 331 541.943 340.4 559.743 340.4C564.543 340.4 568.843 339.7 572.643 337.9C583.543 332.9 585.843 298.8 585.843 298.8C588.543 311.1 587.343 323.8 582.443 335.4L581.943 336.4C581.943 338.6 583.743 340.3 585.943 340.3H600.443C596.043 337.2 593.343 332.1 593.343 326.6ZM653.032 307.1C649.932 306.1 638.532 305.2 633.532 304.3C629.732 303.6 626.732 303 624.632 302.4C622.532 301.9 620.832 301 619.332 299.8C617.632 298.4 616.932 296 617.332 293.8C617.632 291.6 619.132 289.8 621.032 288.7C623.632 287 626.732 286.5 629.732 286.3C634.832 286 639.832 287.2 644.632 288.8C649.032 290.2 653.732 291.8 657.632 294.3L661.732 285.2C654.732 280.7 642.832 277.6 634.732 276.8C628.632 276.1 622.632 276.6 617.132 279.3C612.432 281.6 608.132 285.3 606.632 290.4C605.132 295.4 605.732 301.8 609.432 305.7C611.732 308.2 614.432 309.9 617.632 311C620.832 312 625.032 312.9 630.032 313.7C633.732 314.3 643.932 314.9 645.932 315.4C647.932 315.9 649.632 316.7 651.032 317.9C652.732 319.3 653.632 322.1 652.532 324.2C650.232 329.4 638.432 330.9 633.732 331C628.532 331.1 623.032 330.3 617.932 328.8C614.632 327.8 611.432 326.4 608.532 324.5C606.932 323.5 605.532 322.2 603.932 321.1V332.6C611.732 338.8 622.232 340.6 631.932 340.8C635.932 340.9 639.932 340.8 643.932 340.1C652.232 338.8 661.632 334.7 663.832 325.8C665.132 321.3 664.332 315.7 661.032 312.2C658.832 309.8 656.232 308.1 653.032 307.1ZM807.753 298.7C807.753 283.2 800.153 269.5 786.453 262C779.753 258.3 770.653 256.5 762.353 256.5C737.253 256.5 717.553 273.3 717.553 298.7C717.553 324.7 737.753 341 762.353 341C770.653 341 779.753 339.2 786.453 335.5C786.453 335.5 786.553 335.4 786.653 335.4L798.853 341.1L801.253 336.2L791.953 331.8C802.453 323.9 807.753 311.7 807.753 298.7ZM775.853 330.3C771.553 331.3 766.753 331.8 762.553 331.8C748.353 331.8 736.853 327.6 728.753 315.5C725.553 310.7 723.853 305.3 723.853 299.3C723.853 286.9 731.353 277.1 742.153 271.8C747.853 269.1 755.553 267.7 762.553 267.7C776.153 267.7 789.253 271.4 797.153 283.2C800.453 288 802.053 293.4 802.053 299.3C802.053 305.3 800.453 310.7 797.153 315.5C793.953 320.3 789.553 324.9 783.953 327.7C783.753 327.7 783.653 327.8 783.453 327.8L765.853 319.6L763.553 324.5L775.853 330.3ZM877.816 326.6V276.9H866.416V309.3C866.416 322.1 859.616 330.2 846.516 330.2C833.916 330.2 827.916 324.4 827.916 311.8V276.9H816.516V313.1C816.516 331 826.416 340.4 844.216 340.4C849.016 340.4 853.316 339.7 857.116 337.9C868.016 332.9 870.316 298.8 870.316 298.8C873.016 311.1 871.816 323.8 866.916 335.4L866.416 336.4C866.416 338.6 868.216 340.3 870.416 340.3H884.916C880.516 337.2 877.816 332.1 877.816 326.6ZM924.03 276.5C911.23 276.5 899.73 280.5 893.03 292C890.23 296.9 888.83 302.4 888.83 308.6C888.83 320.5 894.23 330.7 904.73 336.6C909.73 339.4 917.73 340.8 924.03 340.8C937.03 340.8 948.03 336.6 954.93 325.2C957.73 320.3 959.13 314.8 959.13 308.6C959.13 302.4 957.73 296.9 954.93 292C948.03 280.5 937.03 276.5 924.03 276.5ZM937.33 328C934.13 329.9 928.03 330.8 924.03 330.8C914.93 330.8 907.83 328.3 903.13 320.2C901.23 316.8 900.33 312.9 900.33 308.6C900.33 300.6 903.73 293.4 910.73 289.2C913.93 287.4 920.03 286.5 924.03 286.5C932.93 286.5 940.33 288.8 944.83 297C946.63 300.4 947.63 304.2 947.63 308.6C947.63 316.5 944.23 323.9 937.33 328ZM1081.5 334.2L1059.1 277.1H1056.2L1037.2 327.2V334.5L1033.7 334.2L1034.9 320.9L1018.9 277.1H1008.1L1031.5 340H1042.4L1060.8 292.3L1079 340H1089.9L1113.4 277.1H1103.2L1081.5 334.2ZM1131.07 263H1119.67V269.3H1131.07V263ZM1134.97 337.2C1132.67 335 1131.37 332 1131.37 328.9V277.2H1119.97V330.4C1119.97 333 1120.87 335.5 1122.47 337.5L1124.57 340H1138.17L1134.97 337.2ZM1171.17 332.8C1164.47 332.8 1161.37 328.6 1161.37 322.2V282.4H1179.37V277.1H1161.37L1161.47 276.5L1161.27 263.4H1152.37V277.1H1139.27V282.4H1149.97L1152.27 281.1H1153.87L1149.97 292.9V321.1C1149.97 333.8 1157.17 340.8 1169.87 340.8C1174.57 340.8 1179.97 339.4 1183.67 336.4L1180.07 329.8C1177.67 331.8 1174.67 332.8 1171.17 332.8ZM1222.68 276.5C1217.88 276.5 1213.58 277.3 1209.78 279C1198.88 284 1196.58 318.1 1196.58 318.1C1193.88 305.9 1195.08 293.1 1200.08 281.5L1200.48 280.5V252H1189.08V340H1200.48V307.6C1200.48 294.9 1207.28 286.7 1220.38 286.7C1232.98 286.7 1238.98 292.6 1238.98 305.1V340H1250.38V303.8C1250.38 285.8 1240.58 276.5 1222.68 276.5Z" fill="black"/>
</svg>
