<svg width="870" height="236" viewBox="0 0 870 236" fill="none" xmlns="http://www.w3.org/2000/svg">
<path d="M45.0339 204.3H336.4L0.0641632 218.7H371.064L183.066 234.3" stroke="#FFC250" stroke-width="3"/>
<rect x="607.064" y="12.3" width="262" height="92" rx="46" fill="#D7EEDD"/>
<path d="M143.164 8.50005L109.864 84.7L89.6642 39.2L103.064 8.50005H91.2642L83.6642 25.8L75.8642 8.50005H70.2642L80.7642 32.4L57.9642 84.7L24.0642 8.50005H18.3642L54.9642 91.5H66.6642L86.6642 45.9L106.764 91.5H118.564L154.964 8.50005H143.164ZM194.176 24.5C189.376 24.5 185.076 25.3 181.276 27C170.376 32 168.076 66.1 168.076 66.1C165.376 53.9 166.576 41.1 171.576 29.5L171.976 28.5V4.72069e-05H160.576V88H171.976V55.6C171.976 42.9 178.776 34.7 191.876 34.7C204.476 34.7 210.476 40.6 210.476 53.1V88H221.876V51.8C221.876 33.8 212.076 24.5 194.176 24.5ZM266.851 24.2L261.051 24.3C249.151 24.5 238.751 29.3 232.851 36.5L242.251 41.2C246.151 36.2 253.351 32.7 261.551 32.6L265.551 32.5C276.151 32.3 284.751 38.6 284.751 46.5L287.251 59.3H287.051C283.651 56.2 279.651 51.1 273.451 49.4C270.551 48.6 267.251 48.1 263.951 48.1C255.151 48.3 246.751 50.4 240.351 54C233.351 57.9 229.551 63.2 229.551 68.8C229.551 74.4 233.351 79.6 240.251 83.2C246.551 86.6 254.951 88.4 263.851 88.3C271.951 88.1 277.851 82.6 286.051 74.9H286.951L284.651 87.9L296.451 87.7L296.651 46C296.651 33.6 283.351 23.9 266.851 24.2ZM284.651 70.3C282.251 75 273.251 78.7 262.851 78.9C250.651 79.1 240.351 74.4 240.351 68.6C240.451 62.8 250.751 57.8 262.851 57.6C273.351 57.4 282.351 60.8 284.751 65.4L284.651 70.3ZM334.658 80.8C327.958 80.8 324.858 76.6 324.858 70.2V30.4H342.858V25.1H324.858L324.958 24.5L324.758 11.4H315.858V25.1H302.758V30.4H313.458L315.758 29.1H317.358L313.458 40.9V69.1C313.458 81.8 320.658 88.8 333.358 88.8C338.058 88.8 343.458 87.4 347.158 84.4L343.558 77.8C341.158 79.8 338.158 80.8 334.658 80.8ZM470.077 82.2L447.677 25.1H444.777L425.777 75.2V82.5L422.277 82.2L423.477 68.9L407.477 25.1H396.677L420.077 88H430.977L449.377 40.3L467.577 88H478.477L501.977 25.1H491.777L470.077 82.2ZM539.333 24.5C520.033 24.5 501.533 36 501.533 56.6C501.533 69.6 509.233 79.4 520.833 84.7C527.033 87.4 534.133 88.8 542.033 88.8C552.433 88.8 564.133 86 571.833 78.6L564.233 71.2C558.733 76.3 551.533 78.8 542.533 78.8C535.133 78.8 528.833 77.2 523.933 73.7C515.233 67.6 513.733 59.6 514.333 54.1L520.333 56.7L576.633 57C576.633 57 577.333 48.3 571.833 40.1C564.633 29.1 552.133 24.5 539.333 24.5ZM515.233 52.2C516.833 40 527.933 34.2 539.333 34.2C550.633 34.2 561.933 40 563.533 52.2H515.233ZM668.881 34.5C676.781 34.5 684.781 37.1 689.881 43.5L700.581 38C693.581 28 680.781 24.5 669.081 24.5C649.581 24.5 628.281 34.8 628.281 56.6C628.281 78.6 649.881 88.8 669.081 88.8C680.881 88.8 693.481 85.3 700.581 75.2L689.881 69.8C684.781 76.2 676.781 78.8 668.881 78.8C655.281 78.8 642.381 71.3 642.381 56.6C642.381 42 655.381 34.5 668.881 34.5ZM741.558 24.2L735.758 24.3C723.858 24.5 713.458 29.3 707.558 36.5L716.958 41.2C720.858 36.2 728.058 32.7 736.258 32.6L740.258 32.5C750.858 32.3 759.458 38.6 759.458 46.5L761.958 59.3H761.758C758.358 56.2 754.358 51.1 748.158 49.4C745.258 48.6 741.958 48.1 738.658 48.1C729.858 48.3 721.458 50.4 715.058 54C708.058 57.9 704.258 63.2 704.258 68.8C704.258 74.4 708.058 79.6 714.958 83.2C721.258 86.6 729.658 88.4 738.558 88.3C746.658 88.1 752.558 82.6 760.758 74.9H761.658L759.358 87.9L771.158 87.7L771.358 46C771.358 33.6 758.058 23.9 741.558 24.2ZM759.358 70.3C756.958 75 747.958 78.7 737.558 78.9C725.358 79.1 715.058 74.4 715.058 68.6C715.158 62.8 725.458 57.8 737.558 57.6C748.058 57.4 757.058 60.8 759.458 65.4L759.358 70.3ZM815.565 24.9C810.765 24.9 806.465 25.6 802.665 27.4C791.765 32.4 789.465 66.5 789.465 66.5C786.765 54.3 787.965 41.5 792.965 29.9L793.365 28.9V25H781.965V88.4H793.365V56C793.365 43.3 800.165 35.1 813.265 35.1C825.865 35.1 831.865 41 831.865 53.5V88.4H843.265V52.2C843.265 34.2 833.565 24.9 815.565 24.9ZM56.2642 140.5C43.4642 140.5 31.9642 144.5 25.2642 156C22.4642 160.9 21.0642 166.4 21.0642 172.6C21.0642 184.5 26.4642 194.7 36.9642 200.6C41.9642 203.4 49.9642 204.8 56.2642 204.8C69.2642 204.8 80.2642 200.6 87.1642 189.2C89.9642 184.3 91.3642 178.8 91.3642 172.6C91.3642 166.4 89.9642 160.9 87.1642 156C80.2642 144.5 69.2642 140.5 56.2642 140.5ZM69.5642 192C66.3642 193.9 60.2642 194.8 56.2642 194.8C47.1642 194.8 40.0642 192.3 35.3642 184.2C33.4642 180.8 32.5642 176.9 32.5642 172.6C32.5642 164.6 35.9642 157.4 42.9642 153.2C46.1642 151.4 52.2642 150.5 56.2642 150.5C65.1642 150.5 72.5642 152.8 77.0642 161C78.8642 164.4 79.8642 168.2 79.8642 172.6C79.8642 180.5 76.4642 187.9 69.5642 192ZM127.834 115.3C121.234 115.3 116.134 117.1 112.334 120.8C106.834 126.5 107.134 135.6 112.734 141.2L113.934 142.3L114.134 145.3L107.034 141.1H96.3337V146.5H107.034V204H118.434V146.5H136.434V141.1H118.134V135.7C118.134 128.3 121.534 124.6 128.434 124.6C131.634 124.6 134.534 125.6 137.134 127.6L140.634 118.9C136.834 116.3 132.434 115.3 127.834 115.3ZM170.998 115.3C164.398 115.3 159.298 117.1 155.498 120.8C149.998 126.5 150.298 135.6 155.898 141.2L157.098 142.3L157.298 145.3L150.198 141.1H139.498V146.5H150.198V204H161.598V146.5H179.598V141.1H161.298V135.7C161.298 128.3 164.698 124.6 171.598 124.6C174.798 124.6 177.698 125.6 180.298 127.6L183.798 118.9C179.998 116.3 175.598 115.3 170.998 115.3ZM215.309 140.5C196.009 140.5 177.509 152 177.509 172.6C177.509 185.6 185.209 195.4 196.809 200.7C203.009 203.4 210.109 204.8 218.009 204.8C228.409 204.8 240.109 202 247.809 194.6L240.209 187.2C234.709 192.3 227.509 194.8 218.509 194.8C211.109 194.8 204.809 193.2 199.909 189.7C191.209 183.6 189.709 175.6 190.309 170.1L196.309 172.7L252.609 173C252.609 173 253.309 164.3 247.809 156.1C240.609 145.1 228.109 140.5 215.309 140.5ZM191.209 168.2C192.809 156 203.909 150.2 215.309 150.2C226.609 150.2 237.909 156 239.509 168.2H191.209ZM281.962 143.4C271.062 148.4 268.762 182.5 268.762 182.5C266.062 170.3 267.262 157.5 272.262 145.9L272.662 144.9V141H261.262V204.4H272.662V172C272.662 159.3 279.462 151.1 292.562 151.1C293.362 151.1 306.362 151.1 307.162 151.2V140.9H294.862C290.062 140.9 285.762 141.6 281.962 143.4ZM387.858 191.5L365.858 141.1H359.758L383.158 194.1L389.558 197.4V199.5L383.558 200.4L379.758 208.3C378.258 211.9 376.558 214.4 374.758 215.9C372.858 217.3 370.558 218.1 367.758 218.1C363.558 218.1 359.758 216.5 356.558 213.4L351.658 222C355.658 226 362.258 227.8 367.758 227.8C379.758 227.8 385.858 220.8 390.258 210.3L420.758 141.1H409.558L387.858 191.5ZM455.581 140.5C442.781 140.5 431.281 144.5 424.581 156C421.781 160.9 420.381 166.4 420.381 172.6C420.381 184.5 425.781 194.7 436.281 200.6C441.281 203.4 449.281 204.8 455.581 204.8C468.581 204.8 479.581 200.6 486.481 189.2C489.281 184.3 490.681 178.8 490.681 172.6C490.681 166.4 489.281 160.9 486.481 156C479.581 144.5 468.581 140.5 455.581 140.5ZM468.881 192C465.681 193.9 459.581 194.8 455.581 194.8C446.481 194.8 439.381 192.3 434.681 184.2C432.781 180.8 431.881 176.9 431.881 172.6C431.881 164.6 435.281 157.4 442.281 153.2C445.481 151.4 451.581 150.5 455.581 150.5C464.481 150.5 471.881 152.8 476.381 161C478.181 164.4 479.181 168.2 479.181 172.6C479.181 180.5 475.781 187.9 468.881 192ZM560.05 190.6V140.9H548.65V173.3C548.65 186.1 541.85 194.2 528.75 194.2C516.15 194.2 510.15 188.4 510.15 175.8V140.9H498.75V177.1C498.75 195 508.65 204.4 526.45 204.4C531.25 204.4 535.55 203.7 539.35 201.9C550.25 196.9 552.55 162.8 552.55 162.8C555.25 175.1 554.05 187.8 549.15 199.4L548.65 200.4C548.65 202.6 550.45 204.3 552.65 204.3H567.15C562.75 201.2 560.05 196.1 560.05 190.6ZM588.452 186.7L590.952 123.2H578.252L581.552 186.7H588.452ZM584.652 192.5C581.452 192.5 578.752 195.1 578.752 198.4C578.752 201.7 581.452 204.3 584.652 204.3C587.952 204.3 590.552 201.7 590.552 198.4C590.552 195.1 587.952 192.5 584.652 192.5Z" fill="black"/>
</svg>
