<svg width="873" height="64" viewBox="0 0 873 64" fill="none" xmlns="http://www.w3.org/2000/svg">
<path d="M22.96 3.30409H1.60933e-05V49.8401H6.66402V35.7281H22.96C33.32 35.7281 42.392 31.0241 42.392 19.5441C42.392 8.06409 33.376 3.30409 22.96 3.30409ZM24.304 32.4801H6.66402V9.07209H24.304C32.032 9.07209 38.36 12.2081 38.36 20.7761C38.36 29.3441 32.032 32.4801 24.304 32.4801ZM53.9582 6.55208H47.5742V10.0801H53.9582V6.55208ZM56.1422 48.1041C54.8542 46.8721 54.1262 45.1921 54.1262 43.4561V14.5041H47.7422V44.2961C47.7422 45.7521 48.2462 47.1521 49.1422 48.2721L50.3182 49.6721H57.9342L56.1422 48.1041ZM66.9086 40.0401V0.392087H60.5246V40.7681C60.5246 44.3521 62.3726 47.7121 65.3966 49.6721H73.0126L72.2846 49.2801C68.9806 47.3761 66.9086 43.8481 66.9086 40.0401ZM92.1804 14.1121C85.0124 14.1121 78.5724 16.3521 74.8204 22.7921C73.2524 25.5361 72.4684 28.6161 72.4684 32.0881C72.4684 38.7521 75.4924 44.4641 81.3724 47.7681C84.1724 49.3361 88.6524 50.1201 92.1804 50.1201C99.4604 50.1201 105.62 47.7681 109.484 41.3841C111.052 38.6401 111.836 35.5601 111.836 32.0881C111.836 28.6161 111.052 25.5361 109.484 22.7921C105.62 16.3521 99.4604 14.1121 92.1804 14.1121ZM99.6284 42.9521C97.8364 44.0161 94.4204 44.5201 92.1804 44.5201C87.0844 44.5201 83.1084 43.1201 80.4764 38.5841C79.4124 36.6801 78.9084 34.4961 78.9084 32.0881C78.9084 27.6081 80.8124 23.5761 84.7324 21.2241C86.5244 20.2161 89.9404 19.7121 92.1804 19.7121C97.1644 19.7121 101.308 21.0001 103.828 25.5921C104.836 27.4961 105.396 29.6241 105.396 32.0881C105.396 36.5121 103.492 40.6561 99.6284 42.9521ZM131.979 45.6401C128.227 45.6401 126.491 43.2881 126.491 39.7041V17.4161H136.571V14.4481H126.491L126.547 14.1121L126.435 6.77608H121.451V14.4481H114.115V17.4161H120.107L121.395 16.6881H122.291L120.107 23.2961V39.0881C120.107 46.2001 124.139 50.1201 131.251 50.1201C133.883 50.1201 136.907 49.3361 138.979 47.6561L136.963 43.9601C135.619 45.0801 133.939 45.6401 131.979 45.6401ZM148.841 6.55208H142.457V10.0801H148.841V6.55208ZM151.025 48.1041C149.737 46.8721 149.009 45.1921 149.009 43.4561V14.5041H142.625V44.2961C142.625 45.7521 143.129 47.1521 144.025 48.2721L145.201 49.6721H152.817L151.025 48.1041ZM175.154 14.3361C172.466 14.3361 170.058 14.7281 167.93 15.7361C161.826 18.5361 160.538 37.6321 160.538 37.6321C159.026 30.8001 159.698 23.6321 162.498 17.1361L162.722 16.5761V14.3921H156.338V49.8961H162.722V31.7521C162.722 24.6401 166.53 20.0481 173.866 20.0481C180.922 20.0481 184.282 23.3521 184.282 30.3521V49.8961H190.666V29.6241C190.666 19.5441 185.234 14.3361 175.154 14.3361ZM225.819 22.7921V23.0161C223.803 21.0561 221.955 17.0241 218.707 15.3441C217.195 14.5041 215.403 14.1121 213.611 14.1121C204.315 14.1121 195.187 20.7201 195.187 30.5761C195.187 40.4881 204.259 47.0401 213.611 47.0401C218.259 47.0401 221.003 45.7521 225.763 39.2561V45.5841C225.763 53.7601 221.787 57.4561 213.667 57.4561C209.019 57.4561 203.699 55.9441 200.115 52.8641L197.035 57.7921C201.347 61.6001 208.291 63.0561 213.891 63.0561C226.043 63.0561 232.147 57.1761 232.147 44.9681V14.5041H224.307L225.819 22.7921ZM225.819 34.3841C223.803 37.9681 219.043 40.6001 213.611 40.6001C206.499 40.6001 200.451 36.0081 200.451 30.5761C200.451 25.1441 206.499 20.5521 213.611 20.5521C219.043 20.5521 223.803 23.1841 225.819 26.8801V34.3841ZM295.542 17.5841L296.55 24.5841C296.382 24.4161 296.214 24.3041 296.046 24.1361C293.694 22.1761 291.622 17.3601 287.926 15.4001C286.302 14.5601 284.286 14.1121 282.438 14.1121C272.358 14.1121 262.446 21.2241 262.446 31.9761C262.446 42.7281 272.358 49.7841 282.438 49.7841C287.534 49.7841 290.558 47.8241 295.934 40.2641L296.83 40.3201L295.542 49.5041H301.814V1.28809H295.542V17.5841ZM295.542 36.1761C293.302 40.0401 288.206 42.7841 282.438 42.7841C274.71 42.7841 268.158 37.8561 268.158 31.9761C268.158 26.0961 274.71 21.1121 282.438 21.1121C288.206 21.1121 293.302 23.8561 295.542 27.7201V36.1761ZM315.474 6.55208H309.09V10.0801H315.474V6.55208ZM317.658 48.1041C316.37 46.8721 315.642 45.1921 315.642 43.4561V14.5041H309.258V44.2961C309.258 45.7521 309.762 47.1521 310.658 48.2721L311.834 49.6721H319.45L317.658 48.1041ZM352.968 22.7921V23.0161C350.952 21.0561 349.104 17.0241 345.856 15.3441C344.344 14.5041 342.552 14.1121 340.76 14.1121C331.464 14.1121 322.336 20.7201 322.336 30.5761C322.336 40.4881 331.408 47.0401 340.76 47.0401C345.408 47.0401 348.152 45.7521 352.912 39.2561V45.5841C352.912 53.7601 348.936 57.4561 340.816 57.4561C336.168 57.4561 330.848 55.9441 327.264 52.8641L324.184 57.7921C328.496 61.6001 335.44 63.0561 341.04 63.0561C353.192 63.0561 359.296 57.1761 359.296 44.9681V14.5041H351.456L352.968 22.7921ZM352.968 34.3841C350.952 37.9681 346.192 40.6001 340.76 40.6001C333.648 40.6001 327.6 36.0081 327.6 30.5761C327.6 25.1441 333.648 20.5521 340.76 20.5521C346.192 20.5521 350.952 23.1841 352.968 26.8801V34.3841ZM372.349 6.55208H365.965V10.0801H372.349V6.55208ZM374.533 48.1041C373.245 46.8721 372.517 45.1921 372.517 43.4561V14.5041H366.133V44.2961C366.133 45.7521 366.637 47.1521 367.533 48.2721L368.709 49.6721H376.325L374.533 48.1041ZM394.807 45.6401C391.055 45.6401 389.319 43.2881 389.319 39.7041V17.4161H399.399V14.4481H389.319L389.375 14.1121L389.263 6.77608H384.279V14.4481H376.943V17.4161H382.935L384.223 16.6881H385.119L382.935 23.2961V39.0881C382.935 46.2001 386.967 50.1201 394.079 50.1201C396.711 50.1201 399.735 49.3361 401.807 47.6561L399.791 43.9601C398.447 45.0801 396.767 45.6401 394.807 45.6401ZM426.125 13.9441L422.877 14.0001C416.213 14.1121 410.389 16.8001 407.085 20.8321L412.349 23.4641C414.533 20.6641 418.565 18.7041 423.157 18.6481L425.397 18.5921C431.333 18.4801 436.149 22.0081 436.149 26.4321L437.549 33.6001H437.437C435.533 31.8641 433.293 29.0081 429.821 28.0561C428.197 27.6081 426.349 27.3281 424.501 27.3281C419.573 27.4401 414.869 28.6161 411.285 30.6321C407.365 32.8161 405.237 35.7841 405.237 38.9201C405.237 42.0561 407.365 44.9681 411.229 46.9841C414.757 48.8881 419.461 49.8961 424.445 49.8401C428.981 49.7281 432.285 46.6481 436.877 42.3361H437.381L436.093 49.6161L442.701 49.5041L442.813 26.1521C442.813 19.2081 435.365 13.7761 426.125 13.9441ZM436.093 39.7601C434.749 42.3921 429.709 44.4641 423.885 44.5761C417.053 44.6881 411.285 42.0561 411.285 38.8081C411.341 35.5601 417.109 32.7601 423.885 32.6481C429.765 32.5361 434.805 34.4401 436.149 37.0161L436.093 39.7601ZM455.081 40.0401V0.392087H448.697V40.7681C448.697 44.3521 450.545 47.7121 453.569 49.6721H461.185L460.457 49.2801C457.153 47.3761 455.081 43.8481 455.081 40.0401ZM514.215 19.7121C518.639 19.7121 523.119 21.1681 525.975 24.7521L531.967 21.6721C528.047 16.0721 520.879 14.1121 514.327 14.1121C503.407 14.1121 491.479 19.8801 491.479 32.0881C491.479 44.4081 503.575 50.1201 514.327 50.1201C520.935 50.1201 527.991 48.1601 531.967 42.5041L525.975 39.4801C523.119 43.0641 518.639 44.5201 514.215 44.5201C506.599 44.5201 499.375 40.3201 499.375 32.0881C499.375 23.9121 506.655 19.7121 514.215 19.7121ZM553.962 14.1121C546.794 14.1121 540.354 16.3521 536.602 22.7921C535.034 25.5361 534.25 28.6161 534.25 32.0881C534.25 38.7521 537.274 44.4641 543.154 47.7681C545.954 49.3361 550.434 50.1201 553.962 50.1201C561.242 50.1201 567.402 47.7681 571.266 41.3841C572.834 38.6401 573.618 35.5601 573.618 32.0881C573.618 28.6161 572.834 25.5361 571.266 22.7921C567.402 16.3521 561.242 14.1121 553.962 14.1121ZM561.41 42.9521C559.618 44.0161 556.202 44.5201 553.962 44.5201C548.866 44.5201 544.89 43.1201 542.258 38.5841C541.194 36.6801 540.69 34.4961 540.69 32.0881C540.69 27.6081 542.594 23.5761 546.514 21.2241C548.306 20.2161 551.722 19.7121 553.962 19.7121C558.946 19.7121 563.09 21.0001 565.61 25.5921C566.618 27.4961 567.178 29.6241 567.178 32.0881C567.178 36.5121 565.274 40.6561 561.41 42.9521ZM597.233 14.3361C594.545 14.3361 592.137 14.7281 590.009 15.7361C583.905 18.5361 582.617 37.6321 582.617 37.6321C581.105 30.8001 581.777 23.6321 584.577 17.1361L584.801 16.5761V14.3921H578.417V49.8961H584.801V31.7521C584.801 24.6401 588.609 20.0481 595.945 20.0481C603.001 20.0481 606.361 23.3521 606.361 30.3521V49.8961H612.745V29.6241C612.745 19.5441 607.313 14.3361 597.233 14.3361ZM634.345 8.53539e-05C630.649 8.53539e-05 627.793 1.00809 625.665 3.08009C622.585 6.27208 622.753 11.3681 625.889 14.5041L626.561 15.1201L626.673 16.8001L622.697 14.4481H616.705V17.4721H622.697V49.6721H629.081V17.4721H639.161V14.4481H628.913V11.4241C628.913 7.28009 630.817 5.20809 634.681 5.20809C636.473 5.20809 638.097 5.76808 639.553 6.88809L641.513 2.01609C639.385 0.560085 636.921 8.53539e-05 634.345 8.53539e-05ZM651.036 6.55208H644.652V10.0801H651.036V6.55208ZM653.22 48.1041C651.932 46.8721 651.204 45.1921 651.204 43.4561V14.5041H644.82V44.2961C644.82 45.7521 645.324 47.1521 646.22 48.2721L647.396 49.6721H655.012L653.22 48.1041ZM690.441 17.5841L691.449 24.5841C691.281 24.4161 691.113 24.3041 690.945 24.1361C688.593 22.1761 686.521 17.3601 682.825 15.4001C681.201 14.5601 679.185 14.1121 677.337 14.1121C667.257 14.1121 657.345 21.2241 657.345 31.9761C657.345 42.7281 667.257 49.7841 677.337 49.7841C682.433 49.7841 685.457 47.8241 690.833 40.2641L691.729 40.3201L690.441 49.5041H696.713V1.28809H690.441V17.5841ZM690.441 36.1761C688.201 40.0401 683.105 42.7841 677.337 42.7841C669.609 42.7841 663.057 37.8561 663.057 31.9761C663.057 26.0961 669.609 21.1121 677.337 21.1121C683.105 21.1121 688.201 23.8561 690.441 27.7201V36.1761ZM723.308 14.1121C712.5 14.1121 702.14 20.5521 702.14 32.0881C702.14 39.3681 706.452 44.8561 712.948 47.8241C716.42 49.3361 720.396 50.1201 724.82 50.1201C730.644 50.1201 737.196 48.5521 741.508 44.4081L737.252 40.2641C734.172 43.1201 730.14 44.5201 725.1 44.5201C720.956 44.5201 717.428 43.6241 714.684 41.6641C709.812 38.2481 708.972 33.7681 709.308 30.6881L712.668 32.1441L744.196 32.3121C744.196 32.3121 744.588 27.4401 741.508 22.8481C737.476 16.6881 730.476 14.1121 723.308 14.1121ZM709.812 29.6241C710.708 22.7921 716.924 19.5441 723.308 19.5441C729.636 19.5441 735.964 22.7921 736.86 29.6241H709.812ZM767.858 14.3361C765.17 14.3361 762.762 14.7281 760.634 15.7361C754.53 18.5361 753.242 37.6321 753.242 37.6321C751.73 30.8001 752.402 23.6321 755.202 17.1361L755.426 16.5761V14.3921H749.042V49.8961H755.426V31.7521C755.426 24.6401 759.234 20.0481 766.57 20.0481C773.626 20.0481 776.986 23.3521 776.986 30.3521V49.8961H783.37V29.6241C783.37 19.5441 777.938 14.3361 767.858 14.3361ZM810.402 19.7121C814.826 19.7121 819.306 21.1681 822.162 24.7521L828.154 21.6721C824.234 16.0721 817.066 14.1121 810.514 14.1121C799.594 14.1121 787.666 19.8801 787.666 32.0881C787.666 44.4081 799.762 50.1201 810.514 50.1201C817.122 50.1201 824.178 48.1601 828.154 42.5041L822.162 39.4801C819.306 43.0641 814.826 44.5201 810.402 44.5201C802.786 44.5201 795.562 40.3201 795.562 32.0881C795.562 23.9121 802.842 19.7121 810.402 19.7121ZM851.605 14.1121C840.797 14.1121 830.437 20.5521 830.437 32.0881C830.437 39.3681 834.749 44.8561 841.245 47.8241C844.717 49.3361 848.693 50.1201 853.117 50.1201C858.941 50.1201 865.493 48.5521 869.805 44.4081L865.549 40.2641C862.469 43.1201 858.437 44.5201 853.397 44.5201C849.253 44.5201 845.725 43.6241 842.981 41.6641C838.109 38.2481 837.269 33.7681 837.605 30.6881L840.965 32.1441L872.493 32.3121C872.493 32.3121 872.885 27.4401 869.805 22.8481C865.773 16.6881 858.773 14.1121 851.605 14.1121ZM838.109 29.6241C839.005 22.7921 845.221 19.5441 851.605 19.5441C857.933 19.5441 864.261 22.7921 865.157 29.6241H838.109Z" fill="black"/>
</svg>
