<svg width="920" height="64" viewBox="0 0 920 64" fill="none" xmlns="http://www.w3.org/2000/svg">
<path d="M29.456 49.616C37.128 49.616 44.296 48.272 49.56 42.28L45.248 38.08C41.44 42.112 34.216 44.072 27.328 44.072C22.624 44.072 18.032 43.176 14.784 41.328C12.04 39.816 9.352 37.632 7.784 34.944C4.648 28.84 5.096 22.736 8.232 16.632C12.432 9.632 19.6 7.504 27.44 7.504C34.272 7.504 41.44 9.464 45.248 13.44L49.56 9.24C44.296 3.248 37.24 1.96 29.568 1.96C19.264 1.96 9.8 4.144 4.256 13.608C4.45545e-06 21.728 4.45545e-06 29.848 4.256 37.968C9.8 47.432 19.096 49.616 29.456 49.616ZM72.6653 13.72C65.4973 13.72 59.0573 15.96 55.3053 22.4C53.7373 25.144 52.9533 28.224 52.9533 31.696C52.9533 38.36 55.9773 44.072 61.8573 47.376C64.6573 48.944 69.1373 49.728 72.6653 49.728C79.9453 49.728 86.1053 47.376 89.9693 40.992C91.5373 38.248 92.3213 35.168 92.3213 31.696C92.3213 28.224 91.5373 25.144 89.9693 22.4C86.1053 15.96 79.9453 13.72 72.6653 13.72ZM80.1133 42.56C78.3213 43.624 74.9053 44.128 72.6653 44.128C67.5693 44.128 63.5933 42.728 60.9613 38.192C59.8973 36.288 59.3933 34.104 59.3933 31.696C59.3933 27.216 61.2973 23.184 65.2173 20.832C67.0093 19.824 70.4253 19.32 72.6653 19.32C77.6493 19.32 81.7933 20.608 84.3133 25.2C85.3213 27.104 85.8813 29.232 85.8813 31.696C85.8813 36.12 83.9773 40.264 80.1133 42.56ZM104.815 39.648V-2.86102e-06H98.4314V40.376C98.4314 43.96 100.279 47.32 103.303 49.28H110.919L110.191 48.888C106.887 46.984 104.815 43.456 104.815 39.648ZM134.539 13.552L131.291 13.608C124.627 13.72 118.803 16.408 115.499 20.44L120.763 23.072C122.947 20.272 126.979 18.312 131.571 18.256L133.811 18.2C139.747 18.088 144.563 21.616 144.563 26.04L145.963 33.208H145.851C143.947 31.472 141.707 28.616 138.235 27.664C136.611 27.216 134.763 26.936 132.915 26.936C127.987 27.048 123.283 28.224 119.699 30.24C115.779 32.424 113.651 35.392 113.651 38.528C113.651 41.664 115.779 44.576 119.643 46.592C123.171 48.496 127.875 49.504 132.859 49.448C137.395 49.336 140.699 46.256 145.291 41.944H145.795L144.507 49.224L151.115 49.112L151.227 25.76C151.227 18.816 143.779 13.384 134.539 13.552ZM144.507 39.368C143.163 42 138.123 44.072 132.299 44.184C125.467 44.296 119.699 41.664 119.699 38.416C119.755 35.168 125.523 32.368 132.299 32.256C138.179 32.144 143.219 34.048 144.563 36.624L144.507 39.368ZM176.711 13.72C174.807 13.72 172.847 14.168 171.167 15.008C167.471 16.968 165.455 21.784 163.103 23.744C162.879 23.912 162.711 24.024 162.543 24.192L163.607 17.192V0.895996H157.279V49.112H163.607L162.263 39.928L163.159 39.872C168.591 47.432 171.559 49.392 176.711 49.392C186.847 49.392 196.647 42.336 196.647 31.584C196.647 20.832 186.847 13.72 176.711 13.72ZM176.711 42.392C170.943 42.392 165.791 39.648 163.607 35.784V27.328C165.791 23.464 170.943 20.72 176.711 20.72C184.439 20.72 190.935 25.704 190.935 31.584C190.935 37.464 184.439 42.392 176.711 42.392ZM219.556 13.72C212.388 13.72 205.948 15.96 202.196 22.4C200.628 25.144 199.844 28.224 199.844 31.696C199.844 38.36 202.868 44.072 208.748 47.376C211.548 48.944 216.028 49.728 219.556 49.728C226.836 49.728 232.996 47.376 236.86 40.992C238.428 38.248 239.212 35.168 239.212 31.696C239.212 28.224 238.428 25.144 236.86 22.4C232.996 15.96 226.836 13.72 219.556 13.72ZM227.004 42.56C225.212 43.624 221.796 44.128 219.556 44.128C214.46 44.128 210.484 42.728 207.852 38.192C206.788 36.288 206.284 34.104 206.284 31.696C206.284 27.216 208.188 23.184 212.108 20.832C213.9 19.824 217.316 19.32 219.556 19.32C224.54 19.32 228.684 20.608 231.204 25.2C232.212 27.104 232.772 29.232 232.772 31.696C232.772 36.12 230.868 40.264 227.004 42.56ZM255.603 15.344C249.499 18.144 248.211 37.24 248.211 37.24C246.699 30.408 247.371 23.24 250.171 16.744L250.395 16.184V14H244.011V49.504H250.395V31.36C250.395 24.248 254.203 19.656 261.539 19.656C261.987 19.656 269.267 19.656 269.715 19.712V13.944H262.827C260.139 13.944 257.731 14.336 255.603 15.344ZM291.219 13.552L287.971 13.608C281.307 13.72 275.483 16.408 272.179 20.44L277.443 23.072C279.627 20.272 283.659 18.312 288.251 18.256L290.491 18.2C296.427 18.088 301.243 21.616 301.243 26.04L302.643 33.208H302.531C300.627 31.472 298.387 28.616 294.915 27.664C293.291 27.216 291.443 26.936 289.595 26.936C284.667 27.048 279.963 28.224 276.379 30.24C272.459 32.424 270.331 35.392 270.331 38.528C270.331 41.664 272.459 44.576 276.323 46.592C279.851 48.496 284.555 49.504 289.539 49.448C294.075 49.336 297.379 46.256 301.971 41.944H302.475L301.187 49.224L307.795 49.112L307.907 25.76C307.907 18.816 300.459 13.384 291.219 13.552ZM301.187 39.368C299.843 42 294.803 44.072 288.979 44.184C282.147 44.296 276.379 41.664 276.379 38.416C276.435 35.168 282.203 32.368 288.979 32.256C294.859 32.144 299.899 34.048 301.243 36.624L301.187 39.368ZM329.191 45.248C325.439 45.248 323.703 42.896 323.703 39.312V17.024H333.783V14.056H323.703L323.759 13.72L323.647 6.384H318.663V14.056H311.327V17.024H317.319L318.607 16.296H319.503L317.319 22.904V38.696C317.319 45.808 321.351 49.728 328.463 49.728C331.095 49.728 334.119 48.944 336.191 47.264L334.175 43.568C332.831 44.688 331.151 45.248 329.191 45.248ZM346.052 6.15999H339.668V9.688H346.052V6.15999ZM348.236 47.712C346.948 46.48 346.22 44.8 346.22 43.064V14.112H339.836V43.904C339.836 45.36 340.34 46.76 341.236 47.88L342.412 49.28H350.028L348.236 47.712ZM367.643 42.504H366.131V38.696L355.603 14.056H348.939L364.339 49.28H370.891L386.291 14.056H380.075L367.643 42.504ZM407.278 13.72C396.47 13.72 386.11 20.16 386.11 31.696C386.11 38.976 390.422 44.464 396.918 47.432C400.39 48.944 404.366 49.728 408.79 49.728C414.614 49.728 421.166 48.16 425.478 44.016L421.222 39.872C418.142 42.728 414.11 44.128 409.07 44.128C404.926 44.128 401.398 43.232 398.654 41.272C393.782 37.856 392.942 33.376 393.278 30.296L396.638 31.752L428.166 31.92C428.166 31.92 428.558 27.048 425.478 22.456C421.446 16.296 414.446 13.72 407.278 13.72ZM393.782 29.232C394.678 22.4 400.894 19.152 407.278 19.152C413.606 19.152 419.934 22.4 420.83 29.232H393.782ZM500.937 49.448C500.937 49.448 498.137 44.24 497.969 43.848V21.168H494.105V37.856C487.665 28.896 478.705 20.888 469.465 17.304C467.841 16.688 466.721 15.12 466.665 13.384C466.665 10.976 468.569 8.96 470.977 8.96H490.465L486.377 3.472H472.881C467.561 3.472 463.193 7.84 463.193 13.16C463.193 16.016 464.369 18.984 466.609 20.664C462.185 22.96 457.313 28.112 457.313 33.432C457.313 42.448 466.441 49.224 475.401 49.224L495.337 49.448H500.937ZM462.969 32.928C462.969 28 465.321 22.848 470.025 22.12C479.657 24.08 491.025 36.288 494.105 47.208H475.849C469.465 47.208 462.969 39.816 462.969 32.928ZM551.774 13.72C549.926 13.72 547.91 14.168 546.286 15.008C543.374 16.576 541.47 19.88 539.678 22.176L538.278 14.112H531.558L533.406 18.256V61.152C533.406 61.88 533.406 62.552 533.462 63.28H539.79C539.79 62.776 539.79 62.328 539.79 61.824L539.734 42.28C544.27 48.048 547.182 49.28 551.774 49.28C561.798 49.28 571.71 42.224 571.71 31.528C571.71 20.776 561.854 13.72 551.774 13.72ZM551.774 42.336C546.79 42.336 542.254 40.208 539.734 37.128V25.872C542.254 22.792 546.79 20.664 551.774 20.664C559.502 20.664 565.998 25.648 565.998 31.528C565.998 37.352 559.502 42.336 551.774 42.336ZM596.32 13.552L593.072 13.608C586.408 13.72 580.584 16.408 577.28 20.44L582.544 23.072C584.728 20.272 588.76 18.312 593.352 18.256L595.592 18.2C601.528 18.088 606.344 21.616 606.344 26.04L607.744 33.208H607.632C605.728 31.472 603.488 28.616 600.016 27.664C598.392 27.216 596.544 26.936 594.696 26.936C589.768 27.048 585.064 28.224 581.48 30.24C577.56 32.424 575.432 35.392 575.432 38.528C575.432 41.664 577.56 44.576 581.424 46.592C584.952 48.496 589.656 49.504 594.64 49.448C599.176 49.336 602.48 46.256 607.072 41.944H607.576L606.288 49.224L612.896 49.112L613.008 25.76C613.008 18.816 605.56 13.384 596.32 13.552ZM606.288 39.368C604.944 42 599.904 44.072 594.08 44.184C587.248 44.296 581.48 41.664 581.48 38.416C581.536 35.168 587.304 32.368 594.08 32.256C599.96 32.144 605 34.048 606.344 36.624L606.288 39.368ZM630.54 15.344C624.436 18.144 623.148 37.24 623.148 37.24C621.636 30.408 622.308 23.24 625.108 16.744L625.332 16.184V14H618.948V49.504H625.332V31.36C625.332 24.248 629.14 19.656 636.476 19.656C636.924 19.656 644.204 19.656 644.652 19.712V13.944H637.764C635.076 13.944 632.668 14.336 630.54 15.344ZM662.292 45.248C658.54 45.248 656.804 42.896 656.804 39.312V17.024H666.884V14.056H656.804L656.86 13.72L656.748 6.384H651.764V14.056H644.428V17.024H650.42L651.708 16.296H652.604L650.42 22.904V38.696C650.42 45.808 654.452 49.728 661.564 49.728C664.196 49.728 667.22 48.944 669.292 47.264L667.276 43.568C665.932 44.688 664.252 45.248 662.292 45.248ZM693.217 13.944C690.529 13.944 688.121 14.336 685.993 15.344C679.889 18.144 678.601 37.24 678.601 37.24C677.089 30.408 677.761 23.24 680.561 16.744L680.785 16.184V14H674.401V49.504H680.785V31.36C680.785 24.248 684.593 19.656 691.929 19.656C698.985 19.656 702.345 22.96 702.345 29.96V49.504H708.729V29.232C708.729 19.152 703.297 13.944 693.217 13.944ZM734.418 13.72C723.61 13.72 713.25 20.16 713.25 31.696C713.25 38.976 717.562 44.464 724.058 47.432C727.53 48.944 731.506 49.728 735.93 49.728C741.754 49.728 748.306 48.16 752.618 44.016L748.362 39.872C745.282 42.728 741.25 44.128 736.21 44.128C732.066 44.128 728.538 43.232 725.794 41.272C720.922 37.856 720.082 33.376 720.418 30.296L723.778 31.752L755.306 31.92C755.306 31.92 755.698 27.048 752.618 22.456C748.586 16.296 741.586 13.72 734.418 13.72ZM720.922 29.232C721.818 22.4 728.034 19.152 734.418 19.152C740.746 19.152 747.074 22.4 747.97 29.232H720.922ZM771.743 15.344C765.639 18.144 764.351 37.24 764.351 37.24C762.839 30.408 763.511 23.24 766.311 16.744L766.535 16.184V14H760.151V49.504H766.535V31.36C766.535 24.248 770.343 19.656 777.679 19.656C778.127 19.656 785.407 19.656 785.855 19.712V13.944H778.967C776.279 13.944 773.871 14.336 771.743 15.344ZM813.351 30.856C811.615 30.296 805.231 29.792 802.431 29.288C800.303 28.896 798.623 28.56 797.447 28.224C796.271 27.944 795.319 27.44 794.479 26.768C793.527 25.984 793.135 24.64 793.359 23.408C793.527 22.176 794.367 21.168 795.431 20.552C796.887 19.6 798.623 19.32 800.303 19.208C803.159 19.04 805.959 19.712 808.647 20.608C811.111 21.392 813.743 22.288 815.927 23.688L818.223 18.592C814.303 16.072 807.639 14.336 803.103 13.888C799.687 13.496 796.327 13.776 793.247 15.288C790.615 16.576 788.207 18.648 787.367 21.504C786.527 24.304 786.863 27.888 788.935 30.072C790.223 31.472 791.735 32.424 793.527 33.04C795.319 33.6 797.671 34.104 800.471 34.552C802.543 34.888 808.255 35.224 809.375 35.504C810.495 35.784 811.447 36.232 812.231 36.904C813.183 37.688 813.687 39.256 813.071 40.432C811.783 43.344 805.175 44.184 802.543 44.24C799.631 44.296 796.551 43.848 793.695 43.008C791.847 42.448 790.055 41.664 788.431 40.6C787.535 40.04 786.751 39.312 785.855 38.696V45.136C790.223 48.608 796.103 49.616 801.535 49.728C803.775 49.784 806.015 49.728 808.255 49.336C812.903 48.608 818.167 46.312 819.399 41.328C820.127 38.808 819.679 35.672 817.831 33.712C816.599 32.368 815.143 31.416 813.351 30.856ZM843.661 13.72C840.973 13.72 838.565 14.168 836.437 15.12C830.333 17.92 829.045 37.016 829.045 37.016C827.533 30.184 828.205 23.016 831.005 16.52L831.229 15.96V-2.86102e-06H824.845V49.28H831.229V31.136C831.229 24.024 835.037 19.432 842.373 19.432C849.429 19.432 852.789 22.736 852.789 29.736V49.28H859.173V29.008C859.173 18.928 853.685 13.72 843.661 13.72ZM871.927 6.15999H865.543V9.688H871.927V6.15999ZM874.111 47.712C872.823 46.48 872.095 44.8 872.095 43.064V14.112H865.711V43.904C865.711 45.36 866.215 46.76 867.111 47.88L868.287 49.28H875.903L874.111 47.712ZM899.641 13.72C897.793 13.72 895.777 14.168 894.153 15.008C891.241 16.576 889.337 19.88 887.545 22.176L886.145 14.112H879.425L881.273 18.256V61.152C881.273 61.88 881.273 62.552 881.329 63.28H887.657C887.657 62.776 887.657 62.328 887.657 61.824L887.601 42.28C892.137 48.048 895.049 49.28 899.641 49.28C909.665 49.28 919.577 42.224 919.577 31.528C919.577 20.776 909.721 13.72 899.641 13.72ZM899.641 42.336C894.657 42.336 890.121 40.208 887.601 37.128V25.872C890.121 22.792 894.657 20.664 899.641 20.664C907.369 20.664 913.865 25.648 913.865 31.528C913.865 37.352 907.369 42.336 899.641 42.336Z" fill="black"/>
</svg>
