<svg width="879" height="63" viewBox="0 0 879 63" fill="none" xmlns="http://www.w3.org/2000/svg">
<path d="M69.888 4.76L51.24 47.432L39.928 21.952L47.432 4.76H40.824L36.568 14.448L32.2 4.76H29.064L34.944 18.144L22.176 47.432L3.19197 4.76H-2.97837e-05L20.496 51.24H27.048L38.248 25.704L49.504 51.24H56.112L76.496 4.76H69.888ZM95.7425 13.72C84.9345 13.72 74.5745 20.16 74.5745 31.696C74.5745 38.976 78.8865 44.464 85.3825 47.432C88.8545 48.944 92.8305 49.728 97.2545 49.728C103.078 49.728 109.63 48.16 113.942 44.016L109.686 39.872C106.606 42.728 102.574 44.128 97.5345 44.128C93.3905 44.128 89.8625 43.232 87.1185 41.272C82.2465 37.856 81.4065 33.376 81.7425 30.296L85.1025 31.752L116.63 31.92C116.63 31.92 117.022 27.048 113.942 22.456C109.91 16.296 102.91 13.72 95.7425 13.72ZM82.2465 29.232C83.1425 22.4 89.3585 19.152 95.7425 19.152C102.07 19.152 108.398 22.4 109.294 29.232H82.2465ZM162.578 45.248C158.826 45.248 157.09 42.896 157.09 39.312V17.024H167.17V14.056H157.09L157.146 13.72L157.034 6.384H152.05V14.056H144.714V17.024H150.706L151.994 16.296H152.89L150.706 22.904V38.696C150.706 45.808 154.738 49.728 161.85 49.728C164.482 49.728 167.506 48.944 169.578 47.264L167.562 43.568C166.218 44.688 164.538 45.248 162.578 45.248ZM193.895 13.552L190.647 13.608C183.983 13.72 178.159 16.408 174.855 20.44L180.119 23.072C182.303 20.272 186.335 18.312 190.927 18.256L193.167 18.2C199.103 18.088 203.919 21.616 203.919 26.04L205.319 33.208H205.207C203.303 31.472 201.063 28.616 197.591 27.664C195.967 27.216 194.119 26.936 192.271 26.936C187.343 27.048 182.639 28.224 179.055 30.24C175.135 32.424 173.007 35.392 173.007 38.528C173.007 41.664 175.135 44.576 178.999 46.592C182.527 48.496 187.231 49.504 192.215 49.448C196.751 49.336 200.055 46.256 204.647 41.944H205.151L203.863 49.224L210.471 49.112L210.583 25.76C210.583 18.816 203.135 13.384 193.895 13.552ZM203.863 39.368C202.519 42 197.479 44.072 191.655 44.184C184.823 44.296 179.055 41.664 179.055 38.416C179.111 35.168 184.879 32.368 191.655 32.256C197.535 32.144 202.575 34.048 203.919 36.624L203.863 39.368ZM222.851 39.648V-2.86102e-06H216.467V40.376C216.467 43.96 218.315 47.32 221.339 49.28H228.955L228.227 48.888C224.923 46.984 222.851 43.456 222.851 39.648ZM248.113 25.256L259.593 14.056H256.289L239.265 29.344L235.905 35.56L238.649 21.616V-2.86102e-06H232.265V49.28H238.649V34.272L244.361 28.56L261.049 49.28H267.041L253.209 31.808L248.113 25.256ZM315.903 13.552L312.655 13.608C305.991 13.72 300.167 16.408 296.863 20.44L302.127 23.072C304.311 20.272 308.343 18.312 312.935 18.256L315.175 18.2C321.111 18.088 325.927 21.616 325.927 26.04L327.327 33.208H327.215C325.311 31.472 323.071 28.616 319.599 27.664C317.975 27.216 316.127 26.936 314.279 26.936C309.351 27.048 304.647 28.224 301.063 30.24C297.143 32.424 295.015 35.392 295.015 38.528C295.015 41.664 297.143 44.576 301.007 46.592C304.535 48.496 309.239 49.504 314.223 49.448C318.759 49.336 322.063 46.256 326.655 41.944H327.159L325.871 49.224L332.479 49.112L332.591 25.76C332.591 18.816 325.143 13.384 315.903 13.552ZM325.871 39.368C324.527 42 319.487 44.072 313.663 44.184C306.831 44.296 301.063 41.664 301.063 38.416C301.119 35.168 306.887 32.368 313.663 32.256C319.543 32.144 324.583 34.048 325.927 36.624L325.871 39.368ZM358.074 13.72C356.17 13.72 354.21 14.168 352.53 15.008C348.834 16.968 346.818 21.784 344.466 23.744C344.242 23.912 344.074 24.024 343.906 24.192L344.97 17.192V0.895996H338.642V49.112H344.97L343.626 39.928L344.522 39.872C349.954 47.432 352.922 49.392 358.074 49.392C368.21 49.392 378.01 42.336 378.01 31.584C378.01 20.832 368.21 13.72 358.074 13.72ZM358.074 42.392C352.306 42.392 347.154 39.648 344.97 35.784V27.328C347.154 23.464 352.306 20.72 358.074 20.72C365.802 20.72 372.298 25.704 372.298 31.584C372.298 37.464 365.802 42.392 358.074 42.392ZM400.919 13.72C393.751 13.72 387.311 15.96 383.559 22.4C381.991 25.144 381.207 28.224 381.207 31.696C381.207 38.36 384.231 44.072 390.111 47.376C392.911 48.944 397.391 49.728 400.919 49.728C408.199 49.728 414.359 47.376 418.223 40.992C419.791 38.248 420.575 35.168 420.575 31.696C420.575 28.224 419.791 25.144 418.223 22.4C414.359 15.96 408.199 13.72 400.919 13.72ZM408.367 42.56C406.575 43.624 403.159 44.128 400.919 44.128C395.823 44.128 391.847 42.728 389.215 38.192C388.151 36.288 387.647 34.104 387.647 31.696C387.647 27.216 389.551 23.184 393.471 20.832C395.263 19.824 398.679 19.32 400.919 19.32C405.903 19.32 410.047 20.608 412.567 25.2C413.575 27.104 414.135 29.232 414.135 31.696C414.135 36.12 412.231 40.264 408.367 42.56ZM459.422 41.776V13.944H453.038V32.088C453.038 39.256 449.23 43.792 441.894 43.792C434.838 43.792 431.478 40.544 431.478 33.488V13.944H425.094V34.216C425.094 44.24 430.638 49.504 440.606 49.504C443.294 49.504 445.702 49.112 447.83 48.104C453.934 45.304 455.222 26.208 455.222 26.208C456.734 33.096 456.062 40.208 453.318 46.704L453.038 47.264C453.038 48.496 454.046 49.448 455.278 49.448H463.398C460.934 47.712 459.422 44.856 459.422 41.776ZM481.46 45.248C477.708 45.248 475.972 42.896 475.972 39.312V17.024H486.052V14.056H475.972L476.028 13.72L475.916 6.384H470.932V14.056H463.596V17.024H469.588L470.876 16.296H471.772L469.588 22.904V38.696C469.588 45.808 473.62 49.728 480.732 49.728C483.364 49.728 486.388 48.944 488.46 47.264L486.444 43.568C485.1 44.688 483.42 45.248 481.46 45.248ZM537.583 13.72C530.415 13.72 523.975 15.96 520.223 22.4C518.655 25.144 517.871 28.224 517.871 31.696C517.871 38.36 520.895 44.072 526.775 47.376C529.575 48.944 534.055 49.728 537.583 49.728C544.863 49.728 551.023 47.376 554.887 40.992C556.455 38.248 557.239 35.168 557.239 31.696C557.239 28.224 556.455 25.144 554.887 22.4C551.023 15.96 544.863 13.72 537.583 13.72ZM545.031 42.56C543.239 43.624 539.823 44.128 537.583 44.128C532.487 44.128 528.511 42.728 525.879 38.192C524.815 36.288 524.311 34.104 524.311 31.696C524.311 27.216 526.215 23.184 530.135 20.832C531.927 19.824 535.343 19.32 537.583 19.32C542.567 19.32 546.711 20.608 549.231 25.2C550.239 27.104 550.799 29.232 550.799 31.696C550.799 36.12 548.895 40.264 545.031 42.56ZM596.086 41.776V13.944H589.702V32.088C589.702 39.256 585.894 43.792 578.558 43.792C571.502 43.792 568.142 40.544 568.142 33.488V13.944H561.758V34.216C561.758 44.24 567.302 49.504 577.27 49.504C579.958 49.504 582.366 49.112 584.494 48.104C590.598 45.304 591.886 26.208 591.886 26.208C593.398 33.096 592.726 40.208 589.982 46.704L589.702 47.264C589.702 48.496 590.71 49.448 591.942 49.448H600.062C597.598 47.712 596.086 44.856 596.086 41.776ZM614.755 15.344C608.651 18.144 607.363 37.24 607.363 37.24C605.851 30.408 606.523 23.24 609.323 16.744L609.547 16.184V14H603.163V49.504H609.547V31.36C609.547 24.248 613.355 19.656 620.691 19.656C621.139 19.656 628.419 19.656 628.867 19.712V13.944H621.979C619.291 13.944 616.883 14.336 614.755 15.344ZM694.889 46.032L682.345 14.056H680.721L670.081 42.112V46.2L668.121 46.032L668.793 38.584L659.833 14.056H653.785L666.889 49.28H672.993L683.297 22.568L693.489 49.28H699.593L712.753 14.056H707.041L694.889 46.032ZM733.672 13.72C722.864 13.72 712.504 20.16 712.504 31.696C712.504 38.976 716.816 44.464 723.312 47.432C726.784 48.944 730.76 49.728 735.184 49.728C741.008 49.728 747.56 48.16 751.872 44.016L747.616 39.872C744.536 42.728 740.504 44.128 735.464 44.128C731.32 44.128 727.792 43.232 725.048 41.272C720.176 37.856 719.336 33.376 719.672 30.296L723.032 31.752L754.56 31.92C754.56 31.92 754.952 27.048 751.872 22.456C747.84 16.296 740.84 13.72 733.672 13.72ZM720.176 29.232C721.072 22.4 727.288 19.152 733.672 19.152C740 19.152 746.328 22.4 747.224 29.232H720.176ZM766.181 6.15999H759.797V9.688H766.181V6.15999ZM768.365 47.712C767.077 46.48 766.349 44.8 766.349 43.064V14.112H759.965V43.904C759.965 45.36 760.469 46.76 761.365 47.88L762.541 49.28H770.157L768.365 47.712ZM803.675 22.4V22.624C801.659 20.664 799.811 16.632 796.563 14.952C795.051 14.112 793.259 13.72 791.467 13.72C782.171 13.72 773.043 20.328 773.043 30.184C773.043 40.096 782.115 46.648 791.467 46.648C796.115 46.648 798.859 45.36 803.619 38.864V45.192C803.619 53.368 799.643 57.064 791.523 57.064C786.875 57.064 781.555 55.552 777.971 52.472L774.891 57.4C779.203 61.208 786.147 62.664 791.747 62.664C803.899 62.664 810.003 56.784 810.003 44.576V14.112H802.163L803.675 22.4ZM803.675 33.992C801.659 37.576 796.899 40.208 791.467 40.208C784.355 40.208 778.307 35.616 778.307 30.184C778.307 24.752 784.355 20.16 791.467 20.16C796.899 20.16 801.659 22.792 803.675 26.488V33.992ZM835.04 13.72C832.352 13.72 829.944 14.168 827.816 15.12C821.712 17.92 820.424 37.016 820.424 37.016C818.912 30.184 819.584 23.016 822.384 16.52L822.608 15.96V-2.86102e-06H816.224V49.28H822.608V31.136C822.608 24.024 826.416 19.432 833.752 19.432C840.808 19.432 844.168 22.736 844.168 29.736V49.28H850.552V29.008C850.552 18.928 845.064 13.72 835.04 13.72ZM871.874 45.248C868.122 45.248 866.386 42.896 866.386 39.312V17.024H876.466V14.056H866.386L866.442 13.72L866.33 6.384H861.346V14.056H854.01V17.024H860.002L861.29 16.296H862.186L860.002 22.904V38.696C860.002 45.808 864.034 49.728 871.146 49.728C873.778 49.728 876.802 48.944 878.874 47.264L876.858 43.568C875.514 44.688 873.834 45.248 871.874 45.248Z" fill="black"/>
</svg>
